<svg width="195" height="130" viewBox="0 0 195 130" fill="none" xmlns="http://www.w3.org/2000/svg">
<g clip-path="url(#clip0_138_2256)">
<path d="M91.4875 86.6125H56.7125V151.45H91.4875V86.6125Z" fill="#82B1FF"/>
<path d="M187.581 115.573H5.80929C5.60071 115.573 5.45471 115.464 5.45471 115.31C5.45471 115.157 5.60071 115.048 5.80929 115.048H187.581C187.789 115.048 187.935 115.157 187.935 115.31C187.935 115.464 187.747 115.573 187.581 115.573Z" fill="#222433"/>
<path d="M45.9875 101.238H11.375V165.75H45.9875V101.238Z" fill="#82B1FF"/>
<path d="M136.825 76.5555H102.213V136.175H136.825V76.5555Z" fill="#82B1FF"/>
<path d="M99.4027 90.3975L96.8562 92.3044L94.946 89.7666C94.649 89.3734 94.4326 88.9255 94.3092 88.4487C94.1858 87.9719 94.1578 87.4754 94.2269 86.9877C94.2959 86.4999 94.4606 86.0304 94.7115 85.606C94.9625 85.1815 95.2947 84.8105 95.6894 84.514L95.6989 84.5069L98.2454 82.6L100.156 85.1377C100.453 85.531 100.669 85.9789 100.792 86.4557C100.916 86.9325 100.944 87.429 100.875 87.9167C100.806 88.4045 100.641 88.874 100.39 89.2984C100.139 89.7228 99.8068 90.0939 99.4122 90.3904L99.4027 90.3975Z" fill="white"/>
<path d="M96.8804 92.535C96.8406 92.5392 96.8003 92.533 96.7637 92.5171C96.727 92.5011 96.6951 92.476 96.671 92.4441L94.7608 89.9063C94.1241 89.0631 93.8495 88.002 93.9975 86.9563C94.1455 85.9106 94.704 84.9661 95.55 84.3304L95.5597 84.3232L98.1063 82.4163C98.1555 82.3795 98.2172 82.3637 98.278 82.3723C98.3388 82.3809 98.3937 82.4132 98.4306 82.4622L100.341 85C100.978 85.8432 101.252 86.9044 101.104 87.95C100.956 88.9957 100.398 89.9402 99.5516 90.5758L99.542 90.583L96.9954 92.49C96.9618 92.5151 96.9221 92.5307 96.8804 92.535ZM98.199 82.9245L95.8297 84.6982C95.4591 84.9764 95.1471 85.3246 94.9115 85.7229C94.6758 86.1212 94.5211 86.5619 94.4563 87.0197C94.3914 87.4775 94.4176 87.9436 94.5335 88.3911C94.6493 88.8387 94.8524 89.2591 95.1312 89.6282L96.9026 91.9816L99.273 90.2067C100.021 89.6448 100.514 88.8098 100.645 87.8855C100.776 86.9612 100.533 86.0232 99.9704 85.2779L98.199 82.9245Z" fill="#222433"/>
<path d="M93.5716 115.651C93.5526 115.653 93.5335 115.653 93.5146 115.65C93.4845 115.646 93.4555 115.636 93.4293 115.621C93.4031 115.605 93.3802 115.585 93.362 115.56C93.3437 115.536 93.3304 115.509 93.3229 115.479C93.3153 115.45 93.3137 115.419 93.318 115.389L97.269 87.789C97.2777 87.7283 97.3102 87.6735 97.3593 87.6367C97.4085 87.5999 97.4703 87.584 97.5311 87.5926C97.592 87.6013 97.6469 87.6336 97.6838 87.6826C97.7207 87.7316 97.7365 87.7932 97.7278 87.8539L93.7769 115.454C93.7696 115.505 93.7455 115.552 93.7083 115.588C93.6711 115.624 93.6229 115.646 93.5716 115.651Z" fill="#222433"/>
<path d="M98.2692 82.8303C98.2503 82.8323 98.2312 82.8319 98.2123 82.8293C98.1822 82.825 98.1532 82.8149 98.1271 82.7994C98.1009 82.784 98.078 82.7635 98.0598 82.7393C98.0415 82.715 98.0282 82.6874 98.0207 82.658C98.0131 82.6286 98.0114 82.598 98.0157 82.568L98.3738 80.064C98.3825 80.0033 98.415 79.9485 98.4641 79.9117C98.5133 79.8749 98.5751 79.8591 98.6359 79.8677C98.6967 79.8763 98.7516 79.9087 98.7884 79.9577C98.8253 80.0067 98.8411 80.0683 98.8324 80.129L98.4743 82.633C98.4671 82.684 98.4429 82.7311 98.4058 82.7668C98.3686 82.8026 98.3206 82.8249 98.2692 82.8303Z" fill="#222433"/>
<path d="M98.2687 82.8303C98.2146 82.8359 98.1602 82.8223 98.1152 82.7919C98.0701 82.7616 98.0372 82.7163 98.0223 82.6641L97.3271 80.2387C97.3182 80.2094 97.3152 80.1785 97.3183 80.148C97.3214 80.1175 97.3306 80.0879 97.3453 80.061C97.36 80.0341 97.3799 80.0103 97.4039 79.9911C97.4279 79.9719 97.4555 79.9577 97.485 79.9492C97.5146 79.9408 97.5455 79.9383 97.576 79.9419C97.6066 79.9455 97.6361 79.9551 97.6628 79.9702C97.6896 79.9853 97.713 80.0055 97.7318 80.0298C97.7507 80.054 97.7645 80.0817 97.7724 80.1113L98.4676 82.5368C98.4769 82.5693 98.479 82.6034 98.4736 82.6367C98.4683 82.6701 98.4557 82.7019 98.4368 82.7298C98.4178 82.7578 98.3929 82.7813 98.3639 82.7987C98.3348 82.8161 98.3023 82.8269 98.2687 82.8303Z" fill="#222433"/>
<path d="M98.269 82.8303C98.2257 82.8348 98.182 82.8271 98.143 82.808C98.1039 82.7888 98.071 82.7591 98.0481 82.7222C98.0252 82.6853 98.0132 82.6427 98.0134 82.5993C98.0137 82.5559 98.0262 82.5134 98.0495 82.4768L99.407 80.342C99.441 80.2925 99.4928 80.2581 99.5517 80.246C99.6105 80.2339 99.6717 80.2451 99.7224 80.2772C99.7731 80.3093 99.8093 80.3598 99.8234 80.4181C99.8375 80.4763 99.8283 80.5378 99.7978 80.5894L98.4407 82.7242C98.422 82.7537 98.3968 82.7785 98.3671 82.7969C98.3373 82.8153 98.3038 82.8267 98.269 82.8303Z" fill="#222433"/>
<path d="M96.7894 95.9564C97.7989 95.8506 98.5318 94.9485 98.4265 93.9416C98.3211 92.9347 97.4173 92.2041 96.4077 92.3099C95.3982 92.4157 94.6653 93.3178 94.7706 94.3247C94.876 95.3316 95.7798 96.0622 96.7894 95.9564Z" fill="white"/>
<path d="M96.8134 96.1864C96.4063 96.2291 95.9958 96.1504 95.6338 95.9604C95.2717 95.7703 94.9744 95.4774 94.7794 95.1186C94.5844 94.7598 94.5005 94.3513 94.5383 93.9447C94.5761 93.5381 94.7339 93.1518 94.9917 92.8344C95.2496 92.5171 95.5959 92.2831 95.9868 92.162C96.3778 92.0409 96.7959 92.0381 97.1882 92.1541C97.5805 92.27 97.9295 92.4994 98.1909 92.8133C98.4523 93.1271 98.6145 93.5114 98.657 93.9174C98.7132 94.4618 98.5507 95.0064 98.2051 95.4317C97.8595 95.8571 97.359 96.1285 96.8134 96.1864ZM96.4323 92.54C96.1163 92.5732 95.8173 92.6991 95.5729 92.9017C95.3285 93.1043 95.1497 93.3747 95.0593 93.6785C94.9688 93.9823 94.9707 94.306 95.0646 94.6086C95.1585 94.9113 95.3403 95.1792 95.587 95.3786C95.8337 95.578 96.1342 95.6999 96.4505 95.7288C96.7668 95.7578 97.0847 95.6926 97.364 95.5413C97.6432 95.3901 97.8714 95.1597 98.0195 94.8793C98.1676 94.5988 98.2291 94.2809 98.1962 93.9658C98.1516 93.5434 97.9408 93.156 97.6101 92.8887C97.2794 92.6214 96.8558 92.4959 96.4323 92.5399L96.4323 92.54Z" fill="#222433"/>
<path d="M49.0213 115.532C48.9662 115.515 48.9196 115.477 48.8902 115.428C48.8608 115.378 48.8508 115.319 48.8621 115.263L50.9172 104.932C50.9298 104.871 50.9659 104.818 51.0175 104.784C51.0691 104.75 51.1321 104.738 51.1929 104.75C51.2536 104.762 51.3071 104.798 51.3418 104.849C51.3764 104.9 51.3894 104.963 51.3779 105.024L49.3228 115.355C49.3107 115.416 49.2748 115.469 49.223 115.504C49.1712 115.538 49.1078 115.551 49.0467 115.539C49.0381 115.537 49.0296 115.535 49.0213 115.532Z" fill="#222433"/>
<path d="M48.7382 104.591C48.4429 104.496 48.1802 104.32 47.9804 104.083C47.7805 103.847 47.6516 103.558 47.6084 103.252C47.5653 102.945 47.6097 102.633 47.7364 102.35C47.8632 102.068 48.0672 101.827 48.3251 101.656C48.5049 101.536 48.7069 101.452 48.9193 101.41C49.1318 101.369 49.3505 101.369 49.5628 101.413L54.0571 102.312C54.4855 102.398 54.8623 102.651 55.1047 103.014C55.347 103.377 55.4351 103.821 55.3495 104.249C55.2631 104.676 55.0106 105.052 54.6473 105.293C54.284 105.534 53.8395 105.622 53.4112 105.536L48.9168 104.637C48.8565 104.625 48.7968 104.61 48.7382 104.591ZM54.0929 102.804C54.0511 102.791 54.0085 102.78 53.9655 102.771L49.471 101.872C49.1654 101.812 48.8485 101.875 48.5897 102.048C48.3308 102.22 48.1512 102.488 48.09 102.793C48.0288 103.098 48.091 103.415 48.2631 103.674C48.4351 103.934 48.703 104.115 49.0081 104.178L53.5026 105.077C53.7311 105.123 53.9681 105.1 54.1835 105.012C54.3989 104.923 54.5831 104.773 54.7128 104.58C54.8425 104.387 54.9117 104.159 54.9119 103.927C54.912 103.694 54.843 103.466 54.7136 103.272C54.5663 103.05 54.3472 102.885 54.0929 102.804ZM48.7537 103.489C48.634 103.451 48.531 103.373 48.462 103.269C48.4016 103.178 48.3695 103.071 48.3697 102.962C48.37 102.853 48.4027 102.746 48.4636 102.656C48.5246 102.565 48.611 102.495 48.7121 102.454C48.8131 102.413 48.9242 102.402 49.0313 102.424L54.1327 103.444C54.2038 103.459 54.2715 103.487 54.3318 103.527C54.3921 103.568 54.4438 103.619 54.484 103.68C54.5242 103.74 54.5521 103.808 54.5661 103.879C54.5801 103.95 54.5799 104.023 54.5655 104.094C54.5364 104.237 54.4517 104.363 54.3299 104.444C54.2081 104.525 54.0591 104.554 53.9156 104.525L48.8142 103.505C48.7937 103.501 48.7735 103.496 48.7537 103.489ZM48.9397 102.883C48.9176 102.879 48.8947 102.883 48.8758 102.895C48.8669 102.901 48.8592 102.909 48.8533 102.918C48.8473 102.926 48.8432 102.936 48.8413 102.947C48.839 102.958 48.8389 102.969 48.8409 102.98C48.843 102.991 48.8472 103.001 48.8534 103.011C48.8592 103.02 48.8668 103.027 48.8757 103.033C48.8847 103.039 48.8947 103.043 48.9053 103.045L54.0067 104.066C54.0174 104.068 54.0284 104.069 54.0392 104.067C54.05 104.065 54.0602 104.061 54.0694 104.055C54.0786 104.049 54.0865 104.041 54.0926 104.032C54.0988 104.023 54.103 104.013 54.1052 104.002C54.1098 103.98 54.1054 103.957 54.0931 103.938C54.0872 103.929 54.0796 103.922 54.0707 103.916C54.0618 103.91 54.0517 103.906 54.0411 103.904L48.9397 102.883Z" fill="#222433"/>
<path d="M52.4951 110.302C52.193 110.206 51.7532 109.917 51.1559 109.424C50.686 109.035 50.3 108.668 50.2841 108.653C50.2554 108.626 50.2341 108.592 50.2221 108.554C50.2101 108.517 50.2078 108.477 50.2154 108.438C50.223 108.399 50.2403 108.363 50.2657 108.333C50.291 108.303 50.3236 108.279 50.3605 108.265C50.5729 108.183 52.4552 107.466 53.128 107.601C53.4908 107.674 53.8101 107.887 54.0159 108.194C54.2217 108.502 54.2973 108.878 54.2259 109.24C54.1519 109.601 53.9383 109.917 53.6316 110.12C53.3249 110.324 52.95 110.398 52.5884 110.327C52.5569 110.32 52.5257 110.312 52.4951 110.302ZM50.8847 108.57C51.4873 109.115 52.3295 109.797 52.6799 109.867C52.7993 109.891 52.9223 109.891 53.0416 109.867C53.1609 109.843 53.2742 109.795 53.375 109.727C53.4752 109.661 53.5613 109.576 53.6284 109.477C53.6954 109.378 53.7421 109.266 53.7656 109.149C53.8131 108.908 53.763 108.658 53.6263 108.454C53.4896 108.25 53.2775 108.108 53.0366 108.06C52.6883 107.991 51.6488 108.298 50.8847 108.57Z" fill="#222433"/>
<path d="M47.6118 109.32C47.3085 109.225 47.047 109.028 46.871 108.763C46.7699 108.613 46.6998 108.444 46.6646 108.266C46.6295 108.088 46.63 107.905 46.6662 107.728C46.7388 107.366 46.9521 107.048 47.2594 106.843C47.5667 106.638 47.943 106.563 48.3059 106.635C48.6075 106.695 49.0764 106.99 49.7384 107.537C50.2083 107.926 50.5943 108.293 50.6106 108.308C50.6392 108.335 50.6605 108.369 50.6725 108.407C50.6844 108.445 50.6867 108.485 50.679 108.523C50.6714 108.562 50.6541 108.598 50.6287 108.628C50.6033 108.659 50.5707 108.682 50.5338 108.696C50.3214 108.778 48.4391 109.495 47.7663 109.36C47.7141 109.35 47.6625 109.337 47.6118 109.32ZM48.2661 107.108C48.2491 107.102 48.2319 107.098 48.2144 107.094C47.9735 107.047 47.7237 107.097 47.5198 107.233C47.3158 107.369 47.1744 107.58 47.1263 107.821C47.1024 107.938 47.102 108.058 47.1252 108.176C47.1483 108.293 47.1946 108.404 47.2612 108.504C47.3294 108.606 47.4172 108.694 47.5196 108.762C47.622 108.83 47.7368 108.877 47.8575 108.901C48.206 108.971 49.2456 108.663 50.0096 108.39C49.4351 107.871 48.6408 107.227 48.2661 107.108Z" fill="#222433"/>
<path d="M96.0098 117.331C96.0697 117.345 96.1325 117.334 96.1844 117.301C96.2363 117.268 96.273 117.216 96.2866 117.155L98.6784 106.525C98.6919 106.465 98.6811 106.402 98.6483 106.35C98.6155 106.298 98.5635 106.261 98.5036 106.248C98.4437 106.234 98.3809 106.245 98.329 106.278C98.2771 106.311 98.2404 106.363 98.2269 106.423L95.835 117.054C95.8215 117.114 95.8323 117.177 95.8651 117.229C95.8979 117.281 95.95 117.318 96.0098 117.331Z" fill="#222433"/>
<path d="M98.0767 108.142C98.4058 108.216 98.7496 108.191 99.0646 108.069C99.3795 107.947 99.6515 107.735 99.846 107.458C100.041 107.182 100.149 106.854 100.158 106.516C100.166 106.178 100.075 105.845 99.8943 105.56C99.714 105.274 99.4532 105.049 99.1449 104.912C98.8365 104.775 98.4944 104.733 98.1619 104.791C97.8294 104.848 97.5213 105.004 97.2767 105.237C97.0321 105.47 96.8619 105.77 96.7877 106.1C96.6887 106.543 96.7688 107.006 97.0104 107.389C97.2521 107.772 97.6355 108.043 98.0767 108.142ZM98.7255 105.26C98.9653 105.313 99.1837 105.437 99.353 105.616C99.5223 105.794 99.635 106.019 99.6768 106.261C99.7186 106.504 99.6877 106.754 99.5878 106.979C99.488 107.204 99.3238 107.395 99.116 107.526C98.9082 107.658 98.6661 107.725 98.4204 107.719C98.1746 107.713 97.9362 107.634 97.7354 107.493C97.5345 107.351 97.3802 107.153 97.292 106.923C97.2037 106.693 97.1855 106.442 97.2395 106.202C97.3124 105.88 97.5098 105.6 97.7883 105.423C98.0669 105.246 98.4039 105.188 98.7255 105.26Z" fill="#222433"/>
<path d="M92.8755 115.509C92.9295 115.496 92.9763 115.462 93.006 115.415C93.0357 115.368 93.0459 115.311 93.0346 115.257L88.3213 92.5952C88.3097 92.5393 88.2764 92.4903 88.2288 92.459C88.1811 92.4277 88.123 92.4167 88.0672 92.4283C88.0114 92.4399 87.9626 92.4732 87.9313 92.5209C87.9001 92.5686 87.8891 92.6268 87.9007 92.6827L92.614 115.344C92.6197 115.372 92.6308 115.398 92.6467 115.421C92.6626 115.445 92.6829 115.465 92.7065 115.48C92.73 115.496 92.7564 115.506 92.7842 115.512C92.8119 115.517 92.8403 115.517 92.8679 115.511L92.8755 115.509Z" fill="#222433"/>
<path d="M88.8204 96.0062C88.8549 95.9977 88.8868 95.9808 88.9131 95.957C88.9395 95.9331 88.9595 95.9031 88.9714 95.8696L89.8065 93.5151C89.8256 93.4614 89.8226 93.4023 89.7981 93.3508C89.7737 93.2992 89.7298 93.2595 89.6762 93.2404C89.6225 93.2213 89.5635 93.2242 89.5121 93.2487C89.4608 93.2731 89.4212 93.3171 89.4021 93.3708L88.685 95.3925L87.2189 93.8215C87.1998 93.8005 87.1766 93.7834 87.1509 93.7714C87.1251 93.7594 87.0972 93.7526 87.0689 93.7514C87.0405 93.7503 87.0121 93.7548 86.9855 93.7647C86.9589 93.7746 86.9345 93.7897 86.9137 93.8091C86.893 93.8286 86.8763 93.8519 86.8647 93.8779C86.853 93.9038 86.8466 93.9319 86.8459 93.9603C86.8451 93.9888 86.85 94.0171 86.8603 94.0437C86.8705 94.0702 86.8859 94.0945 86.9056 94.115L88.6125 95.9441C88.6376 95.9711 88.6693 95.9911 88.7044 96.0023C88.7395 96.0135 88.7769 96.0154 88.813 96.0079L88.8204 96.0062Z" fill="#222433"/>
<path d="M89.263 98.1262C89.2976 98.1177 89.3296 98.1006 89.356 98.0766C89.3824 98.0526 89.4024 98.0223 89.4142 97.9886L90.6141 94.5584C90.6236 94.5318 90.6277 94.5035 90.6262 94.4752C90.6247 94.447 90.6176 94.4193 90.6054 94.3937C90.5932 94.3682 90.5761 94.3453 90.5551 94.3264C90.5341 94.3075 90.5095 94.2929 90.4828 94.2835C90.4562 94.2741 90.4279 94.2701 90.3997 94.2717C90.3715 94.2733 90.3439 94.2804 90.3185 94.2927C90.2931 94.305 90.2703 94.3223 90.2515 94.3434C90.2328 94.3645 90.2184 94.3892 90.2091 94.4159L89.1267 97.51L86.895 95.1017C86.8761 95.08 86.8531 95.0623 86.8272 95.0496C86.8014 95.037 86.7732 95.0296 86.7445 95.0281C86.7158 95.0266 86.6871 95.0308 86.66 95.0406C86.633 95.0504 86.6082 95.0656 86.5871 95.0852C86.5661 95.1048 86.5492 95.1285 86.5374 95.1548C86.5256 95.1811 86.5193 95.2095 86.5187 95.2383C86.5181 95.2671 86.5234 95.2957 86.534 95.3225C86.5447 95.3493 86.5607 95.3736 86.5809 95.3941L89.0548 98.0639C89.08 98.091 89.1117 98.1112 89.1469 98.1225C89.1822 98.1337 89.2197 98.1357 89.2558 98.1281L89.263 98.1262Z" fill="#222433"/>
<path d="M89.7643 100.549C89.7988 100.541 89.8306 100.524 89.857 100.5C89.8833 100.476 89.9033 100.446 89.9152 100.412L91.481 95.9997C91.4989 95.9462 91.4952 95.8879 91.4706 95.8371C91.446 95.7863 91.4025 95.7473 91.3495 95.7283C91.2965 95.7094 91.2381 95.7121 91.1871 95.7358C91.1361 95.7596 91.0964 95.8025 91.0767 95.8553L89.6289 99.9354L86.6733 96.7688C86.6542 96.7478 86.631 96.7307 86.6053 96.7187C86.5795 96.7067 86.5516 96.6999 86.5233 96.6987C86.4949 96.6976 86.4665 96.7021 86.4399 96.712C86.4133 96.7219 86.3889 96.737 86.3681 96.7564C86.3474 96.7758 86.3307 96.7992 86.3191 96.8252C86.3074 96.8511 86.301 96.8791 86.3003 96.9076C86.2995 96.9361 86.3044 96.9644 86.3147 96.9909C86.3249 97.0175 86.3403 97.0418 86.36 97.0623L89.5563 100.487C89.5814 100.514 89.6131 100.534 89.6482 100.545C89.6833 100.556 89.7206 100.558 89.7567 100.551L89.7643 100.549Z" fill="#222433"/>
<path d="M90.2514 102.883C90.2858 102.874 90.3176 102.857 90.3439 102.833C90.3701 102.809 90.3901 102.779 90.402 102.746L92.2528 97.5355C92.2628 97.5088 92.2674 97.4803 92.2663 97.4518C92.2652 97.4233 92.2584 97.3953 92.2464 97.3694C92.2344 97.3435 92.2174 97.3203 92.1963 97.3011C92.1753 97.2819 92.1506 97.267 92.1238 97.2574C92.0969 97.2479 92.0685 97.2437 92.04 97.2453C92.0116 97.2468 91.9838 97.254 91.9582 97.2665C91.9325 97.2789 91.9097 97.2963 91.8908 97.3177C91.872 97.3391 91.8577 97.3641 91.8486 97.3911L90.1157 102.269L86.5774 98.4845C86.5385 98.4429 86.4847 98.4184 86.4278 98.4165C86.3709 98.4147 86.3156 98.4355 86.2741 98.4745C86.2325 98.5134 86.2082 98.5673 86.2064 98.6243C86.2045 98.6814 86.2254 98.7368 86.2643 98.7784L90.0435 102.821C90.0686 102.848 90.1003 102.868 90.1354 102.879C90.1705 102.89 90.2078 102.892 90.2438 102.884C90.2465 102.884 90.2489 102.883 90.2514 102.883Z" fill="#222433"/>
<path d="M89.2482 115.212C89.1949 115.212 89.1433 115.194 89.1017 115.162C89.0602 115.129 89.0312 115.083 89.0195 115.031L88.116 111.068C88.1092 111.038 88.1084 111.007 88.1137 110.977C88.1189 110.947 88.1301 110.918 88.1466 110.893C88.163 110.867 88.1845 110.845 88.2097 110.827C88.2348 110.809 88.2633 110.797 88.2933 110.79C88.354 110.777 88.4177 110.788 88.4703 110.821C88.5229 110.853 88.5601 110.906 88.5738 110.966L89.477 114.93C89.4848 114.964 89.4847 114.999 89.4768 115.033C89.4689 115.067 89.4533 115.098 89.4314 115.125C89.4094 115.153 89.3815 115.174 89.3498 115.19C89.3181 115.205 89.2834 115.212 89.2482 115.212Z" fill="#222433"/>
<path d="M88.075 111.046C88.7532 111.046 89.3029 110.503 89.3029 109.833C89.3029 109.163 88.7532 108.619 88.075 108.619C87.3969 108.619 86.8472 109.163 86.8472 109.833C86.8472 110.503 87.3969 111.046 88.075 111.046Z" fill="white"/>
<path d="M88.0751 111.278C87.7858 111.278 87.503 111.193 87.2625 111.035C87.022 110.876 86.8346 110.65 86.7239 110.386C86.6132 110.122 86.5842 109.831 86.6407 109.551C86.6971 109.27 86.8364 109.013 87.0409 108.811C87.2454 108.609 87.506 108.471 87.7897 108.415C88.0734 108.359 88.3675 108.388 88.6347 108.497C88.902 108.607 89.1304 108.792 89.2911 109.03C89.4518 109.268 89.5376 109.547 89.5376 109.833C89.5371 110.216 89.3829 110.583 89.1087 110.854C88.8345 111.125 88.4628 111.278 88.0751 111.278ZM88.0751 108.851C87.8786 108.851 87.6866 108.909 87.5232 109.017C87.3599 109.125 87.2326 109.278 87.1574 109.457C87.0822 109.637 87.0626 109.834 87.1009 110.024C87.1392 110.215 87.2338 110.39 87.3727 110.527C87.5116 110.664 87.6886 110.758 87.8813 110.796C88.074 110.833 88.2737 110.814 88.4552 110.74C88.6366 110.665 88.7918 110.54 88.9009 110.378C89.0101 110.217 89.0683 110.027 89.0683 109.833C89.068 109.573 88.9633 109.323 88.777 109.139C88.5908 108.955 88.3384 108.852 88.0751 108.851Z" fill="#222433"/>
<path d="M141.504 83.2788C142.817 83.4666 144.032 82.5645 144.218 81.264C144.403 79.9635 143.489 78.757 142.176 78.5692C140.863 78.3815 139.648 79.2835 139.462 80.5841C139.276 81.8846 140.191 83.0911 141.504 83.2788Z" fill="white"/>
<path d="M141.47 83.5207C140.952 83.4465 140.467 83.2217 140.076 82.8747C139.686 82.5277 139.408 82.0742 139.277 81.5714C139.146 81.0686 139.168 80.5392 139.341 80.0501C139.514 79.561 139.83 79.1342 140.248 78.8237C140.666 78.5131 141.169 78.3327 141.691 78.3054C142.214 78.278 142.734 78.4049 143.185 78.67C143.636 78.935 143.998 79.3264 144.225 79.7946C144.452 80.2627 144.534 80.7866 144.461 81.3001C144.362 81.9882 143.992 82.6085 143.431 83.0248C142.87 83.4411 142.165 83.6195 141.47 83.5207ZM142.141 78.8109C141.719 78.7505 141.289 78.8154 140.905 78.9974C140.52 79.1794 140.2 79.4703 139.983 79.8335C139.767 80.1966 139.664 80.6155 139.688 81.0374C139.712 81.4592 139.861 81.8649 140.118 82.2033C140.374 82.5416 140.726 82.7974 141.128 82.9383C141.531 83.0791 141.966 83.0987 142.379 82.9946C142.791 82.8904 143.163 82.6672 143.447 82.3532C143.731 82.0392 143.915 81.6484 143.974 81.2304C144.053 80.6698 143.905 80.1003 143.561 79.6468C143.218 79.1932 142.707 78.8926 142.141 78.8109Z" fill="#222433"/>
<path d="M143.302 88.662C144.615 88.8498 145.83 87.9477 146.016 86.6472C146.201 85.3466 145.287 84.1402 143.974 83.9524C142.66 83.7646 141.445 84.6667 141.26 85.9672C141.074 87.2678 141.989 88.4743 143.302 88.662Z" fill="white"/>
<path d="M143.268 88.9039C142.75 88.8297 142.265 88.6049 141.874 88.2579C141.484 87.9109 141.206 87.4573 141.075 86.9546C140.944 86.4518 140.966 85.9224 141.139 85.4333C141.312 84.9442 141.628 84.5174 142.046 84.2068C142.464 83.8963 142.966 83.7159 143.489 83.6886C144.012 83.6612 144.532 83.7881 144.983 84.0532C145.434 84.3182 145.796 84.7096 146.023 85.1777C146.25 85.6459 146.332 86.1698 146.259 86.6833C146.16 87.3714 145.79 87.9917 145.229 88.408C144.668 88.8243 143.963 89.0027 143.268 88.9039ZM143.939 84.1941C143.517 84.1337 143.087 84.1986 142.703 84.3806C142.318 84.5626 141.998 84.8535 141.781 85.2166C141.565 85.5797 141.462 85.9987 141.486 86.4205C141.51 86.8424 141.659 87.2481 141.916 87.5865C142.172 87.9248 142.524 88.1806 142.926 88.3214C143.329 88.4623 143.764 88.4819 144.177 88.3777C144.589 88.2736 144.961 88.0504 145.245 87.7364C145.529 87.4224 145.713 87.0316 145.772 86.6135C145.851 86.053 145.703 85.4835 145.359 85.03C145.016 84.5764 144.505 84.2758 143.939 84.1941Z" fill="#222433"/>
<path d="M138.537 88.1127C139.85 88.3005 141.065 87.3984 141.25 86.0978C141.436 84.7973 140.522 83.5908 139.209 83.4031C137.895 83.2153 136.68 84.1174 136.495 85.4179C136.309 86.7184 137.223 87.9249 138.537 88.1127Z" fill="white"/>
<path d="M138.503 88.3546C137.984 88.2803 137.499 88.0555 137.109 87.7085C136.718 87.3616 136.44 86.908 136.309 86.4052C136.179 85.9025 136.201 85.3731 136.374 84.884C136.547 84.3949 136.862 83.9681 137.281 83.6575C137.699 83.347 138.201 83.1666 138.724 83.1392C139.247 83.1119 139.766 83.2388 140.217 83.5038C140.668 83.7689 141.03 84.1603 141.258 84.6284C141.485 85.0966 141.567 85.6205 141.494 86.1339C141.395 86.8221 141.025 87.4423 140.464 87.8586C139.903 88.2749 139.198 88.4533 138.503 88.3546ZM139.174 83.6448C138.752 83.5844 138.321 83.6492 137.937 83.8312C137.553 84.0133 137.233 84.3042 137.016 84.6673C136.799 85.0304 136.697 85.4494 136.721 85.8712C136.745 86.293 136.894 86.6988 137.151 87.0371C137.407 87.3755 137.759 87.6313 138.161 87.7721C138.563 87.913 138.998 87.9325 139.411 87.8284C139.824 87.7243 140.196 87.5011 140.48 87.187C140.764 86.873 140.947 86.4823 141.007 86.0642C141.086 85.5037 140.938 84.9342 140.594 84.4806C140.25 84.0271 139.74 83.7265 139.174 83.6448Z" fill="#222433"/>
<path d="M142.701 93.9158C144.014 94.1036 145.229 93.2015 145.414 91.901C145.6 90.6004 144.686 89.3939 143.372 89.2062C142.059 89.0184 140.844 89.9205 140.659 91.221C140.473 92.5216 141.387 93.7281 142.701 93.9158Z" fill="white"/>
<path d="M142.667 94.1577C142.148 94.0835 141.663 93.8586 141.273 93.5117C140.882 93.1647 140.604 92.7111 140.473 92.2084C140.343 91.7056 140.365 91.1762 140.538 90.6871C140.711 90.198 141.026 89.7712 141.445 89.4606C141.863 89.1501 142.365 88.9697 142.888 88.9423C143.411 88.915 143.93 89.0419 144.381 89.3069C144.832 89.572 145.194 89.9634 145.422 90.4315C145.649 90.8997 145.731 91.4236 145.658 91.937C145.559 92.6252 145.189 93.2455 144.628 93.6618C144.067 94.0781 143.362 94.2564 142.667 94.1577ZM143.338 89.4479C142.916 89.3875 142.485 89.4523 142.101 89.6344C141.717 89.8164 141.397 90.1073 141.18 90.4704C140.963 90.8335 140.861 91.2525 140.885 91.6743C140.909 92.0961 141.058 92.5019 141.315 92.8402C141.571 93.1786 141.923 93.4344 142.325 93.5752C142.727 93.7161 143.162 93.7357 143.575 93.6315C143.988 93.5274 144.36 93.3042 144.644 92.9902C144.928 92.6761 145.111 92.2854 145.171 91.8673C145.25 91.3068 145.102 90.7373 144.758 90.2837C144.414 89.8302 143.904 89.5296 143.338 89.4479Z" fill="#222433"/>
<path d="M137.928 93.3573C139.242 93.5451 140.457 92.643 140.642 91.3425C140.828 90.042 139.914 88.8355 138.6 88.6477C137.287 88.4599 136.072 89.362 135.886 90.6625C135.701 91.9631 136.615 93.1696 137.928 93.3573Z" fill="white"/>
<path d="M137.895 93.5992C137.376 93.525 136.891 93.3001 136.501 92.9532C136.11 92.6062 135.832 92.1526 135.701 91.6499C135.57 91.1471 135.593 90.6177 135.766 90.1286C135.939 89.6395 136.254 89.2127 136.672 88.9022C137.091 88.5916 137.593 88.4112 138.116 88.3839C138.638 88.3565 139.158 88.4834 139.609 88.7485C140.06 89.0135 140.422 89.4049 140.649 89.8731C140.876 90.3412 140.959 90.8651 140.886 91.3786C140.787 92.0667 140.416 92.687 139.856 93.1033C139.295 93.5196 138.59 93.6979 137.895 93.5992ZM138.565 88.8894C138.143 88.829 137.713 88.8939 137.329 89.0759C136.945 89.2579 136.624 89.5488 136.408 89.9119C136.191 90.2751 136.088 90.694 136.112 91.1158C136.136 91.5377 136.286 91.9434 136.542 92.2818C136.799 92.6201 137.15 92.8759 137.553 93.0167C137.955 93.1576 138.39 93.1772 138.803 93.073C139.216 92.9689 139.588 92.7457 139.872 92.4317C140.156 92.1177 140.339 91.7269 140.399 91.3088C140.478 90.7483 140.329 90.1788 139.986 89.7253C139.642 89.2717 139.131 88.9711 138.565 88.8894Z" fill="#222433"/>
<path d="M137.68 117.076C137.617 117.067 137.559 117.034 137.52 116.983C137.481 116.933 137.463 116.87 137.47 116.807L141.468 82.0085C141.472 81.9767 141.482 81.9459 141.497 81.918C141.513 81.89 141.534 81.8654 141.559 81.8455C141.61 81.8054 141.676 81.7871 141.741 81.7946C141.805 81.8021 141.865 81.8348 141.905 81.8855C141.946 81.9362 141.965 82.0007 141.957 82.0649L137.96 116.863C137.956 116.895 137.946 116.926 137.93 116.954C137.915 116.982 137.894 117.006 137.868 117.026C137.843 117.046 137.814 117.061 137.783 117.069C137.752 117.078 137.719 117.081 137.687 117.077L137.68 117.076Z" fill="#222433"/>
<path d="M40.4794 110.694L40.4382 110.074C40.4032 109.533 40.1798 109.02 39.806 108.623L39.5311 108.33L44.6437 107.996L44.4101 108.323C44.0912 108.767 43.9381 109.306 43.9772 109.849L44.0184 110.469C44.0338 110.699 44.0034 110.93 43.9289 111.148C43.8543 111.366 43.7372 111.568 43.5841 111.741C43.431 111.914 43.245 112.056 43.0367 112.158C42.8283 112.26 42.6017 112.321 42.3699 112.336H42.3692C41.9002 112.368 41.4376 112.213 41.0834 111.907C40.7291 111.601 40.512 111.167 40.48 110.702L40.4794 110.694Z" fill="white"/>
<path d="M42.2455 112.544C41.7446 112.544 41.2626 112.354 40.8968 112.015C40.531 111.676 40.3086 111.212 40.2744 110.716L40.2737 110.707L40.2325 110.088C40.2002 109.593 39.9962 109.125 39.6553 108.763L39.3804 108.469C39.3539 108.441 39.3359 108.406 39.3287 108.368C39.3215 108.33 39.3254 108.291 39.3397 108.255C39.3541 108.219 39.3785 108.188 39.41 108.165C39.4416 108.142 39.4789 108.129 39.5179 108.126L44.6305 107.793C44.6694 107.79 44.7082 107.798 44.7424 107.817C44.7767 107.835 44.805 107.863 44.824 107.897C44.843 107.93 44.852 107.969 44.85 108.007C44.8479 108.046 44.8348 108.083 44.8123 108.115L44.5787 108.442C44.2877 108.846 44.1479 109.339 44.1831 109.835L44.2243 110.456C44.259 110.974 44.0847 111.484 43.7399 111.875C43.3951 112.266 42.9079 112.505 42.3855 112.539H42.3833C42.3373 112.543 42.2914 112.544 42.2455 112.544ZM40.6852 110.68V110.685C40.6987 110.888 40.7526 111.088 40.8438 111.271C40.935 111.454 41.0617 111.617 41.2166 111.751C41.3716 111.886 41.5518 111.989 41.7469 112.054C41.942 112.119 42.1481 112.146 42.3536 112.132H42.3563C42.5612 112.119 42.7614 112.065 42.9454 111.975C43.1295 111.885 43.2939 111.76 43.4291 111.607C43.5644 111.453 43.6679 111.275 43.7337 111.083C43.7995 110.89 43.8264 110.686 43.8128 110.483L43.7716 109.863C43.7305 109.283 43.8906 108.706 44.2254 108.229L39.9774 108.506C40.3711 108.934 40.6061 109.483 40.644 110.061L40.6852 110.68Z" fill="#222433"/>
<path d="M42.5616 115.537C42.5093 115.537 42.459 115.518 42.4209 115.482C42.3827 115.447 42.3596 115.398 42.3561 115.347L42.0194 110.354C42.0171 110.327 42.0204 110.299 42.0288 110.274C42.0373 110.248 42.0508 110.224 42.0687 110.204C42.0865 110.183 42.1083 110.166 42.1327 110.154C42.1572 110.142 42.1838 110.135 42.2111 110.133C42.2384 110.131 42.2657 110.135 42.2916 110.144C42.3174 110.152 42.3413 110.166 42.3617 110.184C42.3821 110.202 42.3988 110.224 42.4106 110.248C42.4225 110.273 42.4293 110.299 42.4307 110.326L42.7674 115.32C42.7711 115.374 42.7529 115.427 42.7169 115.468C42.6809 115.508 42.63 115.533 42.5755 115.537C42.5706 115.537 42.566 115.537 42.5616 115.537Z" fill="#222433"/>
<path d="M42.0874 108.338C42.0364 108.338 41.9873 108.319 41.9495 108.285L40.9049 107.351C40.8844 107.333 40.8676 107.312 40.8555 107.287C40.8435 107.263 40.8365 107.237 40.8348 107.21C40.8332 107.182 40.837 107.155 40.8461 107.13C40.8551 107.104 40.8692 107.081 40.8875 107.061C40.9059 107.04 40.928 107.024 40.9528 107.013C40.9775 107.001 41.0043 106.994 41.0316 106.993C41.0589 106.992 41.0862 106.996 41.1119 107.006C41.1375 107.015 41.161 107.029 41.1811 107.048L42.2256 107.982C42.2565 108.009 42.2783 108.046 42.288 108.086C42.2977 108.126 42.2949 108.168 42.2799 108.207C42.265 108.245 42.2386 108.279 42.2042 108.302C42.1698 108.325 42.1291 108.338 42.0874 108.338Z" fill="#222433"/>
<path d="M42.0875 108.338C42.0354 108.338 41.9852 108.318 41.947 108.283C41.9089 108.248 41.8856 108.2 41.8819 108.148L41.7857 106.819C41.7833 106.792 41.7864 106.765 41.7948 106.739C41.8031 106.713 41.8166 106.69 41.8343 106.669C41.852 106.648 41.8737 106.631 41.8981 106.619C41.9225 106.607 41.9491 106.6 41.9763 106.598C42.0035 106.596 42.0309 106.599 42.0568 106.608C42.0827 106.617 42.1066 106.63 42.1271 106.648C42.1476 106.666 42.1644 106.688 42.1763 106.712C42.1883 106.736 42.1953 106.763 42.1969 106.79L42.2567 107.615L42.8228 106.946C42.8579 106.904 42.9082 106.878 42.9627 106.873C43.0172 106.869 43.0713 106.885 43.1132 106.92C43.1552 106.955 43.1814 107.005 43.1862 107.059C43.191 107.113 43.174 107.167 43.1389 107.208L42.2455 108.265C42.2262 108.288 42.202 108.306 42.1747 108.319C42.1474 108.331 42.1176 108.338 42.0875 108.338Z" fill="#222433"/>
<path d="M132.952 115.409C132.893 115.421 132.831 115.407 132.781 115.373C132.731 115.338 132.697 115.285 132.685 115.225L130.589 104.116C130.577 104.055 130.59 103.993 130.624 103.943C130.658 103.892 130.711 103.858 130.77 103.846C130.83 103.835 130.891 103.848 130.941 103.883C130.992 103.917 131.026 103.971 131.037 104.031L133.134 115.14C133.145 115.2 133.133 115.263 133.098 115.313C133.064 115.363 133.012 115.398 132.952 115.409Z" fill="#222433"/>
<path d="M133.773 103.452L127.831 104.573C127.349 104.654 126.854 104.541 126.453 104.258C126.052 103.975 125.775 103.545 125.684 103.06C125.592 102.575 125.693 102.073 125.963 101.664C126.234 101.254 126.653 100.968 127.131 100.868L133.074 99.7464C133.559 99.6446 134.064 99.7415 134.479 100.016C134.894 100.29 135.185 100.719 135.288 101.208C135.39 101.698 135.296 102.208 135.026 102.626C134.756 103.044 134.333 103.336 133.848 103.438L133.773 103.452ZM127.411 102.35C127.314 102.368 127.228 102.425 127.172 102.507C127.117 102.59 127.096 102.691 127.114 102.79C127.133 102.888 127.189 102.975 127.271 103.031C127.353 103.088 127.454 103.109 127.551 103.091L133.494 101.97C133.591 101.952 133.677 101.895 133.732 101.812C133.788 101.73 133.809 101.628 133.79 101.53C133.772 101.432 133.715 101.345 133.634 101.288C133.552 101.232 133.451 101.21 133.354 101.229L127.411 102.35Z" fill="white"/>
<path d="M133.817 103.678L127.874 104.8C127.329 104.904 126.764 104.784 126.304 104.467C125.844 104.151 125.527 103.663 125.422 103.112C125.317 102.56 125.433 101.99 125.745 101.527C126.057 101.064 126.539 100.745 127.085 100.641L133.032 99.5189C133.575 99.4066 134.141 99.5163 134.606 99.8239C135.071 100.131 135.397 100.612 135.512 101.16C135.627 101.71 135.521 102.282 135.218 102.751C134.915 103.22 134.44 103.548 133.897 103.663L133.817 103.678ZM133.159 99.9645C133.147 99.9667 133.135 99.969 133.123 99.9713L127.175 101.094C126.757 101.184 126.391 101.435 126.155 101.795C125.919 102.155 125.833 102.594 125.913 103.018C125.994 103.443 126.236 103.819 126.587 104.067C126.939 104.315 127.372 104.415 127.794 104.345L133.806 103.21C134.224 103.117 134.589 102.862 134.823 102.5C135.056 102.138 135.14 101.698 135.055 101.273C134.97 100.849 134.724 100.474 134.37 100.229C134.016 99.9847 133.581 99.8896 133.159 99.9645ZM133.537 102.196L127.595 103.318C127.438 103.347 127.276 103.313 127.144 103.222C127.012 103.13 126.921 102.99 126.891 102.832C126.861 102.673 126.895 102.51 126.984 102.377C127.074 102.244 127.213 102.152 127.369 102.123L133.312 101.001C133.469 100.972 133.631 101.006 133.763 101.097C133.895 101.188 133.986 101.329 134.016 101.487C134.046 101.646 134.012 101.809 133.923 101.942C133.833 102.075 133.694 102.167 133.537 102.196ZM127.455 102.577C127.417 102.584 127.384 102.606 127.362 102.638C127.341 102.67 127.333 102.709 127.34 102.747C127.347 102.785 127.369 102.819 127.401 102.841C127.432 102.863 127.471 102.871 127.509 102.864L133.452 101.742C133.49 101.735 133.523 101.713 133.544 101.681C133.566 101.649 133.574 101.61 133.567 101.572C133.56 101.534 133.538 101.5 133.506 101.478C133.474 101.456 133.435 101.448 133.398 101.455L127.455 102.577Z" fill="#222433"/>
<path d="M134.378 108.711C133.66 108.846 131.649 108.047 131.421 107.955C131.386 107.941 131.354 107.917 131.329 107.887C131.305 107.857 131.288 107.822 131.281 107.783C131.274 107.745 131.276 107.706 131.288 107.669C131.3 107.632 131.321 107.599 131.349 107.572C131.527 107.403 133.107 105.919 133.825 105.784C134.206 105.718 134.598 105.806 134.916 106.029C135.234 106.252 135.454 106.592 135.527 106.976C135.6 107.36 135.521 107.756 135.307 108.081C135.093 108.405 134.761 108.631 134.383 108.71L134.378 108.711ZM131.932 107.66C132.756 107.969 133.902 108.328 134.29 108.258C134.549 108.202 134.776 108.045 134.923 107.822C135.069 107.599 135.123 107.326 135.072 107.063C135.022 106.799 134.872 106.566 134.654 106.412C134.436 106.258 134.168 106.195 133.906 106.238C133.525 106.31 132.587 107.067 131.932 107.66L131.932 107.66Z" fill="#222433"/>
<path d="M129.118 109.711C129.115 109.711 129.113 109.712 129.11 109.712C128.724 109.775 128.327 109.68 128.008 109.448C127.69 109.216 127.475 108.866 127.411 108.475C127.347 108.084 127.439 107.685 127.668 107.364C127.896 107.043 128.242 106.827 128.629 106.764C129.342 106.629 131.355 107.436 131.582 107.528C131.618 107.543 131.649 107.566 131.674 107.596C131.698 107.627 131.715 107.662 131.722 107.701C131.729 107.739 131.727 107.778 131.715 107.815C131.703 107.852 131.682 107.885 131.654 107.912C131.476 108.08 129.895 109.557 129.176 109.692L129.174 109.693C129.156 109.701 129.137 109.707 129.118 109.711ZM128.687 107.223C128.422 107.268 128.186 107.417 128.03 107.637C127.874 107.857 127.81 108.131 127.853 108.399C127.895 108.667 128.041 108.908 128.258 109.069C128.475 109.231 128.746 109.299 129.011 109.26C129.037 109.25 129.064 109.243 129.091 109.238C129.477 109.166 130.415 108.412 131.071 107.823C130.245 107.51 129.095 107.146 128.71 107.219C128.702 107.22 128.694 107.221 128.687 107.223L128.687 107.223Z" fill="#222433"/>
<path d="M164.511 108.713C165.671 108.713 166.612 107.782 166.612 106.635C166.612 105.488 165.671 104.557 164.511 104.557C163.35 104.557 162.41 105.488 162.41 106.635C162.41 107.782 163.35 108.713 164.511 108.713Z" fill="white"/>
<path d="M164.511 108.945C163.223 108.945 162.175 107.909 162.175 106.635C162.175 105.361 163.223 104.325 164.511 104.325C165.799 104.325 166.847 105.361 166.847 106.635C166.847 107.909 165.799 108.945 164.511 108.945ZM164.511 104.79C163.482 104.79 162.644 105.618 162.644 106.635C162.644 107.652 163.482 108.48 164.511 108.48C165.54 108.48 166.377 107.652 166.377 106.635C166.377 105.618 165.54 104.79 164.511 104.79Z" fill="#222433"/>
<path d="M166.815 123.987C166.699 123.987 166.599 123.902 166.583 123.786L164.278 106.666C164.261 106.538 164.351 106.421 164.48 106.404C164.608 106.387 164.726 106.477 164.743 106.604L167.048 123.724C167.065 123.851 166.975 123.968 166.846 123.985C166.836 123.987 166.826 123.987 166.815 123.987Z" fill="#222433"/>
<path d="M82.7866 99.9941C82.263 99.9904 81.8346 100.411 81.8296 100.934C81.8296 100.935 81.8296 100.935 81.8296 100.935C81.8342 100.412 81.4126 99.9845 80.8881 99.9813C80.3636 99.9781 79.9348 100.4 79.9302 100.924L79.8746 105.723L78.0074 101.306C77.7973 100.827 77.2379 100.61 76.7579 100.821C76.2889 101.027 76.0673 101.567 76.2574 102.042C76.0613 101.557 75.5085 101.324 75.0226 101.521C74.5368 101.718 74.3019 102.271 74.498 102.755C74.5009 102.763 74.5039 102.77 74.5071 102.777L74.7506 103.359L76.3954 107.283C76.9768 108.67 78.3224 109.584 79.8297 109.615L79.8289 109.627C80.3648 109.627 80.896 109.521 81.3917 109.317L81.3857 109.307C82.7675 108.703 83.6663 107.344 83.6797 105.839L83.7179 101.582L83.7237 100.951C83.7306 100.428 83.3119 99.9998 82.7885 99.9941C82.7878 99.9941 82.7871 99.9941 82.7866 99.9941Z" fill="white"/>
<path d="M81.9218 109.28C81.7996 109.352 81.673 109.419 81.5421 109.479C81.523 109.497 81.5006 109.511 81.4758 109.521C80.9505 109.738 80.3962 109.848 79.8281 109.848C79.8015 109.848 79.7754 109.843 79.751 109.834C78.1877 109.774 76.7957 108.813 76.1908 107.369L74.2924 102.839C74.0508 102.242 74.3411 101.559 74.9395 101.316C75.301 101.169 75.6933 101.216 76.0007 101.408C76.085 101.068 76.3218 100.771 76.6689 100.618C77.2601 100.358 77.9516 100.627 78.2104 101.216L79.6651 104.659L79.7085 100.922C79.7141 100.278 80.244 99.7563 80.8899 99.76C81.28 99.7624 81.6246 99.9559 81.8351 100.251C81.872 100.201 81.9132 100.154 81.9584 100.109C82.1814 99.8901 82.4763 99.7707 82.7886 99.7729C82.7894 99.7729 82.7903 99.7729 82.7911 99.7729C82.7913 99.7729 82.792 99.7729 82.7923 99.773L82.7923 99.7731C83.4401 99.7839 83.9538 100.312 83.9452 100.953L83.9012 105.841C83.8885 107.262 83.1261 108.563 81.9218 109.28ZM81.2725 109.117C81.2804 109.112 81.2886 109.108 81.2971 109.104C82.597 108.536 83.4453 107.254 83.4579 105.838L83.502 100.949C83.5073 100.549 83.1858 100.22 82.7854 100.216L82.7865 99.9942L82.7844 100.215C82.5904 100.214 82.4073 100.288 82.2688 100.424C82.1306 100.56 82.0533 100.741 82.0513 100.935C82.0513 100.935 82.0513 100.936 82.0513 100.937C82.0502 101.059 81.9504 101.157 81.8281 101.157C81.7155 101.156 81.623 101.072 81.6096 100.963C81.6084 100.954 81.6079 100.944 81.608 100.934C81.6114 100.533 81.2876 100.205 80.8862 100.203C80.4847 100.2 80.1553 100.524 80.1519 100.925L80.0961 105.725C80.0949 105.83 80.0203 105.92 79.9172 105.941C79.8141 105.961 79.7111 105.906 79.6702 105.81L77.8031 101.392C77.7264 101.217 77.5839 101.081 77.4031 101.011C77.2223 100.941 77.0246 100.945 76.8468 101.023C76.4852 101.182 76.3167 101.593 76.4632 101.959C76.5086 102.072 76.4534 102.201 76.34 102.247C76.2266 102.293 76.0976 102.238 76.0519 102.125C75.9018 101.754 75.4773 101.575 75.1055 101.726C74.7338 101.877 74.5534 102.301 74.7035 102.672L74.9551 103.273L76.5999 107.197C77.1468 108.503 78.4166 109.365 79.8348 109.394C79.8569 109.395 79.8786 109.398 79.8993 109.405C80.3608 109.397 80.8118 109.307 81.2418 109.139C81.2512 109.13 81.2615 109.123 81.2725 109.117Z" fill="#222433"/>
<path d="M81.9095 104.774C81.8759 104.794 81.8366 104.806 81.7947 104.805C81.6723 104.805 81.5739 104.705 81.575 104.583L81.6084 100.858C81.6096 100.736 81.7097 100.637 81.8321 100.638C81.9545 100.639 82.0529 100.739 82.0518 100.861L82.0183 104.585C82.0176 104.666 81.9741 104.736 81.9095 104.774Z" fill="#222433"/>
<path d="M83.0725 121.609C83.0513 121.621 83.0276 121.631 83.0021 121.636C82.8819 121.66 82.7655 121.582 82.7419 121.462L80.0871 107.949C80.0636 107.829 80.1419 107.712 80.2619 107.688C80.3821 107.664 80.4985 107.742 80.5221 107.862L83.177 121.376C83.1955 121.47 83.1509 121.562 83.0725 121.609Z" fill="#222433"/>
<path d="M77.7824 105.593C77.7736 105.598 77.7643 105.602 77.7546 105.607C77.6417 105.654 77.5118 105.601 77.4646 105.489L76.0253 102.056C75.978 101.944 76.0311 101.814 76.1443 101.767C76.2572 101.719 76.3871 101.772 76.4343 101.885L77.8736 105.317C77.9167 105.42 77.8759 105.537 77.7824 105.593Z" fill="#222433"/>
<path d="M80.7401 109.736C80.7189 109.748 80.6952 109.758 80.6697 109.763C80.5495 109.787 80.4331 109.709 80.4095 109.589L79.6588 105.765C79.6353 105.645 79.7136 105.529 79.8337 105.505C79.9538 105.481 80.0704 105.559 80.0939 105.679L80.8446 109.503C80.8631 109.597 80.8185 109.689 80.7401 109.736Z" fill="#222433"/>
<path d="M124.998 115.375C124.945 115.375 124.893 115.357 124.852 115.324C124.81 115.291 124.781 115.245 124.77 115.194L123.866 111.23C123.859 111.2 123.858 111.17 123.864 111.14C123.869 111.11 123.88 111.081 123.897 111.055C123.913 111.029 123.934 111.007 123.96 110.99C123.985 110.972 124.013 110.96 124.043 110.953C124.104 110.939 124.168 110.95 124.22 110.983C124.273 111.016 124.31 111.068 124.324 111.128L125.227 115.092C125.235 115.126 125.235 115.161 125.227 115.195C125.219 115.229 125.203 115.261 125.181 115.288C125.159 115.315 125.132 115.337 125.1 115.352C125.068 115.367 125.033 115.375 124.998 115.375Z" fill="#222433"/>
<path d="M123.825 111.209C124.503 111.209 125.053 110.666 125.053 109.995C125.053 109.325 124.503 108.782 123.825 108.782C123.147 108.782 122.597 109.325 122.597 109.995C122.597 110.666 123.147 111.209 123.825 111.209Z" fill="white"/>
<path d="M123.825 111.441C123.536 111.441 123.253 111.356 123.013 111.197C122.772 111.038 122.585 110.813 122.474 110.549C122.363 110.284 122.334 109.994 122.391 109.713C122.447 109.433 122.586 109.176 122.791 108.973C122.995 108.771 123.256 108.634 123.54 108.578C123.823 108.522 124.117 108.551 124.385 108.66C124.652 108.769 124.88 108.955 125.041 109.192C125.202 109.43 125.288 109.71 125.288 109.995C125.287 110.379 125.133 110.746 124.859 111.017C124.585 111.288 124.213 111.44 123.825 111.441ZM123.825 109.014C123.629 109.014 123.437 109.071 123.273 109.179C123.11 109.287 122.983 109.44 122.907 109.62C122.832 109.799 122.813 109.997 122.851 110.187C122.889 110.377 122.984 110.552 123.123 110.69C123.262 110.827 123.439 110.92 123.631 110.958C123.824 110.996 124.024 110.977 124.205 110.902C124.387 110.828 124.542 110.702 124.651 110.541C124.76 110.379 124.818 110.19 124.818 109.995C124.818 109.735 124.713 109.486 124.527 109.302C124.341 109.118 124.088 109.014 123.825 109.014Z" fill="#222433"/>
<path d="M165.975 13.6537C166.062 13.6636 167.686 13.2565 167.943 13.1784L165.158 7.72607C165.133 7.67601 165.094 7.63397 165.046 7.60461C164.997 7.57524 164.942 7.5597 164.886 7.55969H164.882C164.824 7.56041 164.769 7.57709 164.721 7.60784C164.673 7.63859 164.634 7.68217 164.61 7.73361L163.194 10.7058C163.191 10.7118 163.188 10.7179 163.186 10.724C162.961 11.2888 162.994 11.9184 163.16 12.5351C163.198 12.5544 165.042 13.5468 165.975 13.6537Z" fill="white"/>
<path d="M165.954 13.9899C166.233 13.9899 168.025 13.5062 168.042 13.5011C168.09 13.4868 168.133 13.4623 168.17 13.4293C168.207 13.3964 168.236 13.3558 168.255 13.3104C168.275 13.2651 168.284 13.216 168.282 13.1668C168.28 13.1175 168.268 13.0692 168.246 13.0253L165.46 7.57298C165.406 7.46609 165.322 7.37659 165.219 7.3146C165.116 7.25262 164.997 7.22064 164.877 7.22229C164.756 7.22394 164.639 7.25916 164.538 7.32394C164.436 7.38873 164.355 7.4805 164.304 7.58884L162.888 10.5612C162.882 10.5725 162.877 10.5843 162.872 10.5959C162.64 11.1793 162.627 11.86 162.833 12.6225C162.845 12.6682 162.867 12.7109 162.897 12.7477C162.927 12.7845 162.964 12.8147 163.007 12.8362L163.017 12.8417C163.478 13.0852 165.05 13.8879 165.936 13.9891C165.942 13.9897 165.948 13.99 165.954 13.9899ZM167.452 12.9614C166.946 13.0919 166.16 13.283 165.979 13.3141C165.387 13.2323 164.313 12.7541 163.452 12.3067C163.322 11.7464 163.339 11.2563 163.501 10.8484L164.887 7.93915L167.452 12.9614Z" fill="#222433"/>
<path d="M162.687 15.6985L157.987 14.0111C157.865 13.9684 157.733 13.9605 157.607 13.9883C157.48 14.0162 157.364 14.0786 157.271 14.1686C157.179 14.2587 157.113 14.3727 157.082 14.4979C157.05 14.6231 157.055 14.7545 157.095 14.8773C157.129 14.9774 157.186 15.0687 157.26 15.1445C157.334 15.2204 157.424 15.2789 157.524 15.316L158.653 15.7097L157.693 15.8672C157.512 15.8955 157.35 15.9944 157.242 16.1421C157.134 16.2898 157.089 16.4741 157.117 16.6546C157.146 16.8351 157.245 16.997 157.393 17.1046C157.542 17.2122 157.727 17.2567 157.908 17.2284L160.995 16.7418" fill="white"/>
<path d="M157.798 17.5745C157.852 17.5745 157.907 17.5702 157.961 17.5618L161.048 17.0751C161.136 17.0603 161.214 17.0115 161.266 16.9393C161.319 16.8671 161.34 16.7775 161.326 16.6897C161.312 16.6019 161.264 16.5232 161.192 16.4706C161.12 16.4179 161.03 16.3956 160.942 16.4085L157.856 16.895C157.801 16.9035 157.745 16.8995 157.693 16.8832C157.64 16.8669 157.592 16.8388 157.552 16.8011C157.504 16.7571 157.471 16.7005 157.455 16.6381C157.439 16.5757 157.441 16.51 157.461 16.4488C157.48 16.3845 157.517 16.327 157.568 16.283C157.619 16.239 157.681 16.2104 157.748 16.2005L158.709 16.043C158.783 16.0307 158.851 15.9942 158.903 15.9392C158.954 15.8842 158.985 15.8138 158.991 15.7391C158.998 15.6645 158.979 15.5898 158.938 15.5268C158.897 15.4639 158.837 15.4163 158.766 15.3916L157.643 15C157.59 14.9804 157.543 14.9498 157.504 14.9103C157.465 14.8707 157.435 14.8232 157.417 14.7709C157.395 14.7089 157.393 14.6422 157.409 14.5787C157.424 14.5151 157.458 14.4575 157.506 14.4125C157.553 14.365 157.613 14.3319 157.678 14.3172C157.743 14.3025 157.811 14.3067 157.874 14.3295L162.573 16.0159C162.615 16.0315 162.659 16.0386 162.704 16.0369C162.749 16.0352 162.793 16.0246 162.834 16.0058C162.874 15.9871 162.911 15.9605 162.941 15.9276C162.971 15.8947 162.995 15.8561 163.01 15.8141C163.025 15.7722 163.032 15.7276 163.029 15.683C163.027 15.6385 163.016 15.5948 162.997 15.5545C162.978 15.5142 162.951 15.4781 162.917 15.4484C162.884 15.4186 162.845 15.3957 162.803 15.381L158.102 13.6936C157.92 13.6292 157.724 13.617 157.535 13.6582C157.346 13.6994 157.173 13.7925 157.034 13.9268C156.896 14.0612 156.798 14.2315 156.752 14.4184C156.706 14.6052 156.713 14.8013 156.773 14.9842C156.821 15.1254 156.899 15.2547 157.001 15.3637C157.103 15.4727 157.228 15.5589 157.366 15.6164C157.234 15.6772 157.117 15.7651 157.021 15.8742C156.926 15.9833 156.855 16.1113 156.812 16.2497C156.755 16.4318 156.75 16.6263 156.799 16.811C156.848 16.9956 156.947 17.1629 157.087 17.2936C157.28 17.4737 157.534 17.5741 157.798 17.5745Z" fill="#222433"/>
<path d="M171.688 14.3935L174.354 14.6522L171.744 15.6984L171.688 14.3935Z" fill="#222433"/>
<path d="M170.502 16.8459C170.019 17.0671 169.614 17.4276 169.339 17.8808C169.034 18.3709 168.63 18.7924 168.153 19.1182C166.447 20.3106 164.109 20.0069 162.674 18.4995L160.992 16.7221L166.04 13.4823C166.639 13.2539 167.19 12.9184 167.667 12.4924C168.127 12.0904 168.714 11.8605 169.326 11.8423C169.938 11.8241 170.537 12.0186 171.021 12.3926C171.505 12.7665 171.842 13.2965 171.977 13.8915C172.111 14.4866 172.033 15.1095 171.756 15.6534C171.482 16.1785 171.041 16.5981 170.502 16.8459Z" fill="white"/>
<path d="M165.811 20.1827C166.718 20.1865 167.604 19.9112 168.347 19.3945C168.862 19.0432 169.298 18.5883 169.626 18.0591C169.865 17.6634 170.218 17.3482 170.639 17.1546L170.643 17.1529C171.25 16.8743 171.746 16.4024 172.054 15.8116C172.37 15.1978 172.46 14.4937 172.31 13.8207C172.16 13.1476 171.779 12.5477 171.233 12.1245C170.686 11.7013 170.008 11.4812 169.317 11.5022C168.625 11.5231 167.962 11.7839 167.442 12.2394C166.996 12.6379 166.48 12.9519 165.921 13.1661C165.898 13.1746 165.877 13.1853 165.857 13.1982L160.808 16.438C160.766 16.4648 160.731 16.5005 160.704 16.5425C160.678 16.5845 160.661 16.6317 160.655 16.6809C160.649 16.7301 160.654 16.78 160.67 16.827C160.685 16.8741 160.711 16.9172 160.745 16.9532L162.428 18.7306C162.864 19.1885 163.388 19.5534 163.97 19.8031C164.551 20.0527 165.178 20.1819 165.811 20.1827ZM170.363 16.538C169.819 16.7862 169.362 17.1918 169.051 17.7019C168.772 18.1528 168.4 18.5403 167.961 18.8395C166.421 19.9168 164.255 19.6697 162.92 18.2674L161.518 16.786L166.194 13.7851C166.818 13.5422 167.392 13.1901 167.891 12.7456C168.292 12.3959 168.803 12.196 169.336 12.1801C169.869 12.1643 170.391 12.3336 170.812 12.659C171.233 12.9843 171.528 13.4455 171.645 13.9634C171.762 14.4813 171.695 15.0238 171.455 15.4978C171.217 15.9555 170.833 16.3214 170.363 16.538H170.363Z" fill="#222433"/>
<path d="M170.299 15.4059C169.924 15.4059 169.621 15.1038 169.621 14.731C169.621 14.3582 169.924 14.056 170.299 14.056C170.673 14.056 170.976 14.3582 170.976 14.731C170.976 15.1038 170.673 15.4059 170.299 15.4059Z" fill="#222433"/>
<path d="M168.327 16.1673C168.426 16.0935 168.515 16.0078 168.593 15.9122C168.599 15.9039 168.605 15.8953 168.611 15.8865C168.846 15.5065 168.926 15.051 168.834 14.614C168.773 14.3421 168.816 14.0572 168.955 13.8153C168.973 13.7901 168.989 13.765 169.005 13.7398C169.014 13.7253 169.023 13.7106 169.034 13.6961C169.039 13.689 169.044 13.6816 169.049 13.6736C169.196 13.439 169.431 13.2722 169.701 13.2098C169.972 13.1474 170.256 13.1945 170.492 13.3407L171.79 14.1507C171.847 14.186 171.913 14.2038 171.98 14.2019C172.047 14.2 172.111 14.1784 172.166 14.1399C172.221 14.1014 172.262 14.0477 172.286 13.9856C172.31 13.9235 172.315 13.8556 172.301 13.7907C172.146 13.0996 171.742 12.489 171.166 12.0744C170.62 11.672 169.951 11.469 169.273 11.4995C168.594 11.5301 167.947 11.7924 167.439 12.2422C167.044 12.6016 166.589 12.891 166.095 13.0981L159.945 8.35582C159.895 8.31717 159.835 8.29329 159.772 8.28689C159.709 8.2805 159.645 8.29184 159.588 8.31963C159.532 8.34742 159.484 8.39055 159.45 8.44411C159.417 8.49768 159.399 8.55954 159.399 8.62266V12.2674C159.399 12.2748 159.399 12.2822 159.4 12.2899C159.553 14.6185 163.15 16.2578 163.53 16.4246C164.195 16.8529 164.97 17.0813 165.762 17.0824C166.698 17.083 167.604 16.7595 168.327 16.1673Z" fill="#69D38C"/>
<path d="M166.235 13.7659C166.281 13.7367 166.319 13.6969 166.346 13.65C166.373 13.6031 166.388 13.5504 166.391 13.4964C166.393 13.4424 166.382 13.3886 166.359 13.3396C166.336 13.2905 166.302 13.2477 166.259 13.2147L159.945 8.35498C159.895 8.31638 159.835 8.29255 159.772 8.2862C159.709 8.27985 159.645 8.29122 159.588 8.31903C159.531 8.34684 159.484 8.38998 159.45 8.44354C159.417 8.4971 159.399 8.55894 159.399 8.62204V10.0057C159.401 10.6223 159.565 11.2276 159.874 11.762C160.182 12.2964 160.626 12.7415 161.16 13.0534L162.537 13.8515C163.075 14.1673 163.688 14.334 164.312 14.3343C164.995 14.3331 165.662 14.1357 166.235 13.7659Z" fill="#82B1FF"/>
<path d="M69.7918 49.2242C68.5067 50.1818 66.9805 51.3091 65.8759 52.083C63.0914 54.05 54.159 57.3394 53.4929 55.11C53.0888 53.755 55.5895 53.3615 59.8482 51.5038C55.7969 52.4873 52.7503 52.9135 52.4991 51.4819C52.248 50.0503 56.3538 49.0777 59.4769 48.3455C57.282 47.8975 54.3009 47.3948 54.2791 46.2692C54.2572 44.6409 56.8343 44.9688 58.5487 45.0016C62.3598 45.089 62.8621 43.2968 64.4236 41.4499C64.8968 40.9073 65.4783 40.4698 66.1306 40.1656" fill="white"/>
<path d="M55.1452 56.1795C54.7726 56.1895 54.4009 56.1387 54.0447 56.0289C53.4739 55.8316 53.2585 55.4716 53.1791 55.2043C52.9067 54.291 53.7081 53.7872 53.9715 53.6215C54.5101 53.2827 55.323 52.9579 56.3458 52.5625C54.4721 52.8479 53.3553 52.775 52.7275 52.3638C52.5824 52.2733 52.4582 52.153 52.3632 52.0108C52.2682 51.8685 52.2046 51.7077 52.1765 51.5389C51.9254 50.1092 54.4285 49.2448 57.9593 48.3726C55.8737 47.9355 53.9736 47.4103 53.9518 46.2759C53.9422 46.0852 53.973 45.8945 54.0421 45.7165C54.1112 45.5384 54.2171 45.377 54.3528 45.2427C55.0671 44.5454 56.5683 44.6024 57.892 44.6526C58.1213 44.6613 58.345 44.6698 58.5552 44.6739C61.5237 44.7421 62.3528 43.6301 63.4051 42.2225C63.6435 41.9036 63.89 41.5739 64.1737 41.2383C64.677 40.6611 65.2951 40.1952 65.9884 39.8704C66.0661 39.8359 66.1542 39.833 66.234 39.8624C66.3139 39.8917 66.3792 39.9509 66.4161 40.0275C66.4531 40.1042 66.4589 40.1922 66.4322 40.273C66.4055 40.3538 66.3485 40.421 66.2732 40.4605C65.6626 40.7452 65.118 41.154 64.6741 41.661C64.4028 41.9818 64.1624 42.3036 63.9298 42.6148C62.8106 44.1119 61.8395 45.4049 58.5415 45.3289C58.3287 45.3249 58.1012 45.3162 57.8671 45.307C56.7334 45.2639 55.3233 45.2103 54.8104 45.7114C54.7387 45.7835 54.6835 45.8703 54.6483 45.9657C54.6132 46.0611 54.5991 46.163 54.6068 46.2645C54.6218 47.0369 57.3719 47.5882 59.015 47.9176C59.1945 47.9536 59.371 47.9889 59.5426 48.024C59.6158 48.0389 59.6817 48.0785 59.7293 48.136C59.777 48.1936 59.8035 48.2657 59.8046 48.3404C59.8057 48.4152 59.7812 48.488 59.7353 48.547C59.6893 48.6059 59.6246 48.6473 59.5519 48.6644C58.068 49.0123 56.2213 49.4452 54.8366 49.9586C52.9802 50.6471 52.7778 51.1726 52.822 51.4249C52.835 51.5052 52.8654 51.5817 52.911 51.649C52.9567 51.7163 53.0166 51.7728 53.0864 51.8145C54.0787 52.464 57.3766 51.7662 59.7712 51.1848C59.8509 51.1654 59.935 51.1766 60.0068 51.2163C60.0786 51.2559 60.133 51.321 60.1592 51.3988C60.1853 51.4767 60.1813 51.5615 60.148 51.6365C60.1147 51.7115 60.0545 51.7713 59.9793 51.804C58.805 52.3162 57.7844 52.71 56.8831 53.0573C54.6067 53.935 53.6087 54.3511 53.807 55.016C53.8263 55.0816 53.8856 55.2795 54.2588 55.4087C56.3274 56.1241 63.1792 53.5865 65.6872 51.8148C66.58 51.1893 67.8584 50.2561 69.5965 48.961C69.6662 48.909 69.7536 48.8869 69.8396 48.8995C69.9256 48.9121 70.003 48.9583 70.0549 49.0281C70.1068 49.0978 70.1289 49.1853 70.1163 49.2713C70.1038 49.3574 70.0576 49.4349 69.9879 49.4868C68.2449 50.7857 66.9613 51.7227 66.0643 52.3512C63.9727 53.8287 58.172 56.1795 55.1452 56.1795Z" fill="#222433"/>
<path d="M65.6531 44.6394C64.76 45.5532 63.995 46.7158 62.993 47.7331C60.8527 49.9187 59.6734 51.5033 59.8809 52.2027C60.3395 53.7982 64.1485 50.0633 67.8066 48.0853" fill="white"/>
<path d="M60.3785 52.9169C60.2743 52.918 60.1707 52.9013 60.0722 52.8673C59.9468 52.8215 59.8348 52.745 59.7464 52.6448C59.658 52.5446 59.596 52.4239 59.5661 52.2937C59.4044 51.7487 59.6207 50.7091 62.7591 47.504C63.2521 46.9871 63.7189 46.4457 64.1574 45.8818C64.5795 45.3573 64.9782 44.8615 65.4189 44.4106C65.4797 44.3484 65.5627 44.313 65.6497 44.312C65.6927 44.3116 65.7354 44.3196 65.7754 44.3357C65.8153 44.3517 65.8517 44.3755 65.8825 44.4057C65.9132 44.4358 65.9377 44.4717 65.9546 44.5113C65.9715 44.5509 65.9805 44.5935 65.9809 44.6366C65.9814 44.6797 65.9733 44.7224 65.9573 44.7624C65.9412 44.8023 65.9175 44.8388 65.8874 44.8695C65.4688 45.2977 65.0793 45.7814 64.6678 46.2935C64.2159 46.8744 63.7348 47.432 63.2264 47.9641C60.2748 50.9784 60.1232 51.8678 60.1952 52.1102C60.2289 52.2277 60.2706 52.2424 60.2906 52.2495C60.7652 52.4173 62.3811 51.2828 63.8068 50.2825C64.9894 49.4527 66.3293 48.5121 67.6506 47.7978C67.727 47.7565 67.8168 47.7473 67.9 47.7721C67.9833 47.797 68.0532 47.854 68.0945 47.9305C68.1358 48.007 68.1451 48.0967 68.1202 48.1801C68.0954 48.2634 68.0385 48.3334 67.962 48.3747C66.6744 49.071 65.3505 49.9997 64.1827 50.8192C62.3283 52.1199 61.15 52.9169 60.3785 52.9169Z" fill="#222433"/>
<path d="M82.145 30.0833L68.8844 37.2951C67.3576 38.1255 66.2229 39.5288 65.73 41.1964C65.2372 42.864 65.4264 44.6592 66.2561 46.1872C67.0859 47.7151 68.4881 48.8506 70.1545 49.3439C71.8208 49.8371 73.6147 49.6478 75.1414 48.8174L79.4265 46.4871L83.6852 34.3732L82.145 30.0833Z" fill="white"/>
<path d="M72.0187 49.9423C70.4885 49.9433 69.0017 49.4338 67.7933 48.4945C66.5849 47.5551 65.7239 46.2394 65.3464 44.7554C64.9688 43.2715 65.0964 41.7039 65.7089 40.3006C66.3213 38.8973 67.3837 37.7384 68.7281 37.0071L81.9887 29.7955C82.0302 29.773 82.0761 29.7596 82.1233 29.7565C82.1704 29.7533 82.2177 29.7604 82.2618 29.7772C82.306 29.7941 82.3459 29.8203 82.379 29.854C82.4121 29.8878 82.4375 29.9283 82.4535 29.9728L83.9932 34.2623C84.0187 34.3332 84.0189 34.4108 83.9939 34.4819L79.7352 46.596C79.7082 46.6726 79.6537 46.7365 79.5823 46.7752L75.2973 49.1055C74.2909 49.6528 73.1641 49.9404 72.0187 49.9423ZM81.966 30.5542L69.041 37.5832C67.5904 38.372 66.5124 39.7052 66.0441 41.2894C65.5758 42.8736 65.7555 44.5791 66.5437 46.0308C67.3319 47.4824 68.664 48.5612 70.2471 49.0299C71.8301 49.4986 73.5343 49.3187 74.9848 48.5299L79.1591 46.2598L83.3375 34.3748L81.966 30.5542Z" fill="#222433"/>
<path d="M104.105 16.5604C105.197 15.7954 107.517 15.8785 108.364 15.7954L114.479 18.8553C114.698 19.1831 115.571 22.243 115.353 23.5544L104.105 28.2534V16.5604Z" fill="white"/>
<path d="M104.105 28.5813C104.018 28.5813 103.935 28.5467 103.874 28.4853C103.812 28.4238 103.778 28.3404 103.778 28.2534V16.5604C103.778 16.5077 103.79 16.4557 103.815 16.409C103.839 16.3622 103.874 16.322 103.917 16.2918C104.866 15.6272 106.556 15.5546 107.674 15.5064C107.94 15.4954 108.169 15.4845 108.332 15.4691C108.393 15.4631 108.455 15.4744 108.511 15.5019L114.626 18.5618C114.677 18.5873 114.72 18.6257 114.752 18.6732C115.039 19.1042 115.902 22.2479 115.676 23.608C115.667 23.6627 115.644 23.7142 115.61 23.7577C115.575 23.8012 115.53 23.8352 115.479 23.8566L104.232 28.5557C104.192 28.5725 104.149 28.5812 104.105 28.5813ZM104.433 16.7408V27.7612L115.051 23.3252C115.151 22.1025 114.478 19.6254 114.24 19.102L108.3 16.1296C108.134 16.1425 107.932 16.1515 107.703 16.1611C106.778 16.2013 105.265 16.2663 104.433 16.7408Z" fill="#222433"/>
<path d="M131.712 29.9425C131.106 28.0233 129.816 26.3944 128.087 25.3663C126.358 24.3382 124.311 23.9828 122.338 24.3678L115.134 25.412L105.088 35.7937L100.704 41.827L87.1226 31.1002C86.5526 31.2791 85.9973 31.5016 85.4614 31.7658C80.2954 34.3139 77.9211 40.1837 79.8796 45.193L75.4527 57.831C73.3779 59.5358 69.9273 62.388 66.3346 65.4479C64.2053 67.251 62.0322 69.1416 60.0776 70.9119C57.6206 73.1303 55.5022 75.152 54.2136 76.6054L66.4875 87.457C69.414 84.1568 80.9672 74.4526 87.5737 69.0978C88.7531 68.1382 89.6449 66.8714 90.1508 65.4369L95.5618 49.9807C95.6367 49.9352 106.543 46.4394 106.543 46.4394L106.26 46.2148L106.399 46.2847L111.643 38.6966L107.153 45.2696L120.923 53.3505L127.715 42.0071L130.936 36.6305C131.09 36.3727 131.228 36.1063 131.351 35.8327C132.205 33.9838 132.333 31.8817 131.712 29.9425Z" fill="white"/>
<path d="M66.6622 87.4026L62.7201 92.5825C62.5802 92.7658 62.4779 92.9751 62.4192 93.1982C62.3604 93.4213 62.3464 93.6539 62.3778 93.8824C62.4093 94.111 62.4857 94.3311 62.6025 94.53C62.7194 94.7289 62.8744 94.9026 63.0587 95.0413C63.2162 95.1621 63.3936 95.2546 63.5828 95.3145C66.553 95.9811 67.4593 97.5985 67.2519 100.647L54.6395 100.735L51.2325 97.817L48.9602 90.3251L46.253 93.5551L42.8024 90.6045L54.432 76.9772L66.6622 87.4026Z" fill="#69D38C"/>
<path d="M120.924 53.2925L118.531 57.8093C118.129 58.5716 118.046 59.4625 118.3 60.2863C118.554 61.11 119.124 61.7992 119.885 62.2024C119.999 62.2635 120.115 62.3182 120.235 62.3663C123.238 62.858 125.072 65.8961 124.81 68.945L113.617 68.8139L109.674 66.6111L104.76 59.0707L102.665 62.8908L98.6682 60.7489L106.364 46.4364L107.153 44.9688L120.924 53.2925Z" fill="#69D38C"/>
<path d="M87.5903 21.3484C86.4546 20.4851 84.5707 18.337 83.7081 19.4735L79.3947 25.0687C79.1894 25.3384 79.0392 25.6459 78.9527 25.9738C78.8663 26.3016 78.8453 26.6433 78.8909 26.9792C78.9366 27.3152 79.048 27.6389 79.2187 27.9317C79.3895 28.2246 79.6163 28.4808 79.8861 28.6859L82.038 30.3264L87.5903 21.3484Z" fill="#69D38C"/>
<path d="M91.2889 23.0796C91.551 22.4214 91.7617 21.7923 92.2275 21.2436C92.2472 21.221 92.2694 21.2005 92.2935 21.1826C92.2044 21.0904 92.1087 21.005 92.0071 20.9269L88.0978 17.9436C87.8305 17.7388 87.5254 17.5887 87.2001 17.502C86.8747 17.4154 86.5355 17.3937 86.2018 17.4384C85.8681 17.483 85.5465 17.5931 85.2554 17.7623C84.9642 17.9315 84.7093 18.1565 84.5052 18.4244L83.708 19.4735L90.4674 24.637C90.742 24.1172 91.071 23.6263 91.2889 23.0796Z" fill="#69D38C" fill-opacity="0.61"/>
<path d="M112.526 23.9219C113.022 23.678 113.589 23.4479 114.152 23.3879C113.957 22.5469 113.664 21.7316 113.28 20.9584C112.86 21.4311 112.413 21.8796 111.955 22.3164C112.029 22.7416 112.266 23.1335 112.405 23.5377C112.449 23.6647 112.488 23.793 112.526 23.9219Z" fill="#69D38C"/>
<path d="M121.032 53.5692C120.974 53.5692 120.917 53.5536 120.867 53.524L107.096 45.4433C107.057 45.4205 107.023 45.39 106.997 45.3537C106.97 45.3174 106.951 45.276 106.942 45.2321C106.932 45.1882 106.931 45.1428 106.94 45.0986C106.948 45.0545 106.966 45.0125 106.991 44.9754L111.481 38.4025C111.531 38.3316 111.606 38.283 111.691 38.2674C111.776 38.2518 111.864 38.2705 111.935 38.3193C112.006 38.368 112.055 38.443 112.072 38.5279C112.088 38.6128 112.07 38.7007 112.022 38.7725L107.73 45.0554L120.918 52.7943L127.543 41.7295L130.765 36.3528C130.911 36.107 131.043 35.8528 131.161 35.5917C131.763 34.2758 131.992 32.8191 131.821 31.3817C131.65 29.9444 131.087 28.5819 130.193 27.4439C129.299 26.306 128.109 25.4367 126.754 24.9316C125.398 24.4264 123.93 24.3049 122.51 24.5804C122.467 24.5894 122.424 24.5898 122.381 24.5817C122.338 24.5735 122.298 24.557 122.261 24.533C122.225 24.5091 122.194 24.4781 122.17 24.442C122.146 24.406 122.129 24.3654 122.121 24.3228C122.112 24.2802 122.113 24.2363 122.121 24.1938C122.13 24.1512 122.147 24.1108 122.172 24.0749C122.196 24.0391 122.227 24.0084 122.264 23.9847C122.3 23.9611 122.341 23.9449 122.384 23.9371C123.922 23.6383 125.512 23.7695 126.98 24.3162C128.449 24.863 129.738 25.8041 130.707 27.0363C131.675 28.2685 132.286 29.744 132.471 31.3008C132.657 32.8576 132.41 34.4354 131.758 35.861C131.631 36.1442 131.487 36.4198 131.328 36.6866L128.105 42.0665L121.313 53.4098C121.284 53.4584 121.243 53.4986 121.194 53.5266C121.144 53.5545 121.089 53.5692 121.032 53.5692Z" fill="#222433"/>
<path d="M74.0213 62.297C73.969 62.297 73.9175 62.2845 73.8711 62.2605C73.8246 62.2365 73.7846 62.2018 73.7543 62.1592C73.724 62.1166 73.7043 62.0674 73.6969 62.0156C73.6895 61.9639 73.6946 61.9111 73.7117 61.8617L75.143 57.7238C75.1715 57.6416 75.2313 57.5741 75.3095 57.5361C75.3877 57.4981 75.4777 57.4928 75.5598 57.5212C75.6419 57.5497 75.7093 57.6096 75.7473 57.6878C75.7853 57.766 75.7906 57.8561 75.7622 57.9383L74.3308 62.0762C74.3086 62.1407 74.2668 62.1965 74.2113 62.2361C74.1558 62.2757 74.0894 62.2969 74.0213 62.297Z" fill="#222433"/>
<path d="M66.4875 87.785C66.4076 87.7851 66.3305 87.7558 66.2706 87.7028L53.9967 76.8512C53.9644 76.8227 53.9381 76.788 53.9192 76.7493C53.9003 76.7105 53.8892 76.6684 53.8866 76.6254C53.884 76.5823 53.8899 76.5392 53.9039 76.4984C53.918 76.4577 53.94 76.4201 53.9686 76.3879C55.1527 75.0522 57.1342 73.128 59.8582 70.6685C61.6981 69.002 63.8647 67.11 66.1231 65.1977C68.8599 62.8666 71.9052 60.3225 75.174 57.6355L79.531 45.1978C78.5947 42.7163 78.6523 39.9633 79.6964 37.431C80.7832 34.8265 82.7814 32.7077 85.3169 31.4715C85.8678 31.1999 86.4388 30.9711 87.0248 30.7871C87.0658 30.7742 87.109 30.7695 87.1519 30.7732C87.1947 30.777 87.2364 30.7892 87.2746 30.8091C87.3127 30.8291 87.3466 30.8563 87.3742 30.8893C87.4019 30.9223 87.4227 30.9605 87.4356 31.0015C87.4485 31.0426 87.4532 31.0858 87.4494 31.1287C87.4457 31.1716 87.4335 31.2134 87.4136 31.2515C87.3937 31.2897 87.3664 31.3236 87.3335 31.3513C87.3005 31.3789 87.2624 31.3998 87.2213 31.4127C86.6674 31.5866 86.1277 31.8029 85.6069 32.0595C80.6665 34.4965 78.285 40.2127 80.1853 45.0732C80.2139 45.1462 80.2153 45.2271 80.1894 45.3011L75.7625 57.939C75.7426 57.9957 75.7076 58.0458 75.6613 58.0839C72.3684 60.7896 69.3022 63.3513 66.5477 65.6971C64.2939 67.6056 62.1332 69.4925 60.298 71.1546C57.7546 73.4511 55.8665 75.2736 54.6789 76.5783L66.4621 86.9967C69.7085 83.4858 80.9078 74.0784 87.3677 68.8427C88.5003 67.9217 89.3565 66.7054 89.8417 65.328L95.2526 49.872C95.2777 49.8002 95.327 49.7394 95.392 49.7C95.4349 49.6739 95.5 49.6344 106.444 46.1265C106.526 46.1006 106.616 46.1084 106.692 46.1483C106.769 46.1882 106.827 46.2569 106.854 46.3393C106.88 46.4218 106.873 46.5114 106.833 46.5885C106.794 46.6656 106.726 46.724 106.643 46.7509C103.87 47.6398 96.8927 49.8794 95.8186 50.2378L90.4599 65.5454C89.9347 67.0372 89.0077 68.3545 87.7812 69.352C81.1813 74.701 69.6324 84.4046 66.7325 87.6743C66.7019 87.7091 66.6642 87.7369 66.6219 87.756C66.5797 87.7751 66.5339 87.785 66.4875 87.785Z" fill="#222433"/>
<path d="M105.521 20.237C105.531 19.6063 106.163 18.2371 106.585 17.6597C106.181 16.9969 105.807 16.4382 105.045 15.7801C100.467 11.8257 93.3606 13.0481 89.7025 17.8564L82.7356 27.2874C81.6075 28.7681 81.1116 30.6359 81.3565 32.4817C81.6015 34.3276 82.5674 36.0011 84.0427 37.1358L92.2315 21.2157C93.0042 19.7148 94.3256 18.57 95.9206 18.0198C97.5157 17.4695 99.2613 17.5563 100.794 18.2619C102.327 18.9675 103.528 20.2376 104.149 21.8077C104.769 23.3778 104.76 25.1269 104.124 26.6907C105.048 26.4128 106.021 26.3419 106.974 26.4831C107.169 25.2194 107.144 23.9314 106.899 22.6765C106.704 21.6752 105.506 21.2831 105.521 20.237Z" fill="#69D38C"/>
<path d="M112.504 33.8898C112.383 34.8053 112.066 35.6839 111.575 36.4658C111.083 37.2477 110.43 37.9147 109.658 38.4214L90.6577 51.1307C89.4505 51.9382 88.0095 52.3215 86.561 52.2203C85.1125 52.1192 83.7386 51.5394 82.6551 50.572C81.5716 49.6045 80.84 48.3043 80.5751 46.8756C80.3101 45.4469 80.527 43.9705 81.1916 42.6785L92.2315 21.2157C93.0033 19.7133 94.3248 18.5669 95.9205 18.0157C97.5162 17.4644 99.2629 17.5508 100.797 18.2567C102.33 18.9627 103.532 20.2338 104.152 21.8051C104.772 23.3764 104.763 25.1265 104.125 26.6907C105.354 26.3205 106.665 26.3194 107.895 26.6877L112.504 33.8898Z" fill="white"/>
<path d="M87.0181 52.5637C85.8385 52.5639 84.6787 52.2605 83.65 51.6828C82.6214 51.105 81.7584 50.2723 81.1441 49.2645C80.5297 48.2568 80.1847 47.1079 80.142 45.9282C80.0993 44.7484 80.3604 43.5776 80.9003 42.528L91.9402 21.0652C92.7267 19.5371 94.0558 18.3587 95.6663 17.7615C97.2769 17.1643 99.0524 17.1915 100.644 17.8379C102.235 18.4842 103.528 19.7029 104.267 21.2544C105.006 22.8059 105.139 24.578 104.639 26.2224C105.751 25.995 106.901 26.0469 107.988 26.3733C108.064 26.3957 108.128 26.4444 108.17 26.5105L112.78 33.7129C112.822 33.7783 112.839 33.8564 112.829 33.9333C112.702 34.8953 112.37 35.8185 111.854 36.64C111.338 37.4615 110.651 38.162 109.84 38.6935L90.8397 51.4029C89.7092 52.1609 88.3789 52.565 87.0181 52.5637ZM98.0635 17.984C96.9189 17.985 95.7967 18.301 94.8194 18.8973C93.8422 19.4937 93.0477 20.3475 92.5227 21.3654L81.4827 42.8282C80.8515 44.0556 80.6456 45.458 80.8973 46.8153C81.149 48.1725 81.8441 49.4076 82.8733 50.3266C83.9026 51.2456 85.2077 51.7964 86.5838 51.8925C87.9598 51.9886 89.3287 51.6246 90.4756 50.8576L109.476 38.1482C110.193 37.6789 110.802 37.0637 111.265 36.3427C111.728 35.6217 112.034 34.8111 112.162 33.9638L107.685 26.9681C106.55 26.6505 105.348 26.663 104.219 27.0041C104.16 27.022 104.097 27.0227 104.037 27.0062C103.978 26.9897 103.924 26.9567 103.882 26.9108C103.841 26.865 103.813 26.8083 103.802 26.7473C103.791 26.6863 103.798 26.6235 103.821 26.5662C104.399 25.1236 104.421 23.5175 103.882 22.0598C103.344 20.602 102.283 19.3967 100.906 18.6778C100.027 18.2227 99.0527 17.9848 98.0635 17.984Z" fill="#222433"/>
<path d="M91.7341 34.4777C91.6656 34.4777 91.5987 34.4562 91.543 34.4163C91.4874 34.3763 91.4456 34.3199 91.4236 34.2549C91.4017 34.1899 91.4006 34.1197 91.4207 34.0541C91.4407 33.9885 91.4808 33.9308 91.5352 33.8892C91.8608 33.6405 99.5607 27.7839 104.026 26.3771C104.108 26.3525 104.197 26.3613 104.273 26.4016C104.349 26.442 104.406 26.5107 104.432 26.5929C104.458 26.6751 104.45 26.7641 104.411 26.8408C104.372 26.9174 104.304 26.9755 104.222 27.0026C99.8665 28.3749 92.0111 34.3503 91.9322 34.4105C91.8753 34.454 91.8057 34.4777 91.7341 34.4777Z" fill="#222433"/>
<path d="M111.554 34.893C113.115 33.3849 113.716 31.8222 117.112 32.2265C118.641 32.4123 120.912 32.9259 121.043 31.4615C121.13 30.4561 118.499 29.7458 116.577 29.1557C119.438 28.7732 123.183 28.2596 123.085 26.9482C122.987 25.6369 120.224 25.768 116.522 26.2925C120.486 25.003 122.746 24.861 122.506 23.6261C122.102 21.5825 113.825 23.2545 111.171 24.7626C109.577 25.6696 107.688 26.8062 106.738 27.3963C106.385 27.6152 106.061 27.8797 105.777 28.1831C104.237 29.8114 103.91 32.4013 105.329 34.1498C107.371 36.6305 110.516 35.8983 111.554 34.893Z" fill="white"/>
<path d="M108.828 36.1566C108.734 36.1566 108.638 36.154 108.542 36.1487C107.871 36.1132 107.214 35.9352 106.617 35.6265C106.019 35.3179 105.494 34.8856 105.076 34.3583C103.604 32.5442 103.803 29.7934 105.539 27.9578C105.843 27.6341 106.187 27.3518 106.564 27.1183C107.425 26.5839 109.317 25.4403 111.01 24.4777C113.346 23.1497 119.928 21.7064 122.044 22.6763C122.597 22.9296 122.776 23.2981 122.828 23.5624C123.04 24.6545 121.928 25.0648 120.024 25.6049C121.566 25.5439 122.482 25.7111 122.979 26.1112C123.105 26.2081 123.208 26.3306 123.283 26.4707C123.358 26.6108 123.401 26.7653 123.412 26.9237C123.51 28.2408 121.257 28.8058 118.087 29.2758C119.875 29.841 121.457 30.4762 121.369 31.4899C121.36 31.6672 121.313 31.8405 121.232 31.9986C121.151 32.1566 121.038 32.2958 120.9 32.4072C120.18 32.9804 118.827 32.7925 117.635 32.6269C117.44 32.5999 117.252 32.5736 117.073 32.552C114.457 32.2405 113.665 33.1065 112.569 34.305C112.324 34.5728 112.071 34.8498 111.782 35.1288C111.237 35.6566 110.132 36.1566 108.828 36.1566ZM119.982 22.9992C117.305 22.9992 113.07 24.0613 111.333 25.048C109.649 26.0061 107.766 27.144 106.911 27.6752C106.582 27.8786 106.282 28.1245 106.017 28.4065C104.504 30.0063 104.319 32.3857 105.584 33.9435C105.944 34.3997 106.398 34.7739 106.914 35.0413C107.431 35.3087 107.998 35.4631 108.579 35.4943C109.803 35.5631 110.86 35.109 111.326 34.6577C111.6 34.3928 111.846 34.1235 112.085 33.8629C113.22 32.622 114.199 31.5503 117.15 31.9017C117.333 31.9235 117.525 31.9505 117.724 31.9782C118.734 32.1185 119.991 32.293 120.491 31.8948C120.559 31.8385 120.615 31.7681 120.654 31.6885C120.693 31.6088 120.714 31.5217 120.716 31.4331C120.726 31.3189 120.64 31.0017 119.63 30.5414C118.871 30.1954 117.847 29.8849 116.944 29.6109C116.786 29.5632 116.631 29.5162 116.48 29.4699C116.409 29.448 116.347 29.4023 116.305 29.3404C116.263 29.2785 116.244 29.2041 116.25 29.1295C116.256 29.055 116.287 28.9848 116.339 28.9306C116.39 28.8764 116.459 28.8414 116.533 28.8315C117.886 28.6507 119.57 28.4255 120.856 28.0842C122.093 27.7563 122.786 27.3511 122.758 26.9735C122.754 26.9047 122.735 26.8376 122.702 26.777C122.669 26.7164 122.623 26.6638 122.568 26.6227C121.768 25.978 118.941 26.2817 116.568 26.6179C116.487 26.6294 116.404 26.61 116.336 26.5637C116.269 26.5173 116.221 26.4472 116.203 26.3673C116.184 26.2874 116.196 26.2035 116.237 26.1321C116.277 26.0607 116.342 26.007 116.42 25.9816C117.509 25.6274 118.451 25.3646 119.282 25.1326C121.321 24.5637 122.296 24.2647 122.184 23.6901C122.172 23.6291 122.135 23.4405 121.771 23.2737C121.356 23.0818 120.729 22.9989 119.982 22.9989V22.9992Z" fill="#222433"/>
<path d="M120.574 12.8301C120.644 13.6606 120.529 14.4961 120.239 15.2773C119.949 16.0585 119.491 16.7662 118.896 17.3499C118.302 17.9336 117.586 18.379 116.8 18.6544C116.014 18.9299 115.177 19.0286 114.349 18.9435L112.804 21.7357C111.64 23.6637 109.347 24.2101 107.396 23.0638C105.383 21.881 104.87 19.1831 105.852 17.6532L109.603 11.2408L109.019 9.34785L116.554 3.11884L121.638 6.26241C121.929 7.61018 121.715 9.01815 121.035 10.2176C121.025 10.2354 121.015 10.253 121.005 10.2706" fill="white"/>
<path d="M109.52 23.9948C108.508 23.986 107.529 23.6369 106.739 23.0036C105.95 22.3704 105.396 21.4898 105.167 20.5034C104.904 19.3985 105.052 18.2976 105.573 17.4817L109.247 11.1995L108.706 9.44442C108.687 9.38233 108.687 9.31593 108.705 9.25367C108.724 9.19141 108.761 9.13608 108.811 9.09472L116.345 2.8657C116.398 2.82208 116.463 2.7961 116.532 2.79142C116.6 2.78673 116.668 2.80358 116.726 2.83958L121.81 5.98349C121.848 6.00663 121.88 6.03707 121.905 6.07299C121.931 6.1089 121.949 6.14956 121.958 6.19254C122.265 7.61872 122.039 9.10822 121.321 10.378L121.289 10.4341C121.245 10.5094 121.174 10.5644 121.09 10.587C121.006 10.6095 120.916 10.5978 120.841 10.5543C120.766 10.5108 120.711 10.4392 120.688 10.3551C120.666 10.2711 120.677 10.1816 120.721 10.1062L120.75 10.0555C121.365 8.96684 121.576 7.69539 121.345 6.46607L116.582 3.52117L109.397 9.46081L109.916 11.1437C109.929 11.1872 109.933 11.2329 109.928 11.2781C109.923 11.3232 109.908 11.3668 109.885 11.406L106.135 17.8187C106.133 17.8227 106.13 17.8266 106.128 17.8304C105.706 18.4878 105.585 19.4301 105.804 20.3512C105.92 20.8534 106.135 21.3273 106.437 21.7447C106.739 22.1621 107.122 22.5146 107.562 22.7811C109.369 23.8426 111.453 23.3338 112.521 21.5714L114.063 18.7848C114.094 18.7286 114.14 18.6828 114.197 18.6531C114.254 18.6233 114.319 18.611 114.382 18.6175C115.163 18.6977 115.951 18.6048 116.692 18.3453C117.432 18.0859 118.107 17.6663 118.667 17.1165C119.227 16.5666 119.659 15.9 119.932 15.164C120.206 14.428 120.314 13.6408 120.248 12.8584C120.241 12.7717 120.268 12.6857 120.324 12.6193C120.38 12.5528 120.461 12.5113 120.547 12.504C120.634 12.4967 120.72 12.5241 120.786 12.5802C120.852 12.6362 120.894 12.7164 120.901 12.8031C120.973 13.6633 120.859 14.5289 120.566 15.3407C120.273 16.1526 119.808 16.8916 119.203 17.5073C118.599 18.123 117.869 18.6009 117.063 18.9083C116.257 19.2157 115.394 19.3454 114.533 19.2886L113.091 21.8951C113.089 21.8987 113.087 21.9023 113.085 21.9061C112.264 23.2641 110.935 23.9948 109.52 23.9948Z" fill="#222433"/>
<path d="M120.813 9.34784L121.712 12.795L119.738 12.8559" fill="white"/>
<path d="M119.738 13.1837C119.651 13.185 119.567 13.1517 119.505 13.0912C119.443 13.0306 119.407 12.9478 119.406 12.8608C119.404 12.7739 119.437 12.69 119.498 12.6276C119.558 12.5651 119.641 12.5293 119.728 12.528L121.292 12.4797L120.496 9.43077C120.483 9.38851 120.479 9.34407 120.483 9.30012C120.488 9.25618 120.501 9.21363 120.523 9.17503C120.544 9.13644 120.574 9.1026 120.608 9.07555C120.643 9.0485 120.683 9.02879 120.726 9.01761C120.769 9.00644 120.813 9.00402 120.857 9.01051C120.901 9.017 120.943 9.03227 120.98 9.05538C121.018 9.0785 121.051 9.109 121.076 9.14504C121.102 9.18108 121.12 9.22192 121.129 9.2651L122.029 12.7122C122.041 12.7598 122.043 12.8097 122.033 12.858C122.024 12.9063 122.004 12.9519 121.974 12.9914C121.945 13.0308 121.907 13.0631 121.863 13.0858C121.819 13.1086 121.771 13.1212 121.722 13.1227L119.748 13.1837H119.738Z" fill="#222433"/>
<path d="M119.453 15.9172C119.103 15.9184 118.758 15.8402 118.444 15.6884C118.129 15.5367 117.853 15.3153 117.636 15.0411L117.378 14.7203C117.351 14.6868 117.33 14.6482 117.318 14.6067C117.305 14.5652 117.301 14.5216 117.305 14.4785C117.31 14.4353 117.322 14.3935 117.343 14.3554C117.364 14.3172 117.392 14.2836 117.426 14.2564C117.459 14.2292 117.498 14.2089 117.54 14.1968C117.581 14.1847 117.625 14.181 117.668 14.1859C117.711 14.1908 117.753 14.2042 117.791 14.2253C117.828 14.2464 117.862 14.2749 117.888 14.3089L118.148 14.631C118.332 14.8641 118.576 15.0436 118.853 15.1508C119.131 15.2579 119.432 15.2889 119.725 15.2406L119.883 15.2143C119.926 15.2065 119.97 15.2072 120.012 15.2165C120.055 15.2257 120.095 15.2434 120.131 15.2684C120.166 15.2934 120.197 15.3253 120.22 15.3621C120.243 15.399 120.259 15.4401 120.266 15.483C120.273 15.526 120.271 15.5699 120.261 15.6123C120.251 15.6546 120.233 15.6946 120.207 15.7298C120.182 15.765 120.149 15.7947 120.112 15.8172C120.075 15.8398 120.034 15.8547 119.991 15.8611L119.829 15.8879C119.704 15.9074 119.579 15.9172 119.453 15.9172Z" fill="#222433"/>
<path d="M119.414 9.63141C119.577 9.34182 119.474 8.97512 119.185 8.81239C118.895 8.64965 118.529 8.7525 118.366 9.0421C118.204 9.3317 118.306 9.69839 118.596 9.86112C118.885 10.0239 119.252 9.92101 119.414 9.63141Z" fill="#222433"/>
<path d="M114.293 19.2707C114.28 19.2707 114.268 19.2699 114.255 19.2684C113.237 19.1497 112.265 18.7734 111.433 18.1749C110.6 17.5765 109.934 16.7756 109.496 15.8479C109.478 15.809 109.467 15.7668 109.465 15.7238C109.463 15.6808 109.469 15.6378 109.484 15.5973C109.498 15.5568 109.521 15.5195 109.55 15.4876C109.579 15.4557 109.613 15.4299 109.652 15.4115C109.691 15.3931 109.733 15.3826 109.776 15.3805C109.819 15.3784 109.862 15.3848 109.903 15.3994C109.943 15.4139 109.981 15.4363 110.012 15.4652C110.044 15.4942 110.07 15.5291 110.088 15.568C110.479 16.395 111.073 17.1088 111.815 17.6422C112.557 18.1757 113.423 18.5111 114.331 18.617C114.414 18.6266 114.49 18.6677 114.544 18.7317C114.597 18.7957 114.625 18.8779 114.62 18.9614C114.615 19.0449 114.579 19.1234 114.518 19.1809C114.457 19.2383 114.377 19.2704 114.293 19.2705V19.2707Z" fill="#222433"/>
<path d="M112.537 10.1837L113.397 10.6668L116.676 4.04932L121.649 6.26838C121.409 5.14025 120.831 4.11197 119.993 3.32036C119.155 2.52874 118.096 2.01131 116.956 1.83691C115.817 1.66251 114.652 1.8394 113.615 2.34405C112.579 2.8487 111.721 3.65719 111.155 4.66195C111.061 4.8285 110.976 4.99963 110.9 5.1747" fill="white"/>
<path d="M113.397 10.9947C113.34 10.9947 113.285 10.9802 113.236 10.9527L112.377 10.4696C112.339 10.4485 112.306 10.4202 112.28 10.3864C112.253 10.3525 112.233 10.3138 112.222 10.2723C112.21 10.2309 112.207 10.1875 112.212 10.1448C112.217 10.102 112.231 10.0607 112.252 10.0232C112.273 9.98563 112.301 9.95261 112.335 9.92601C112.369 9.8994 112.407 9.87972 112.449 9.86809C112.49 9.85646 112.533 9.85311 112.576 9.85823C112.619 9.86335 112.66 9.87684 112.698 9.89793L113.256 10.212L116.383 3.90365C116.42 3.82782 116.486 3.76947 116.565 3.74081C116.645 3.71215 116.732 3.7154 116.81 3.74989L121.147 5.68569C120.808 4.71427 120.196 3.86137 119.384 3.22918C118.573 2.59698 117.596 2.21229 116.572 2.12119C115.548 2.03009 114.519 2.23643 113.609 2.71551C112.699 3.19459 111.946 3.92608 111.441 4.82237C111.353 4.97886 111.272 5.14158 111.2 5.30583C111.183 5.3453 111.158 5.38098 111.127 5.41085C111.096 5.44072 111.06 5.46419 111.02 5.47992C110.98 5.49565 110.937 5.50333 110.894 5.50252C110.851 5.50172 110.809 5.49244 110.769 5.47522C110.73 5.45799 110.694 5.43317 110.664 5.40216C110.634 5.37114 110.611 5.33455 110.595 5.29447C110.579 5.25438 110.572 5.2116 110.573 5.16854C110.573 5.12549 110.583 5.08302 110.6 5.04356C110.68 4.85942 110.771 4.67703 110.87 4.50152C111.468 3.43878 112.376 2.58365 113.472 2.04989C114.568 1.51614 115.801 1.32906 117.006 1.51354C118.211 1.69803 119.331 2.24534 120.218 3.08265C121.105 3.91997 121.715 5.00759 121.969 6.20084C121.982 6.25998 121.978 6.3214 121.957 6.37834C121.937 6.43527 121.902 6.4855 121.855 6.52347C121.808 6.56144 121.751 6.58567 121.691 6.5935C121.631 6.60132 121.57 6.59243 121.515 6.56781L116.83 4.47693L113.69 10.8125C113.663 10.8672 113.621 10.9132 113.569 10.9454C113.517 10.9776 113.458 10.9947 113.397 10.9947Z" fill="#222433"/>
<path d="M112.537 10.1837C112.975 9.66116 113.229 9.00877 113.259 8.32741C113.29 7.64606 113.095 6.97371 112.705 6.41438C112.315 5.85504 111.751 5.43989 111.102 5.23314C110.453 5.02639 109.753 5.03957 109.112 5.27064C108.471 5.5017 107.924 5.93778 107.555 6.51141C107.186 7.08504 107.017 7.76425 107.073 8.44398C107.128 9.12371 107.407 9.76608 107.864 10.2717C108.321 10.7773 108.932 11.1181 109.603 11.2412" fill="white"/>
<path d="M109.603 11.5691C109.583 11.5692 109.563 11.5673 109.544 11.5637C108.803 11.4276 108.127 11.0509 107.621 10.4919C107.116 9.93291 106.808 9.22274 106.746 8.47126C106.685 7.71978 106.872 6.96887 107.28 6.33468C107.687 5.70049 108.292 5.21837 109.001 4.96289C109.71 4.70742 110.483 4.69282 111.201 4.92136C111.919 5.14991 112.542 5.60885 112.973 6.22721C113.404 6.84557 113.62 7.58887 113.586 8.34215C113.553 9.09542 113.272 9.81669 112.788 10.3944C112.761 10.4274 112.727 10.4546 112.688 10.4745C112.65 10.4944 112.609 10.5066 112.566 10.5104C112.523 10.5141 112.48 10.5094 112.439 10.4965C112.398 10.4836 112.359 10.4626 112.326 10.435C112.293 10.4073 112.266 10.3734 112.246 10.3352C112.226 10.297 112.214 10.2552 112.211 10.2123C112.207 10.1694 112.211 10.1262 112.224 10.0851C112.237 10.044 112.258 10.0059 112.286 9.97288C112.397 9.84026 112.496 9.69758 112.581 9.54668C112.868 9.03404 112.985 8.44341 112.915 7.85993C112.845 7.27646 112.592 6.73028 112.192 6.30013C111.791 5.86997 111.265 5.57807 110.689 5.4665C110.112 5.35493 109.515 5.42944 108.984 5.67931C108.452 5.92918 108.014 6.34149 107.731 6.85681C107.449 7.37213 107.338 7.96383 107.413 8.54662C107.488 9.12941 107.747 9.67319 108.151 10.0996C108.555 10.5259 109.084 10.8129 109.662 10.919C109.742 10.9336 109.814 10.9778 109.864 11.043C109.913 11.1081 109.937 11.1895 109.93 11.271C109.922 11.3526 109.885 11.4284 109.824 11.4837C109.764 11.5389 109.685 11.5695 109.603 11.5695V11.5691Z" fill="#222433"/>
<path d="M110.717 8.8262C110.701 8.82617 110.686 8.82501 110.67 8.8227L109.083 8.59212C108.997 8.57961 108.92 8.53344 108.868 8.46375C108.816 8.39406 108.794 8.30656 108.806 8.22051C108.819 8.13446 108.865 8.0569 108.934 8.0049C109.004 7.95289 109.091 7.9307 109.177 7.94321L110.049 8.06987L109.379 7.03705C109.356 7.00094 109.339 6.96047 109.331 6.91797C109.323 6.87547 109.323 6.83179 109.332 6.78944C109.341 6.74708 109.358 6.7069 109.382 6.67121C109.407 6.63551 109.438 6.60501 109.474 6.58145C109.511 6.5579 109.551 6.54177 109.594 6.53398C109.636 6.52619 109.68 6.52691 109.722 6.53608C109.764 6.54525 109.804 6.56271 109.84 6.58743C109.875 6.61216 109.906 6.64366 109.929 6.68014L110.992 8.3199C111.024 8.36938 111.042 8.4266 111.044 8.48553C111.047 8.54447 111.033 8.60293 111.005 8.65477C110.977 8.7066 110.935 8.74988 110.885 8.78006C110.834 8.81023 110.776 8.82617 110.717 8.8262Z" fill="#222433"/>
<path d="M83.0863 91.3027L83.0701 90.5164C83.0626 90.1573 83.3429 89.86 83.6963 89.8523C83.7958 89.8501 83.8945 89.8716 83.9844 89.915L85.9241 90.8485L84.0253 91.8645C83.7122 92.0319 83.3248 91.9098 83.1599 91.5917C83.1137 91.5024 83.0885 91.4035 83.0863 91.3027Z" fill="white"/>
<path d="M83.7279 92.1379C83.6447 92.1379 83.561 92.1251 83.4792 92.0993C83.266 92.0321 83.0913 91.8845 82.9874 91.6838C82.9274 91.5681 82.8942 91.4377 82.8914 91.307C82.8914 91.3069 82.8914 91.3069 82.8914 91.3069L82.8752 90.5206C82.8705 90.2942 82.9528 90.0793 83.1071 89.9156C83.2614 89.7519 83.4691 89.6592 83.6921 89.6544C83.8219 89.6515 83.9512 89.6798 84.068 89.7361L86.0076 90.6694C86.0743 90.7016 86.1175 90.7692 86.119 90.8442C86.1206 90.9192 86.0803 90.9887 86.0149 91.0237L84.1162 92.0397C83.9944 92.1048 83.8617 92.1379 83.7279 92.1379ZM83.2813 91.2985C83.2828 91.3682 83.3004 91.4377 83.3325 91.4993C83.388 91.6064 83.4811 91.6851 83.5948 91.7209C83.7086 91.7568 83.8292 91.7455 83.9346 91.6892L85.4884 90.8578L83.901 90.0939C83.8387 90.0639 83.7702 90.049 83.7005 90.0503C83.5816 90.0529 83.4709 90.1023 83.3886 90.1896C83.3064 90.2768 83.2625 90.3913 83.265 90.5121L83.2813 91.2985Z" fill="#222433"/>
<path d="M85.479 87.9647L86.2529 87.9482C86.6067 87.9419 86.8986 88.2281 86.9049 88.5876C86.9066 88.6876 86.8856 88.7867 86.8436 88.8771L85.9241 90.8484L84.924 88.9174C84.7599 88.5988 84.8811 88.2055 85.1946 88.0388C85.2825 87.9921 85.3798 87.9667 85.479 87.9647Z" fill="white"/>
<path d="M85.9241 91.0465C85.8518 91.0465 85.7854 91.0059 85.7516 90.9407L84.7515 89.0096C84.5377 88.5944 84.696 88.0804 85.1043 87.8633C85.2182 87.8027 85.3464 87.7693 85.4749 87.7668L86.2489 87.7503C86.7103 87.7421 87.0917 88.116 87.0999 88.5841C87.1022 88.7139 87.0745 88.8445 87.02 88.9618L86.1003 90.9332C86.0686 91.001 86.002 91.0449 85.9282 91.0465C85.9268 91.0465 85.9255 91.0465 85.9241 91.0465ZM86.2644 88.1462C86.2618 88.1462 86.2591 88.1462 86.2564 88.1462L85.4831 88.1627C85.4831 88.1627 85.483 88.1627 85.4829 88.1627C85.4143 88.1641 85.3459 88.182 85.2851 88.2143C85.0673 88.3301 84.9829 88.6043 85.0969 88.8256L85.9151 90.4055L86.6676 88.7924C86.6966 88.73 86.7113 88.6603 86.7101 88.5911C86.7057 88.3441 86.5065 88.1462 86.2644 88.1462ZM85.479 87.9647H85.4796H85.479Z" fill="#222433"/>
<path d="M131.503 90.7144L131.488 89.9864C131.48 89.6539 131.75 89.3786 132.09 89.3715C132.185 89.3695 132.28 89.3893 132.367 89.4295L134.232 90.2939L132.406 91.2346C132.105 91.3897 131.732 91.2766 131.574 90.982C131.529 90.8993 131.505 90.8078 131.503 90.7144Z" fill="white"/>
<path d="M132.12 91.4878C132.04 91.4878 131.96 91.476 131.881 91.4521C131.676 91.3899 131.508 91.2532 131.408 91.0674C131.35 90.9602 131.319 90.8395 131.316 90.7185C131.316 90.7184 131.316 90.7184 131.316 90.7184L131.3 89.9903C131.296 89.7807 131.375 89.5817 131.523 89.4302C131.672 89.2786 131.871 89.1928 132.086 89.1883C132.211 89.1857 132.335 89.2118 132.447 89.264L134.312 90.1281C134.376 90.1579 134.418 90.2205 134.419 90.29C134.421 90.3594 134.382 90.4237 134.319 90.4561L132.493 91.3969C132.376 91.4572 132.249 91.4878 132.12 91.4878ZM131.691 90.7106C131.692 90.7752 131.709 90.8395 131.74 90.8966C131.793 90.9957 131.883 91.0686 131.992 91.1018C132.102 91.135 132.218 91.1245 132.319 91.0724L133.813 90.3026L132.287 89.5953C132.227 89.5675 132.161 89.5536 132.094 89.5549C131.979 89.5573 131.873 89.603 131.794 89.6838C131.715 89.7646 131.673 89.8707 131.675 89.9825L131.691 90.7106Z" fill="#222433"/>
<path d="M133.804 87.6238L134.548 87.6085C134.888 87.6026 135.169 87.8676 135.175 88.2005C135.177 88.2931 135.156 88.3848 135.116 88.4686L134.232 90.2939L133.27 88.5059C133.112 88.2109 133.229 87.8467 133.53 87.6924C133.615 87.6491 133.708 87.6256 133.804 87.6238Z" fill="white"/>
<path d="M134.232 90.4773C134.162 90.4773 134.098 90.4396 134.066 90.3793L133.104 88.5913C132.899 88.2068 133.051 87.7309 133.444 87.5299C133.553 87.4738 133.676 87.4428 133.8 87.4405L134.544 87.4252C134.988 87.4177 135.355 87.7638 135.362 88.1972C135.365 88.3174 135.338 88.4383 135.286 88.5469L134.401 90.3724C134.371 90.4352 134.307 90.4758 134.236 90.4772C134.235 90.4773 134.233 90.4773 134.232 90.4773ZM134.559 87.7918C134.557 87.7918 134.554 87.7918 134.551 87.7918L133.808 87.8071C133.808 87.8071 133.808 87.8071 133.808 87.8071C133.742 87.8084 133.676 87.8249 133.617 87.8548C133.408 87.9621 133.327 88.2159 133.436 88.4208L134.223 89.8838L134.947 88.3901C134.975 88.3323 134.989 88.2678 134.988 88.2037C134.983 87.975 134.792 87.7918 134.559 87.7918ZM133.804 87.6238H133.805H133.804Z" fill="#222433"/>
<path d="M33.5524 73.3604C33.5018 73.3536 33.4543 73.3318 33.4162 73.2978C33.378 73.2638 33.351 73.2191 33.3384 73.1696C33.3259 73.1201 33.3286 73.0679 33.346 73.0199C33.3634 72.9719 33.3948 72.9302 33.4362 72.9002C36.1535 70.9302 38.0598 69.2616 39.102 67.9407C39.1589 67.8688 39.2122 67.7992 39.2619 67.7319C38.3501 67.709 37.7659 67.4641 37.4999 66.9981C37.1873 66.4502 37.3714 65.8756 37.9804 65.4982C38.7164 65.0425 39.8602 65.011 40.2901 65.6504C40.5452 66.0303 40.513 66.5423 40.2052 67.1725C43.3784 66.8076 49.2599 64.6458 54.6302 62.1315C54.6916 62.1027 54.762 62.0996 54.8257 62.1226C54.8895 62.1457 54.9415 62.1932 54.9702 62.2546C54.999 62.316 55.0022 62.3863 54.9792 62.45C54.9561 62.5138 54.9086 62.5657 54.8472 62.5945C52.283 63.795 48.3408 65.4646 44.9672 66.5501C42.8108 67.244 41.1237 67.6325 39.8905 67.7164C38.9516 69.1395 36.8666 71.0447 33.7365 73.314C33.6834 73.3526 33.6175 73.3692 33.5524 73.3604ZM39.3784 65.6834C38.985 65.6432 38.5893 65.7308 38.2497 65.933C37.9905 66.0935 37.7271 66.3647 37.944 66.7449C38.1542 67.1132 38.7387 67.2578 39.603 67.2216C40.069 66.4304 39.955 66.0688 39.8653 65.9353C39.7694 65.7927 39.591 65.7119 39.3784 65.6834Z" fill="#222433"/>
<path d="M46.856 69.6071C46.7963 69.5991 46.7413 69.5703 46.7007 69.5258C46.6601 69.4813 46.6366 69.4238 46.6342 69.3636C46.6319 69.3035 46.6508 69.2444 46.6878 69.1968C46.7248 69.1493 46.7774 69.1163 46.8363 69.1038C50.5609 68.3078 57.1081 64.625 57.1732 64.5877C57.2323 64.5544 57.3021 64.5459 57.3675 64.564C57.4328 64.5822 57.4883 64.6256 57.5216 64.6846C57.555 64.7436 57.5635 64.8135 57.5454 64.8788C57.5273 64.9441 57.4839 64.9995 57.4249 65.0328C57.1539 65.1856 50.7437 68.7914 46.943 69.6035C46.9144 69.6097 46.885 69.6109 46.856 69.6071Z" fill="#222433"/>
</g>
<defs>
<clipPath id="clip0_138_2256">
<rect width="195" height="130" fill="white"/>
</clipPath>
</defs>
</svg>
