<svg width="242" height="166" viewBox="0 0 242 166" fill="none" xmlns="http://www.w3.org/2000/svg">
<g clip-path="url(#clip0_138_2791)">
<g clip-path="url(#clip1_138_2791)">
<path d="M225.43 166.392L221.7 115.075L230.668 74.8032L182.888 74.8234L174.775 115.169L221.7 115.075" fill="white"/>
<path d="M225.428 166.985C225.443 166.985 225.457 166.985 225.472 166.983C225.55 166.978 225.626 166.957 225.695 166.922C225.765 166.887 225.827 166.839 225.878 166.78C225.929 166.721 225.968 166.652 225.993 166.578C226.017 166.504 226.027 166.426 226.021 166.348L222.297 115.119L231.247 74.932C231.266 74.8453 231.265 74.7554 231.245 74.6688C231.225 74.5823 231.186 74.5014 231.13 74.4321C231.075 74.3628 231.004 74.3068 230.924 74.2684C230.844 74.2299 230.756 74.21 230.667 74.21V74.21L182.887 74.2297C182.75 74.2298 182.617 74.2773 182.511 74.3641C182.405 74.451 182.332 74.5718 182.305 74.7062L174.193 115.052C174.176 115.138 174.178 115.227 174.199 115.312C174.22 115.397 174.26 115.477 174.316 115.545C174.371 115.613 174.441 115.667 174.521 115.705C174.6 115.742 174.687 115.762 174.775 115.762H174.776L221.148 115.669L224.837 166.435C224.848 166.584 224.915 166.724 225.025 166.826C225.134 166.928 225.279 166.985 225.428 166.985ZM221.224 114.482L175.5 114.574L183.374 75.4164L229.927 75.3966L221.224 114.482Z" fill="#222433"/>
<path d="M171.422 167.425C171.436 167.425 171.451 167.425 171.466 167.423C171.543 167.418 171.619 167.397 171.689 167.362C171.759 167.327 171.821 167.278 171.872 167.219C171.922 167.16 171.961 167.092 171.986 167.018C172.01 166.944 172.02 166.866 172.014 166.788L168.235 115.427C168.223 115.27 168.15 115.124 168.031 115.021C167.912 114.918 167.756 114.867 167.599 114.878C167.442 114.89 167.296 114.963 167.194 115.082C167.091 115.201 167.039 115.357 167.051 115.513L170.83 166.875C170.841 167.024 170.908 167.164 171.018 167.266C171.127 167.368 171.272 167.425 171.422 167.425Z" fill="#222433"/>
<path d="M139.744 167.425C139.894 167.425 140.038 167.368 140.148 167.266C140.258 167.164 140.325 167.024 140.336 166.875L144.064 116.155L187.28 115.769L175.187 166.65C175.151 166.803 175.177 166.965 175.259 167.099C175.342 167.233 175.474 167.328 175.628 167.365C175.781 167.401 175.942 167.375 176.076 167.293C176.21 167.21 176.306 167.078 176.342 166.925L188.61 115.306C188.631 115.219 188.632 115.127 188.612 115.039C188.592 114.951 188.553 114.869 188.497 114.799C188.441 114.728 188.369 114.672 188.288 114.633C188.206 114.594 188.117 114.574 188.027 114.575L143.705 114.971H143.512C143.362 114.971 143.218 115.027 143.108 115.129C142.998 115.232 142.931 115.371 142.92 115.521L139.152 166.788C139.146 166.865 139.155 166.943 139.18 167.017C139.204 167.091 139.243 167.16 139.294 167.219C139.345 167.278 139.407 167.326 139.477 167.361C139.546 167.396 139.622 167.417 139.7 167.423C139.715 167.424 139.73 167.425 139.744 167.425Z" fill="#222433"/>
</g>
<g clip-path="url(#clip2_138_2791)">
<path d="M121.429 98.3924L195.442 100.662L201.078 97.2577C202.466 95.9896 203.247 92.566 203.332 91.0163C204.835 63.5915 204.459 59.4305 199.578 55.648C199.052 55.3825 197.606 54.443 195.067 54.1349C188.291 53.3127 175.319 53.3514 163.228 55.2979C161.492 55.5773 155.282 64.3539 150.546 70.0222C148.172 72.8631 145.773 73.6339 145.286 74.7506L140.402 77.9657L121.241 78.9114L117.296 79.668L115.606 83.0724L121.429 98.3924Z" fill="white"/>
<path d="M167.077 30.1145L165.847 27.1093L167.828 21.0359L182.105 21.2252L182.481 31.6276L185.486 36.9234L187.356 38.562L187.365 54.324L185.862 55.6478L164.127 36.9158L167.077 30.1145Z" fill="white"/>
<path d="M121.948 79.1467C121.653 79.1467 121.411 78.9112 121.404 78.6149C121.397 78.3142 121.635 78.0645 121.935 78.0574C122.121 78.0531 122.994 78.0006 124.204 77.928C134.407 77.3155 139.072 77.1374 140.441 77.3221L149.741 70.2477C150.476 69.0627 157.403 58.0046 161.453 55.5869C161.658 55.4644 161.897 55.3333 162.164 55.1973C164.402 54.0574 166.945 53.4547 169.518 53.4547H172.592C172.893 53.4547 173.137 53.6986 173.137 53.9994C173.137 54.3003 172.893 54.5442 172.592 54.5442H169.518C167.116 54.5442 164.744 55.1058 162.659 56.168C162.413 56.2929 162.195 56.4122 162.011 56.5222C158.05 58.8874 150.688 70.7859 150.614 70.9059C150.579 70.9629 150.534 71.013 150.481 71.0537L140.907 78.3365C140.753 78.4533 140.549 78.4801 140.371 78.4071C139.378 78.1083 128.006 78.7912 124.269 79.0154C123.003 79.0915 122.166 79.1416 121.962 79.1465C121.957 79.1467 121.952 79.1467 121.948 79.1467Z" fill="#222433"/>
<path d="M180.376 66.8643C180.368 66.8643 180.361 66.8643 180.353 66.8643C173.705 66.8524 168.199 61.325 168.079 54.5432C168.074 54.2423 168.313 53.9943 168.614 53.989C168.914 53.9819 169.162 54.2232 169.168 54.5241C169.277 60.7169 174.296 65.7642 180.355 65.7751C183.356 65.7792 186.165 64.6117 188.286 62.484C190.408 60.3554 191.579 57.5221 191.585 54.5058C191.585 54.3496 191.58 54.1898 191.57 54.0322C191.553 53.7319 191.782 53.474 192.082 53.4561C192.384 53.4381 192.64 53.6672 192.658 53.9676C192.669 54.1466 192.674 54.3282 192.674 54.5067C192.668 57.8135 191.384 60.9194 189.057 63.2532C186.735 65.5822 183.653 66.8643 180.376 66.8643Z" fill="#222433"/>
<path d="M187.525 55.3576C187.53 59.4213 184.318 62.749 180.283 62.8589C176.174 62.9753 172.749 59.716 172.634 55.579C172.634 55.5759 172.634 55.5726 172.634 55.5695L172.606 54.5066L172.493 50.3387C167.48 48.9725 163.794 44.3605 163.799 38.882C163.802 35.9016 164.899 33.1811 166.704 31.0995C166.358 30.2372 166.105 29.3204 165.967 28.3585C165.967 28.3572 165.967 28.3559 165.966 28.3546C165.605 25.9266 166.002 23.5601 166.979 21.4995" fill="white"/>
<path d="M180.068 63.4065C178.02 63.4065 176.08 62.631 174.586 61.2083C173.036 59.7334 172.15 57.7395 172.09 55.594L171.959 50.7507C166.809 49.1616 163.249 44.3386 163.255 38.8813C163.257 35.9993 164.258 33.212 166.08 30.9946C165.772 30.1668 165.553 29.3076 165.428 28.4358C165.062 25.978 165.428 23.499 166.486 21.2658C166.616 20.994 166.94 20.8781 167.212 21.0068C167.484 21.1358 167.6 21.4606 167.471 21.7324C166.505 23.7697 166.171 26.0318 166.505 28.274C166.635 29.1748 166.871 30.0547 167.21 30.896C167.286 31.0856 167.25 31.3018 167.116 31.4561C165.331 33.5145 164.346 36.1519 164.344 38.8822C164.339 43.9859 167.749 48.4806 172.636 49.8129C172.868 49.8761 173.031 50.0836 173.037 50.3236L173.178 55.5548C173.23 57.4194 173.997 59.1438 175.336 60.4189C176.675 61.6932 178.427 62.3661 180.268 62.314C184.037 62.2114 186.985 59.156 186.98 55.358C186.98 55.0571 187.223 54.8129 187.524 54.8125C187.524 54.8125 187.525 54.8125 187.525 54.8125C187.825 54.8125 188.069 55.0559 188.069 55.3565C188.075 59.7499 184.662 63.2843 180.298 63.4029C180.221 63.4054 180.144 63.4065 180.068 63.4065Z" fill="#222433"/>
<path d="M185.678 37.5863C183.914 36.6982 182.761 35.2613 182.761 31.7175C182.761 31.4337 181.697 31.4191 181.697 31.4191L178.456 37.4819C175.182 34.1023 171.413 34.3873 169.336 34.5451C165.932 34.8035 163.504 37.5026 163.403 37.6174C163.32 37.7107 163.27 37.8289 163.261 37.9538C163.24 38.2429 163.229 38.5354 163.228 38.8236C163.216 42.1437 164.489 45.2697 166.813 47.6258C169.136 49.9819 172.232 51.286 175.53 51.2978C175.545 51.2978 175.559 51.2978 175.574 51.2978C182.361 51.2978 187.895 45.7505 187.919 38.9115C187.919 38.9115 186.353 37.9264 185.678 37.5863Z" fill="#3B63DB"/>
<path d="M189.931 25.9659C189.755 22.4925 188.128 19.2311 185.466 17.0177C180.222 12.6559 172.431 13.4036 168.099 18.6838C167.421 19.5102 166.851 20.4231 166.406 21.3974C166.326 21.5707 166.339 21.7726 166.439 21.9345C166.539 22.0967 166.713 22.1969 166.903 22.202L180.014 22.5406C181.022 22.569 181.824 23.418 181.803 24.4321L181.633 31.6746C181.633 31.6746 183.203 28.6448 184.017 27.8761C186.934 25.1194 189.931 25.9659 189.931 25.9659Z" fill="#3B63DB"/>
<path d="M175.78 31.328C176.466 31.328 177.022 30.7683 177.022 30.0778C177.022 29.3874 176.466 28.8277 175.78 28.8277C175.095 28.8277 174.539 29.3874 174.539 30.0778C174.539 30.7683 175.095 31.328 175.78 31.328Z" fill="#222433"/>
<path d="M167.113 31.29C167.799 31.29 168.354 30.7303 168.354 30.0399C168.354 29.3494 167.799 28.7897 167.113 28.7897C166.427 28.7897 165.871 29.3494 165.871 30.0399C165.871 30.7303 166.427 31.29 167.113 31.29Z" fill="#222433"/>
<path d="M182.197 31.688C182.566 28.4574 185.292 25.949 188.599 25.949C192.159 25.949 195.045 28.8544 195.045 32.4383C195.045 36.0222 192.159 38.9276 188.599 38.9276C187.438 38.9276 186.348 38.6184 185.407 38.0771" fill="white"/>
<path d="M188.599 39.4721C187.384 39.4721 186.186 39.1529 185.136 38.5492C184.875 38.3992 184.785 38.0662 184.935 37.8055C185.085 37.5447 185.418 37.4547 185.679 37.6046C186.564 38.1136 187.574 38.3825 188.599 38.3825C191.853 38.3825 194.5 35.7157 194.5 32.4379C194.5 29.1601 191.853 26.4933 188.599 26.4933C185.6 26.4933 183.081 28.753 182.738 31.7496C182.704 32.0486 182.434 32.2629 182.135 32.2289C181.836 32.1948 181.622 31.9248 181.656 31.6257C182.061 28.0787 185.047 25.4039 188.599 25.4039C192.454 25.4039 195.589 28.5593 195.589 32.4379C195.589 36.3167 192.454 39.4721 188.599 39.4721Z" fill="#222433"/>
<path d="M170.807 40.1262C169.98 40.1262 169.222 39.846 168.673 39.3371C168.047 38.7579 167.716 37.917 167.716 36.9056C167.716 36.6047 167.96 36.3609 168.261 36.3609C168.561 36.3609 168.805 36.6047 168.805 36.9056C168.805 37.6156 169.009 38.1647 169.412 38.5376C169.76 38.8595 170.255 39.0368 170.807 39.0368C172.037 39.0368 173.31 38.1688 173.31 36.7164C173.31 36.4155 173.554 36.1717 173.855 36.1717C174.156 36.1717 174.399 36.4155 174.399 36.7164C174.399 38.8508 172.573 40.1262 170.807 40.1262Z" fill="#222433"/>
<path d="M169.39 34.2255C169.234 34.2255 169.086 34.1591 168.982 34.042C168.871 33.9169 168.824 33.7478 168.854 33.5835L169.817 28.2726C169.871 27.9764 170.156 27.7805 170.451 27.8339C170.747 27.8876 170.943 28.1711 170.889 28.4672L170.049 33.0967L172.692 32.9423C172.996 32.9245 173.25 33.1541 173.268 33.4544C173.285 33.7547 173.056 34.0124 172.756 34.03L169.422 34.2248C169.411 34.2252 169.4 34.2255 169.39 34.2255Z" fill="#222433"/>
<path d="M122.333 145.899C119.284 150.067 115.049 153.596 111.319 154.569C106.328 155.87 101.48 160.677 101.801 165.975H134.323L143.663 145.416L141.754 141.826L122.333 145.899Z" fill="#82B1FF"/>
<path d="M141.556 142.9L121.615 146.884L100.099 108.229C99.2138 106.75 98.5779 105.219 98.1898 103.681C96.8054 98.1942 99.2858 92.6162 103.898 89.8012C105.367 88.905 107.069 88.4708 108.786 88.4786L118.417 88.5218" fill="white"/>
<path d="M121.615 147.429C121.42 147.429 121.237 147.324 121.139 147.149L99.6228 108.494C98.7304 107.002 98.0678 105.423 97.6617 103.814C96.9616 101.039 97.1799 98.1733 98.2933 95.5277C99.3685 92.9732 101.258 90.7743 103.615 89.3362C105.119 88.4183 106.89 87.9337 108.741 87.9337C108.757 87.9337 108.772 87.9337 108.788 87.9339L118.419 87.9771C118.72 87.9784 118.963 88.2235 118.961 88.5242C118.96 88.8242 118.716 89.0664 118.417 89.0666C118.416 89.0666 118.415 89.0666 118.414 89.0666L108.783 89.0234C108.769 89.0234 108.755 89.0232 108.741 89.0232C107.09 89.0232 105.515 89.4526 104.182 90.2662C99.6128 93.0545 97.4168 98.3919 98.7177 103.548C99.0976 105.053 99.7194 106.534 100.566 107.949L121.898 146.272L141.449 142.366C141.744 142.307 142.031 142.499 142.09 142.793C142.149 143.089 141.957 143.375 141.662 143.434L121.721 147.419C121.686 147.426 121.65 147.429 121.615 147.429Z" fill="#222433"/>
<path d="M142.875 146.1C139.88 150.366 135.507 154.062 131.679 155.043C126.813 156.291 123.505 160.898 123.818 165.975H172.605C172.605 165.975 172.591 147.157 171.909 139.435L142.875 146.1Z" fill="#82B1FF"/>
<path d="M144.94 82.8305C144.74 82.8305 144.548 82.7203 144.452 82.5296C144.318 82.2607 144.426 81.9333 144.695 81.7986C146.159 81.0654 147.736 80.6817 149.383 80.6583L182.638 79.6996L182.725 69.9937C182.728 69.6944 182.971 69.4539 183.269 69.4539C183.271 69.4539 183.273 69.4539 183.275 69.4539C183.575 69.4566 183.817 69.7026 183.814 70.0035L183.722 80.2338C183.72 80.5267 183.486 80.7649 183.193 80.7734L149.407 81.7476C147.917 81.7688 146.499 82.1136 145.183 82.7728C145.105 82.812 145.022 82.8305 144.94 82.8305Z" fill="#222433"/>
<path d="M127.097 84.0722C127.163 83.9097 126.941 81.79 125.961 80.3597C124.444 78.145 122.665 78.5617 121.112 78.6709" fill="white"/>
<path d="M127.097 84.6171C127.029 84.6171 126.96 84.6042 126.893 84.5772C126.646 84.4769 126.512 84.2156 126.564 83.9631C126.57 83.6609 126.336 81.87 125.512 80.6676C124.325 78.9356 123.015 79.0518 121.629 79.1747C121.468 79.1891 121.308 79.2032 121.15 79.2143C120.849 79.2354 120.59 79.0091 120.569 78.7092C120.548 78.409 120.774 78.1486 121.074 78.1276C121.225 78.1171 121.378 78.1034 121.533 78.0896C123.017 77.958 124.864 77.7944 126.41 80.0517C127.426 81.5334 127.78 83.836 127.602 84.2765C127.517 84.4886 127.313 84.6171 127.097 84.6171ZM126.563 83.9812C126.563 83.9812 126.563 83.9812 126.563 83.9812V83.9812ZM126.593 83.8679C126.593 83.8681 126.592 83.8685 126.592 83.8687C126.592 83.8683 126.593 83.8681 126.593 83.8679Z" fill="#222433"/>
<path d="M185.408 83.2779C185.266 83.2779 185.124 83.2229 185.018 83.1134L182.925 80.9667C182.715 80.7513 182.72 80.4063 182.935 80.1964C183.151 79.9865 183.495 79.9907 183.705 80.2062L185.798 82.353C186.008 82.5683 186.003 82.9133 185.788 83.1232C185.682 83.2264 185.545 83.2779 185.408 83.2779Z" fill="#222433"/>
<path d="M121.765 97.3854C121.1 100.891 121.739 104.65 123.766 108.04L143.455 146.412L165.866 141.123L174.215 139.057L166.724 122.458L163.228 115.365H169.51L179.475 115.415H181.631C187.367 115.415 192.549 112.825 196.023 108.698C197.611 106.812 198.472 104.413 198.472 101.94V99.4161" fill="white"/>
<path d="M143.455 146.956C143.254 146.956 143.065 146.845 142.97 146.66L123.29 108.304C121.259 104.9 120.527 100.987 121.23 97.2838C121.286 96.9884 121.571 96.7941 121.867 96.8502C122.162 96.9063 122.356 97.1914 122.3 97.487C121.646 100.933 122.332 104.582 124.233 107.76C124.239 107.77 124.245 107.78 124.251 107.791L143.745 145.783L165.741 140.593L173.45 138.685L166.231 122.691L162.74 115.606C162.656 115.437 162.666 115.237 162.766 115.077C162.865 114.917 163.04 114.82 163.228 114.82H169.51L179.478 114.87H181.631C187.023 114.87 192.116 112.493 195.606 108.347C197.103 106.57 197.927 104.294 197.927 101.94V99.4161C197.927 99.1152 198.171 98.8713 198.472 98.8713C198.773 98.8713 199.016 99.1152 199.016 99.4161V101.94C199.016 104.55 198.101 107.075 196.439 109.049C192.743 113.441 187.345 115.959 181.633 115.959C181.632 115.959 181.632 115.959 181.631 115.959H179.475L169.507 115.909H164.104L167.212 122.217C167.215 122.222 167.218 122.228 167.22 122.234L174.712 138.833C174.778 138.98 174.776 139.149 174.705 139.295C174.635 139.44 174.503 139.547 174.346 139.586L165.997 141.652L143.58 146.942C143.538 146.952 143.496 146.956 143.455 146.956Z" fill="#222433"/>
<path d="M149.528 102.554C146.891 102.554 144.348 101.591 142.36 99.8327C142.134 99.6335 142.113 99.2893 142.312 99.0637C142.511 98.8384 142.856 98.8172 143.081 99.0164C144.87 100.598 147.157 101.464 149.535 101.464C149.582 101.464 149.628 101.464 149.674 101.463H149.983L193.706 100.191C198.989 100.038 203.165 95.7489 203.212 90.426L203.4 63.9992C203.401 63.8854 203.401 63.773 203.398 63.6608C203.275 58.5505 198.97 54.3932 193.802 54.3932H187.859C187.558 54.3932 187.315 54.1493 187.315 53.8484C187.315 53.5476 187.558 53.3037 187.859 53.3037H193.802C199.557 53.3037 204.35 57.9382 204.487 63.6346C204.49 63.7586 204.49 63.8832 204.49 64.0079L204.302 90.4349C204.249 96.3468 199.608 101.11 193.738 101.28L149.999 102.553L149.682 102.553C149.631 102.553 149.579 102.554 149.528 102.554Z" fill="#222433"/>
<path d="M187.525 55.9024C187.226 55.9024 186.984 55.6622 186.98 55.3633L186.811 38.9104C186.808 38.6095 187.049 38.3631 187.35 38.36C187.352 38.36 187.354 38.36 187.356 38.36C187.654 38.36 187.897 38.6003 187.9 38.8991L188.069 55.3521C188.073 55.6529 187.831 55.8993 187.53 55.9024C187.529 55.9024 187.527 55.9024 187.525 55.9024Z" fill="#222433"/>
<path d="M121.246 78.671C119.339 78.9249 117.43 79.1914 115.937 79.4246C110.211 80.3161 95.3813 86.8753 97.1946 90.4151C98.0571 92.6318 102.239 88.6477 109.81 87.9295" fill="white"/>
<path d="M98.2069 91.623C97.4684 91.623 96.9617 91.2929 96.6974 90.6383C96.4881 90.2141 96.3438 89.5278 96.8025 88.6275C98.7785 84.7503 110.945 79.6506 115.853 78.8864C117.199 78.6761 118.99 78.4221 121.174 78.1312C121.472 78.0914 121.746 78.3011 121.785 78.5993C121.825 78.8974 121.616 79.1714 121.317 79.2112C119.142 79.501 117.36 79.7539 116.021 79.9629C110.862 80.7662 99.4725 85.7873 97.773 89.1225C97.4595 89.7375 97.6252 90.0607 97.6795 90.1669C97.6881 90.1834 97.6957 90.2005 97.7024 90.2178C97.9309 90.805 98.795 90.535 101.023 89.6752C103.139 88.8587 106.036 87.7405 109.759 87.3875C110.06 87.3592 110.324 87.5789 110.353 87.8783C110.381 88.1778 110.162 88.4436 109.862 88.4721C106.289 88.8111 103.472 89.898 101.415 90.6917C100.257 91.1385 99.3429 91.4915 98.6104 91.5937C98.4688 91.613 98.3343 91.623 98.2069 91.623Z" fill="#222433"/>
<path d="M122.338 82.2841C117.462 83.6504 112.29 83.5761 109.731 84.6178C108.303 85.1992 108.313 87.2721 109.746 87.8395C111.339 88.4701 113.42 88.4511 113.786 88.501L116.544 88.3683H118.235" fill="white"/>
<path d="M113.786 89.0457C113.762 89.0457 113.737 89.0441 113.713 89.0408C113.665 89.0343 113.518 89.0265 113.376 89.0191C112.578 88.9769 110.918 88.8892 109.546 88.3461C108.672 88 108.126 87.1919 108.121 86.2369C108.117 85.2817 108.655 84.468 109.526 84.1134C110.858 83.5711 112.791 83.3254 115.029 83.041C117.249 82.7589 119.767 82.4389 122.191 81.7597C122.48 81.6787 122.782 81.8475 122.862 82.1373C122.944 82.4269 122.775 82.7276 122.485 82.8088C119.983 83.5097 117.424 83.8351 115.166 84.122C113.004 84.3967 111.137 84.634 109.936 85.1226C109.398 85.3418 109.208 85.8393 109.21 86.2319C109.212 86.6242 109.407 87.1196 109.947 87.3333C111.153 87.8108 112.693 87.8922 113.433 87.9312C113.597 87.9399 113.716 87.9461 113.804 87.955L116.518 87.8245C116.527 87.8241 116.536 87.8239 116.545 87.8239H118.235C118.536 87.8239 118.78 88.0678 118.78 88.3686C118.78 88.6695 118.536 88.9134 118.235 88.9134H116.558L113.813 89.0454C113.804 89.0456 113.795 89.0457 113.786 89.0457Z" fill="#222433"/>
<path d="M157.439 89.8184C159.206 96.232 153.09 103.37 146.515 100.665L146.254 100.554C143.38 99.2637 140.269 98.4467 136.386 100.932C133.651 102.689 129.821 105.743 128.262 103.08C127.181 101.235 131.513 97.4783 134.609 94.592C128.838 96.4833 121.272 98.9422 120.28 96.3604C119.288 93.7787 122.872 91.736 130.371 89.349C121.693 90.514 119.014 92.0857 118.349 89.4985C117.967 88.0173 119.838 86.6357 122.713 85.482C124.009 84.962 125.509 84.4881 127.098 84.0723C132.149 82.7504 138.104 82.0141 141.287 82.2396C141.287 82.2396 142.154 82.2794 144.94 82.2859C145.851 82.2881 146.967 82.2867 148.326 82.2792C153.954 82.2511 156.509 86.4498 157.439 89.8184Z" fill="white"/>
<path d="M130.038 104.671C129.823 104.671 129.614 104.649 129.411 104.602C128.728 104.445 128.184 104.026 127.791 103.356C126.701 101.492 129.416 98.6889 132.434 95.867C125.755 97.9837 120.757 99.1207 119.771 96.5557C119.483 95.8064 119.508 95.0699 119.846 94.367C120.43 93.1512 121.965 92.0203 124.75 90.8136C124.639 90.8341 124.529 90.8543 124.421 90.8741C122.349 91.2548 120.979 91.5065 119.976 91.4308C118.798 91.3422 118.113 90.7713 117.821 89.6343C117.391 87.9654 118.968 86.398 122.51 84.9767C123.778 84.4679 125.275 83.9864 126.96 83.5453C131.955 82.238 137.996 81.4603 141.326 81.6963C141.33 81.6963 142.223 81.7348 144.941 81.7413C145.945 81.7437 147.083 81.7415 148.323 81.7346C148.343 81.7346 148.364 81.7344 148.384 81.7344C155.051 81.7344 157.304 87.2823 157.964 89.6733C157.964 89.6733 157.964 89.6735 157.964 89.6735C158.922 93.1496 157.686 97.1493 154.89 99.6265C152.405 101.828 149.277 102.39 146.308 101.169L146.04 101.054C142.919 99.654 140.138 99.1771 136.68 101.391C136.358 101.597 136.02 101.823 135.672 102.055C133.821 103.29 131.75 104.671 130.038 104.671ZM134.609 94.0473C134.797 94.0473 134.978 94.1457 135.078 94.3151C135.208 94.5353 135.167 94.8162 134.98 94.9906C134.728 95.2253 134.468 95.4657 134.204 95.7105C131.717 98.0107 127.96 101.487 128.731 102.805C128.969 103.212 129.272 103.452 129.655 103.541C131.014 103.854 133.261 102.353 135.068 101.148C135.421 100.913 135.764 100.684 136.092 100.474C140.19 97.8504 143.505 98.7228 146.477 100.057L146.729 100.164C149.292 101.219 152.006 100.726 154.168 98.8111C156.66 96.6031 157.764 93.0473 156.914 89.9631C156.32 87.8127 154.302 82.8239 148.382 82.8239C148.364 82.8239 148.347 82.8239 148.329 82.8241C147.086 82.831 145.945 82.8332 144.938 82.8308C142.173 82.8243 141.298 82.7854 141.262 82.7838C138.024 82.5546 132.13 83.3183 127.235 84.5993C125.594 85.0288 124.141 85.496 122.916 85.9877C120.088 87.1227 118.616 88.3529 118.876 89.3626C119.199 90.6208 119.98 90.5826 124.224 89.8026C125.823 89.5086 127.813 89.1429 130.298 88.8094C130.581 88.7721 130.84 88.9544 130.902 89.2301C130.964 89.5057 130.805 89.7828 130.536 89.8685C126.826 91.0493 121.784 92.8492 120.828 94.8391C120.62 95.2727 120.607 95.6942 120.788 96.1654C121.601 98.2822 129.952 95.5453 134.439 94.0747C134.495 94.0562 134.552 94.0473 134.609 94.0473Z" fill="#222433"/>
<path d="M190.666 34.4091C190.604 34.4091 190.541 34.3986 190.48 34.3762L186.349 32.8764C186.136 32.7993 185.994 32.5986 185.99 32.3726C185.987 32.1463 186.124 31.9417 186.334 31.8582L190.2 30.3226C190.48 30.2115 190.796 30.3482 190.907 30.6278C191.018 30.9074 190.881 31.2241 190.602 31.335L188.068 32.3415L190.852 33.3522C191.134 33.4548 191.28 33.7672 191.178 34.0501C191.097 34.2715 190.888 34.4091 190.666 34.4091Z" fill="#222433"/>
<path d="M124.984 166.52C124.699 166.52 124.459 166.298 124.442 166.009C124.119 160.743 127.528 155.983 132.548 154.69C135.996 153.802 140.178 150.432 143.201 146.105C143.373 145.858 143.713 145.798 143.96 145.97C144.206 146.143 144.266 146.482 144.094 146.729C140.93 151.256 136.505 154.796 132.82 155.745C128.304 156.908 125.238 161.197 125.529 165.942C125.547 166.243 125.319 166.501 125.018 166.519C125.007 166.52 124.996 166.52 124.984 166.52Z" fill="#222433"/>
<path d="M159.375 81.3478C159.341 81.3478 159.307 81.3445 159.272 81.3378C158.977 81.281 158.783 80.9955 158.84 80.6999L161.094 68.9734C161.151 68.678 161.435 68.4844 161.732 68.5413C162.027 68.5981 162.221 68.8835 162.164 69.1792L159.91 80.9057C159.86 81.1664 159.631 81.3478 159.375 81.3478Z" fill="#222433"/>
</g>
<g clip-path="url(#clip3_138_2791)">
<path d="M88.6622 118.283H78.6656H29.6886L25.1305 88.3829C25.0954 88.1528 25.0778 87.9204 25.0778 87.6875C25.0783 85.1423 27.1468 83.0793 29.6982 83.0798H69.3289C71.6131 83.0785 73.5553 84.7429 73.8985 86.9959L78.1709 115.036H88.3341L88.6622 118.283Z" fill="white"/>
<path d="M88.6622 118.857H29.6886C29.4044 118.857 29.1626 118.649 29.1198 118.369L24.5617 88.4692C24.5224 88.2115 24.5024 87.9484 24.5024 87.6873C24.5026 86.3032 25.0432 85.0017 26.0246 84.0231C27.0057 83.0448 28.31 82.5059 29.6972 82.5059C29.6976 82.5059 29.6978 82.5059 29.6981 82.5059H69.3287C69.3296 82.5059 69.3308 82.5059 69.3317 82.5059C71.9188 82.5059 74.0782 84.3574 74.467 86.9096L78.6654 114.462H88.3341C88.6296 114.462 88.8769 114.686 88.9065 114.979L89.2344 118.225C89.2507 118.386 89.1977 118.547 89.0886 118.667C88.9797 118.788 88.8248 118.857 88.6622 118.857ZM30.1829 117.709H88.0261L87.814 115.61H78.1711C77.8867 115.61 77.6451 115.403 77.6023 115.123L73.3297 87.0822C73.0271 85.0952 71.3456 83.6537 69.3316 83.6537C69.3308 83.6537 69.3302 83.6537 69.3293 83.6537H29.6981C29.6979 83.6537 29.6976 83.6537 29.6974 83.6537C28.6174 83.6537 27.602 84.0731 26.8381 84.8349C26.0741 85.5967 25.6532 86.6098 25.653 87.6875C25.653 87.8908 25.6685 88.0955 25.6992 88.2962L30.1829 117.709Z" fill="#222433"/>
<path d="M52.9966 105.15C54.2167 103.969 54.0461 101.819 52.6155 100.348C51.1849 98.8764 49.0361 98.6409 47.816 99.8217C46.5959 101.002 46.7665 103.152 48.1971 104.624C49.6277 106.095 51.7765 106.331 52.9966 105.15Z" fill="#82B1FF"/>
</g>
<g clip-path="url(#clip4_138_2791)">
<path d="M16.7005 133.657H38.9261V143.004H16.7005V133.657Z" fill="#3B63DB"/>
<path d="M40.7529 157.631V163.833H15.3284V165.615H77.4644V155.849H15.3284V157.631H40.7529Z" fill="#82B1FF"/>
<path d="M15.251 157.599H40.3756V163.866H15.251V157.599Z" fill="white"/>
<path d="M15.2511 164.443H40.3756C40.5294 164.443 40.6769 164.382 40.7856 164.274C40.8944 164.166 40.9554 164.019 40.9554 163.866V157.599C40.9554 157.446 40.8944 157.3 40.7856 157.191C40.6769 157.083 40.5294 157.022 40.3756 157.022H15.2511C15.0973 157.022 14.9498 157.083 14.8411 157.191C14.7324 157.3 14.6713 157.446 14.6713 157.599V163.866C14.6713 164.019 14.7324 164.166 14.8411 164.274C14.9498 164.382 15.0973 164.443 15.2511 164.443ZM39.7958 163.289H15.8309V158.176H39.7958V163.289Z" fill="#222433"/>
<path d="M27.1563 119.007H89.3492V121.604H27.1563V119.007Z" fill="#82B1FF"/>
<path d="M27.7167 120.883H55.1025C55.2562 120.883 55.4037 120.822 55.5124 120.714C55.6212 120.605 55.6823 120.459 55.6823 120.306C55.6823 120.153 55.6212 120.006 55.5124 119.898C55.4037 119.789 55.2562 119.729 55.1025 119.729H27.7167C27.5629 119.729 27.4154 119.789 27.3067 119.898C27.198 120.006 27.1369 120.153 27.1369 120.306C27.1369 120.459 27.198 120.605 27.3067 120.714C27.4154 120.822 27.5629 120.883 27.7167 120.883Z" fill="#222433"/>
<path d="M34.481 131.335H16.7006L16.7038 133.657H38.9261V143.004H16.7166L16.7199 145.344H78.9128V131.316" fill="white"/>
<path d="M16.7199 145.921H78.9129C79.0667 145.921 79.2141 145.86 79.3229 145.752C79.4316 145.644 79.4927 145.497 79.4927 145.344V131.316C79.4927 131.163 79.4316 131.017 79.3229 130.908C79.2141 130.8 79.0667 130.739 78.9129 130.739C78.7591 130.739 78.6116 130.8 78.5029 130.908C78.3942 131.017 78.3331 131.163 78.3331 131.316V144.767H17.2997L17.298 143.581H38.9262C39.08 143.581 39.2274 143.52 39.3362 143.412C39.4449 143.304 39.506 143.157 39.506 143.004V133.657C39.506 133.504 39.4449 133.357 39.3362 133.249C39.2274 133.141 39.08 133.08 38.9262 133.08H17.2827L17.2804 131.913H34.4811C34.6348 131.913 34.7823 131.852 34.891 131.744C34.9998 131.635 35.0609 131.489 35.0609 131.336C35.0609 131.183 34.9998 131.036 34.891 130.928C34.7823 130.819 34.6348 130.759 34.4811 130.759H16.7006C16.5468 130.759 16.3994 130.819 16.2906 130.928C16.1819 131.036 16.1208 131.183 16.1208 131.336L16.1239 133.657C16.1239 133.81 16.185 133.957 16.2937 134.065C16.4025 134.174 16.5499 134.234 16.7037 134.234H38.3464V142.427H16.7168C16.5631 142.427 16.4156 142.488 16.3069 142.596C16.1981 142.705 16.137 142.851 16.137 143.004L16.1401 145.345C16.1402 145.498 16.2014 145.644 16.3101 145.752C16.4188 145.86 16.5662 145.921 16.7199 145.921Z" fill="#222433"/>
<path d="M78.9128 154.961V146.86L19.5802 146.821V154.899L78.9128 154.961Z" fill="white"/>
<path d="M78.9129 155.538C79.0667 155.538 79.2141 155.477 79.3229 155.369C79.4316 155.26 79.4927 155.114 79.4927 154.961V146.86C79.4927 146.707 79.4316 146.56 79.3229 146.452C79.2141 146.344 79.0667 146.283 78.9129 146.283L19.5803 146.245C19.4265 146.245 19.279 146.305 19.1703 146.413C19.0616 146.522 19.0005 146.668 19.0005 146.821V154.899C19.0005 155.052 19.0616 155.199 19.1703 155.307C19.279 155.415 19.4265 155.476 19.5803 155.476L78.9129 155.538V155.538ZM78.3331 147.437V154.383L20.1601 154.322V147.399L78.3331 147.437Z" fill="#222433"/>
<path d="M18.8274 145.932V155.799H81.0204V154.26H20.2383V147.471H81.0204V145.932H18.8274Z" fill="#3B63DB"/>
<path d="M41.8637 145.933H42.8301V155.8H41.8637V145.933Z" fill="#3B63DB"/>
<path d="M34.481 122.2H96.674V131.336H34.481V122.2Z" fill="white"/>
<path d="M34.481 131.913H96.674C96.8278 131.913 96.9752 131.852 97.084 131.744C97.1927 131.635 97.2538 131.489 97.2538 131.336V122.2C97.2538 122.047 97.1927 121.9 97.084 121.792C96.9752 121.684 96.8278 121.623 96.674 121.623H34.481C34.3273 121.623 34.1798 121.684 34.071 121.792C33.9623 121.9 33.9012 122.047 33.9012 122.2V131.336C33.9012 131.489 33.9623 131.635 34.071 131.744C34.1798 131.852 34.3273 131.913 34.481 131.913ZM96.0942 130.759H35.0608V122.777H96.0942V130.759Z" fill="#222433"/>
<path d="M48.6281 145.921C48.7819 145.921 48.9293 145.86 49.0381 145.752C49.1468 145.644 49.2079 145.497 49.2079 145.344V131.701C49.2079 131.548 49.1468 131.401 49.0381 131.293C48.9293 131.185 48.7819 131.124 48.6281 131.124C48.4743 131.124 48.3269 131.185 48.2181 131.293C48.1094 131.401 48.0483 131.548 48.0483 131.701V145.344C48.0483 145.497 48.1094 145.644 48.2181 145.752C48.3269 145.86 48.4743 145.921 48.6281 145.921Z" fill="#222433"/>
<path d="M75.7819 129.88H96.674C96.8278 129.88 96.9752 129.819 97.084 129.711C97.1927 129.602 97.2538 129.456 97.2538 129.303C97.2538 129.15 97.1927 129.003 97.084 128.895C96.9752 128.787 96.8278 128.726 96.674 128.726H76.3617V124.81H96.674C96.8278 124.81 96.9752 124.749 97.084 124.641C97.1927 124.533 97.2538 124.386 97.2538 124.233C97.2538 124.08 97.1927 123.933 97.084 123.825C96.9752 123.717 96.8278 123.656 96.674 123.656H75.7819C75.6282 123.656 75.4807 123.717 75.372 123.825C75.2632 123.933 75.2021 124.08 75.2021 124.233V129.303C75.2021 129.456 75.2632 129.602 75.372 129.711C75.4807 129.819 75.6282 129.88 75.7819 129.88Z" fill="#222433"/>
</g>
<g clip-path="url(#clip5_138_2791)">
<path d="M47.2454 74.8065C47.0813 74.8542 46.9049 74.8378 46.7514 74.7606C46.598 74.6833 46.4788 74.5509 46.4175 74.3897L44.6295 69.6777C44.597 69.5934 44.5812 69.5036 44.5832 69.4135C44.5853 69.3233 44.605 69.2345 44.6413 69.1523C44.6776 69.0701 44.7297 68.9959 44.7947 68.9342C44.8597 68.8725 44.9362 68.8244 45.0199 68.7927C45.1037 68.761 45.1929 68.7463 45.2825 68.7495C45.3721 68.7527 45.4603 68.7736 45.5421 68.8112C45.6239 68.8487 45.6975 68.9021 45.7589 68.9683C45.8203 69.0344 45.8681 69.1121 45.8997 69.1967L47.6877 73.9087C47.7196 73.9928 47.7348 74.0824 47.7324 74.1722C47.73 74.262 47.71 74.3504 47.6736 74.4322C47.6372 74.514 47.5851 74.5877 47.5203 74.6491C47.4554 74.7105 47.3791 74.7583 47.2957 74.7899C47.2786 74.7968 47.2614 74.8018 47.2454 74.8065Z" fill="#222433"/>
<path d="M66.7457 75.393C66.6348 75.4254 66.5173 75.4287 66.4044 75.4026C66.2915 75.3765 66.1869 75.3219 66.1004 75.2439C66.014 75.166 65.9486 75.0673 65.9105 74.9571C65.8723 74.847 65.8627 74.729 65.8825 74.6145L66.7354 69.6548C66.7662 69.4762 66.8662 69.3176 67.0136 69.214C67.1611 69.1103 67.3437 69.0701 67.5215 69.1022C67.6992 69.1343 67.8575 69.2361 67.9614 69.3851C68.0654 69.5341 68.1065 69.7181 68.0758 69.8968L67.2228 74.8564C67.2013 74.9821 67.1451 75.0989 67.0608 75.1938C66.9765 75.2886 66.8674 75.3576 66.7457 75.393Z" fill="#222433"/>
<path d="M83.2549 85.942C83.1143 85.9831 82.9639 85.9774 82.8262 85.9255C82.6886 85.8736 82.571 85.7785 82.491 85.6542C82.411 85.53 82.3729 85.3833 82.3824 85.2361C82.3919 85.0888 82.4485 84.949 82.5437 84.8373L85.7902 81.0345C85.848 80.9657 85.9188 80.9093 85.9985 80.8683C86.0782 80.8274 86.1653 80.8028 86.2547 80.7959C86.3442 80.7891 86.4342 80.8001 86.5196 80.8284C86.605 80.8567 86.6841 80.9017 86.7524 80.9608C86.8206 81.0198 86.8767 81.0919 86.9173 81.1727C86.9579 81.2535 86.9822 81.3414 86.9889 81.4315C86.9957 81.5216 86.9846 81.6121 86.9564 81.6976C86.9281 81.7831 86.8833 81.8621 86.8245 81.9299L83.578 85.7327C83.4929 85.8326 83.3806 85.9053 83.2549 85.942Z" fill="#222433"/>
</g>
<g clip-path="url(#clip6_138_2791)">
<path d="M235.276 166.745C235.256 166.748 235.235 166.749 235.214 166.749L5.27143 165.883C5.16487 165.882 5.06286 165.84 4.98783 165.765C4.9128 165.69 4.87091 165.588 4.87136 165.482C4.87182 165.376 4.91459 165.275 4.99026 165.2C5.06593 165.125 5.16831 165.084 5.27487 165.084L235.218 165.95C235.319 165.951 235.417 165.989 235.491 166.057C235.565 166.126 235.61 166.22 235.618 166.32C235.625 166.421 235.594 166.52 235.531 166.599C235.467 166.678 235.376 166.73 235.276 166.745Z" fill="#222433"/>
</g>
</g>
<defs>
<clipPath id="clip0_138_2791">
<rect width="242" height="181" fill="white"/>
</clipPath>
<clipPath id="clip1_138_2791">
<rect width="92.1113" height="91.8575" fill="white" transform="matrix(-1 0 0 1 231.261 74.21)"/>
</clipPath>
<clipPath id="clip2_138_2791">
<rect width="107.992" height="152.342" fill="white" transform="translate(96.4976 14.1783)"/>
</clipPath>
<clipPath id="clip3_138_2791">
<rect width="64.735" height="36.3508" fill="white" transform="translate(24.5024 82.5059)"/>
</clipPath>
<clipPath id="clip4_138_2791">
<rect width="82.5825" height="46.6076" fill="white" transform="matrix(-1 0 0 1 97.2538 119.007)"/>
</clipPath>
<clipPath id="clip5_138_2791">
<rect width="37.3317" height="27.1767" fill="white" transform="matrix(0.959923 -0.280265 0.282347 0.959313 44.4183 68.9696)"/>
</clipPath>
<clipPath id="clip6_138_2791">
<rect width="228.051" height="35.6457" fill="white" transform="matrix(0.989014 -0.14782 0.148999 0.988838 4.81628 165.148)"/>
</clipPath>
</defs>
</svg>
