<svg width="11" height="9" viewBox="0 0 11 9" fill="none" xmlns="http://www.w3.org/2000/svg">
<path d="M6.1875 7.6875C6.49219 7.6875 6.75 7.94531 6.75 8.25C6.75 8.57812 6.49219 8.8125 6.16406 8.8125H4.28906C3.98438 8.8125 3.75 8.57812 3.75 8.25C3.75 7.94531 3.98438 7.6875 4.28906 7.6875H6.1875ZM9.9375 0.1875C10.2422 0.1875 10.5 0.492188 10.5 0.773438C10.5 1.07812 10.2422 1.3125 9.9375 1.3125H0.539062C0.234375 1.3125 0 1.03125 0 0.75C0 0.445312 0.234375 0.1875 0.539062 0.1875H9.9375ZM8.4375 3.9375C8.74219 3.9375 9 4.19531 9 4.5C9 4.82812 8.74219 5.0625 8.41406 5.0625H2.03906C1.73438 5.0625 1.5 4.82812 1.5 4.5C1.5 4.19531 1.73438 3.9375 2.03906 3.9375H8.4375Z" fill="black"/>
</svg>
