<svg width="16" height="16" viewBox="0 0 16 16" fill="none" xmlns="http://www.w3.org/2000/svg">
<g clip-path="url(#clip0_118_2981)">
<path fill-rule="evenodd" clip-rule="evenodd" d="M8 5.1875C6.4467 5.1875 5.1875 6.4467 5.1875 8C5.1875 9.5533 6.4467 10.8125 8 10.8125C9.55331 10.8125 10.8125 9.5533 10.8125 8C10.8125 6.4467 9.55331 5.1875 8 5.1875ZM6.3125 8C6.3125 7.06802 7.06802 6.3125 8 6.3125C8.93198 6.3125 9.6875 7.06802 9.6875 8C9.6875 8.93198 8.93198 9.6875 8 9.6875C7.06802 9.6875 6.3125 8.93198 6.3125 8Z" fill="#2D264B"/>
<path fill-rule="evenodd" clip-rule="evenodd" d="M8 1.4375C6.39429 1.4375 4.94244 2.23174 3.7638 3.19679C2.57873 4.1671 1.60971 5.35899 0.958562 6.26601L0.90486 6.34069C0.512864 6.88538 0.190186 7.33374 0.190186 8C0.190186 8.66626 0.512864 9.11462 0.90486 9.65931L0.958563 9.73399C1.60971 10.641 2.57873 11.8329 3.7638 12.8032C4.94244 13.7683 6.39429 14.5625 8 14.5625C9.60572 14.5625 11.0576 13.7683 12.2362 12.8032C13.4213 11.8329 14.3903 10.641 15.0414 9.73399L15.0951 9.65931C15.4871 9.11463 15.8098 8.66626 15.8098 8C15.8098 7.33374 15.4871 6.88538 15.0951 6.3407L15.0414 6.26601C14.3903 5.35899 13.4213 4.1671 12.2362 3.19679C11.0576 2.23174 9.60572 1.4375 8 1.4375ZM1.87245 6.92209C2.4944 6.05574 3.39761 4.9506 4.4765 4.06723C5.56183 3.17859 6.76568 2.5625 8 2.5625C9.23433 2.5625 10.4382 3.17859 11.5235 4.06723C12.6024 4.9506 13.5056 6.05574 14.1276 6.92209C14.5955 7.57395 14.6848 7.73111 14.6848 8C14.6848 8.26889 14.5955 8.42605 14.1276 9.07791C13.5056 9.94426 12.6024 11.0494 11.5235 11.9328C10.4382 12.8214 9.23433 13.4375 8 13.4375C6.76568 13.4375 5.56183 12.8214 4.4765 11.9328C3.39761 11.0494 2.4944 9.94426 1.87245 9.07791C1.40448 8.42605 1.31519 8.26889 1.31519 8C1.31519 7.73111 1.40448 7.57395 1.87245 6.92209Z" fill="#2D264B"/>
</g>
<defs>
<clipPath id="clip0_118_2981">
<rect width="16" height="16" fill="white" transform="translate(0 16) rotate(-90)"/>
</clipPath>
</defs>
</svg>
