<svg width="16" height="17" viewBox="0 0 16 17" fill="none" xmlns="http://www.w3.org/2000/svg">
<g clip-path="url(#clip0_186_1431)">
<path fill-rule="evenodd" clip-rule="evenodd" d="M6.71995 13.1879H2.51929C2.24329 13.1879 2.01929 12.9639 2.01929 12.6879C2.01929 12.4119 2.24329 12.1879 2.51929 12.1879H6.71995C6.99595 12.1879 7.21995 12.4119 7.21995 12.6879C7.21995 12.9639 6.99595 13.1879 6.71995 13.1879Z" fill="#191B1F"/>
<path fill-rule="evenodd" clip-rule="evenodd" d="M12.794 6.72632H8.59399C8.31799 6.72632 8.09399 6.50232 8.09399 6.22632C8.09399 5.95032 8.31799 5.72632 8.59399 5.72632H12.794C13.07 5.72632 13.294 5.95032 13.294 6.22632C13.294 6.50232 13.07 6.72632 12.794 6.72632Z" fill="#191B1F"/>
<mask id="mask0_186_1431" style="mask-type:luminance" maskUnits="userSpaceOnUse" x="2" y="4" width="5" height="5">
<path fill-rule="evenodd" clip-rule="evenodd" d="M2 4.12631H6.15053V8.25405H2V4.12631Z" fill="white"/>
</mask>
<g mask="url(#mask0_186_1431)">
<path fill-rule="evenodd" clip-rule="evenodd" d="M4.07517 5.12606C3.4825 5.12606 2.99984 5.60339 2.99984 6.19072C2.99984 6.77739 3.4825 7.25406 4.07517 7.25406C4.6685 7.25406 5.1505 6.77739 5.1505 6.19072C5.1505 5.60339 4.6685 5.12606 4.07517 5.12606ZM4.07509 8.25392C2.93109 8.25392 1.99976 7.32858 1.99976 6.19058C1.99976 5.05258 2.93109 4.12592 4.07509 4.12592C5.21976 4.12592 6.15042 5.05258 6.15042 6.19058C6.15042 7.32858 5.21976 8.25392 4.07509 8.25392Z" fill="#191B1F"/>
</g>
<path fill-rule="evenodd" clip-rule="evenodd" d="M11.5918 11.5981C10.9985 11.5981 10.5158 12.0754 10.5158 12.6621C10.5158 13.2494 10.9985 13.7261 11.5918 13.7261C12.1845 13.7261 12.6665 13.2494 12.6665 12.6621C12.6665 12.0754 12.1845 11.5981 11.5918 11.5981ZM11.5919 14.7261C10.4472 14.7261 9.51587 13.8001 9.51587 12.6621C9.51587 11.5241 10.4472 10.5981 11.5919 10.5981C12.7359 10.5981 13.6665 11.5241 13.6665 12.6621C13.6665 13.8001 12.7359 14.7261 11.5919 14.7261Z" fill="#191B1F"/>
</g>
<defs>
<clipPath id="clip0_186_1431">
<rect width="16" height="16" fill="white" transform="translate(0 16.7927) rotate(-90)"/>
</clipPath>
</defs>
</svg>
