<svg width="24" height="25" viewBox="0 0 24 25" fill="none" xmlns="http://www.w3.org/2000/svg">
    <path d="M6 16.9578C5.58579 16.9578 5.25 17.2936 5.25 17.7078C5.25 18.122 5.58579 18.4578 6 18.4578H8C8.41421 18.4578 8.75 18.122 8.75 17.7078C8.75 17.2936 8.41421 16.9578 8 16.9578H6Z" fill="#2D264B"/>
    <path d="M11 16.9578C10.5858 16.9578 10.25 17.2936 10.25 17.7078C10.25 18.122 10.5858 18.4578 11 18.4578H15C15.4142 18.4578 15.75 18.122 15.75 17.7078C15.75 17.2936 15.4142 16.9578 15 16.9578H11Z" fill="#2D264B"/>
    <path fill-rule="evenodd" clip-rule="evenodd" d="M17.3451 4.02838C16.4807 3.95776 15.4053 3.95776 14.0336 3.95776H9.96644C8.59472 3.95776 7.51929 3.95776 6.65494 4.02838C5.77479 4.10029 5.04769 4.24914 4.38955 4.58448C3.30762 5.13575 2.42798 6.01539 1.87671 7.09732C1.39394 8.04481 1.2906 9.15714 1.26119 10.6934C1.25 11.2776 1.25 11.943 1.25 12.702V12.7413C1.25 14.113 1.24999 15.1885 1.32061 16.0528C1.39252 16.933 1.54138 17.6601 1.87671 18.3182C2.42798 19.4001 3.30762 20.2798 4.38955 20.8311C5.04769 21.1664 5.77479 21.3152 6.65494 21.3872C7.51927 21.4578 8.59469 21.4578 9.96637 21.4578H14.0336C15.4053 21.4578 16.4807 21.4578 17.3451 21.3872C18.2252 21.3152 18.9523 21.1664 19.6104 20.8311C20.6924 20.2798 21.572 19.4001 22.1233 18.3182C22.4586 17.6601 22.6075 16.933 22.6794 16.0528C22.75 15.1885 22.75 14.1131 22.75 12.7414V12.702C22.75 11.943 22.75 11.2776 22.7388 10.6934C22.7094 9.15714 22.6061 8.04481 22.1233 7.09732C21.572 6.01539 20.6924 5.13575 19.6104 4.58448C18.9523 4.24914 18.2252 4.10029 17.3451 4.02838ZM5.07054 5.92099C5.48197 5.71135 5.9897 5.58773 6.77708 5.52339C7.57322 5.45835 8.58749 5.45776 10 5.45776H14C15.4125 5.45776 16.4268 5.45835 17.2229 5.52339C18.0103 5.58773 18.518 5.71135 18.9295 5.92099C19.7291 6.32845 20.3793 6.97862 20.7868 7.7783C21.0409 8.27699 21.1625 8.89993 21.2143 9.95776H2.78567C2.83752 8.89993 2.95913 8.27699 3.21322 7.7783C3.62068 6.97862 4.27085 6.32845 5.07054 5.92099ZM2.75 12.7078C2.75 12.253 2.75001 11.8385 2.7523 11.4578H21.2477C21.25 11.8385 21.25 12.253 21.25 12.7078C21.25 14.1203 21.2494 15.1345 21.1844 15.9307C21.12 16.7181 20.9964 17.2258 20.7868 17.6372C20.3793 18.4369 19.7291 19.0871 18.9295 19.4945C18.518 19.7042 18.0103 19.8278 17.2229 19.8921C16.4268 19.9572 15.4125 19.9578 14 19.9578H10C8.58749 19.9578 7.57322 19.9572 6.77708 19.8921C5.9897 19.8278 5.48197 19.7042 5.07054 19.4945C4.27085 19.0871 3.62068 18.4369 3.21322 17.6372C3.00359 17.2258 2.87996 16.7181 2.81563 15.9307C2.75058 15.1345 2.75 14.1203 2.75 12.7078Z" fill="#2D264B"/>
</svg>
