<svg width="16" height="20" viewBox="0 0 16 20" fill="none" xmlns="http://www.w3.org/2000/svg">
<path d="M15.0453 0.486156C14.825 0.528343 5.57656 2.32366 5.37969 2.36116C5.18281 2.39866 5 2.52991 5 2.73616V13.9908C5 14.0658 4.99531 14.3283 4.8875 14.5393C4.74219 14.8158 4.48906 15.0174 4.13281 15.1346C3.97813 15.1862 3.76719 15.233 3.51875 15.2893C2.38906 15.5424 0.5 15.9737 0.5 17.7174C0.5 19.1752 1.55 19.8315 2.45469 19.944C2.55312 19.958 2.66563 19.9768 2.7875 19.9768C3.10156 19.9768 4.475 19.8221 5.1875 19.358C5.70312 19.0205 6.31719 18.3549 6.31719 17.1174V7.15647C6.31719 6.97834 6.44375 6.82366 6.61719 6.79084L13.7422 5.35178C13.9766 5.30491 14.1922 5.48303 14.1922 5.71741V11.8533C14.1922 12.0455 14.1828 12.2705 14.075 12.4815C13.9297 12.758 13.6766 12.9596 13.3156 13.0768C13.1609 13.1283 12.9031 13.1752 12.6547 13.2315C11.525 13.4846 9.63594 13.9112 9.63594 15.6549C9.63594 17.2346 10.8266 17.8674 11.5953 17.919C11.9 17.9377 12.1203 17.933 12.5047 17.8768C12.8891 17.8205 13.6063 17.619 14.2156 17.2674C15.0547 16.7846 15.5047 16.0112 15.5047 15.008V0.847094C15.5 0.640844 15.3266 0.429906 15.0453 0.486156Z" fill="#031A6E"/>
</svg>
