<svg width="18" height="22" viewBox="0 0 18 22" fill="none" xmlns="http://www.w3.org/2000/svg">
<path d="M12.2 0.826737C12.0246 0.824301 11.8533 0.879557 11.7124 0.984003C11.5715 1.08845 11.4689 1.2363 11.4202 1.4048C11.3716 1.57331 11.3796 1.75313 11.4432 1.9166C11.5067 2.08007 11.6222 2.21814 11.7719 2.30955C11.534 5.42745 9.80001 8.8456 9.80001 12.0267C9.80001 15.0819 10.3664 16.724 10.2688 17.8736C10.1712 19.0224 9.80001 20.0122 9.80001 20.533C9.80001 21.285 10.1973 21.6267 10.8797 21.6267H16.7203C17.4027 21.6267 17.8 21.285 17.8 20.533C17.8 20.0122 17.4289 19.0232 17.3313 17.8736C17.2337 16.724 17.8 15.0819 17.8 12.0267C17.8 8.8456 16.066 5.42745 15.8281 2.30955C15.9778 2.21814 16.0933 2.08007 16.1569 1.9166C16.2204 1.75313 16.2285 1.57331 16.1798 1.4048C16.1312 1.2363 16.0285 1.08845 15.8876 0.984003C15.7467 0.879557 15.5754 0.824301 15.4 0.826737H12.2ZM5.80001 3.22674C2.71281 3.22674 0.200012 5.73874 0.200012 8.82674L0.203137 9.68299L0.895325 19.3986C0.984925 20.6482 2.03707 21.6267 3.28907 21.6267H8.30939C8.33659 21.6267 8.36187 21.6205 8.38907 21.6189C8.26667 21.2949 8.20001 20.9298 8.20001 20.533C8.20001 20.3674 8.22441 20.1979 8.25001 20.0267H7.01876C7.72196 19.1715 8.32814 17.8955 8.32814 16.0267C8.32814 14.4827 7.98346 13.3144 7.45626 12.408C7.67226 12.3024 7.9327 12.2253 8.2047 12.1549C8.2039 12.1101 8.20001 12.0723 8.20001 12.0267C8.20001 10.9691 8.36332 9.91826 8.59532 8.87986C8.43052 8.84626 8.25302 8.82674 8.05782 8.82674C8.05782 8.82674 7.68839 7.22674 5.88439 7.22674C4.43479 7.22674 3.70939 8.42361 3.70939 8.42361C3.70939 8.42361 3.28881 8.02674 2.50001 8.02674C2.26481 8.02674 2.05607 8.09396 1.86407 8.19236C2.17047 6.28836 3.81121 4.82674 5.80001 4.82674C7.21521 4.82674 8.45287 5.57019 9.16407 6.68299C9.20007 6.55499 9.23745 6.42581 9.27345 6.29861C9.41825 5.78901 9.55639 5.2921 9.68439 4.8033C8.67719 3.8297 7.30801 3.22674 5.80001 3.22674ZM13.2813 3.22674H14.3188C14.4312 4.03056 14.6187 4.83107 14.8266 5.62674H12.7734C12.9813 4.83107 13.1689 4.03056 13.2813 3.22674ZM11.7063 9.62674H15.8938C16.0777 10.4575 16.2 11.2592 16.2 12.0267C16.2 13.6339 16.0321 14.8254 15.8969 15.783C15.8843 15.8719 15.8791 15.9415 15.8672 16.0267H11.7344C11.7225 15.9413 11.7173 15.8721 11.7047 15.783C11.5687 14.8262 11.4 13.6339 11.4 12.0267C11.4 11.2592 11.5223 10.4575 11.7063 9.62674ZM1.88439 10.808L5.24064 12.1861C6.10864 12.9477 6.72814 14.0908 6.72814 16.0252C6.72734 18.8692 4.92842 19.8323 4.48282 20.0267H3.28907C2.87147 20.0267 2.52104 19.6998 2.49064 19.283L1.88439 10.808ZM4.32657 15.2267C4.1144 15.2267 3.91092 15.311 3.76089 15.4611C3.61086 15.6111 3.52657 15.8146 3.52657 16.0267C3.52657 16.2389 3.61086 16.4424 3.76089 16.5924C3.91092 16.7425 4.1144 16.8267 4.32657 16.8267C4.53875 16.8267 4.74223 16.7425 4.89226 16.5924C5.04229 16.4424 5.12657 16.2389 5.12657 16.0267C5.12657 15.8146 5.04229 15.6111 4.89226 15.4611C4.74223 15.311 4.53875 15.2267 4.32657 15.2267ZM3.92657 17.6267C3.82049 17.6267 3.71875 17.6689 3.64373 17.7439C3.56872 17.8189 3.52657 17.9207 3.52657 18.0267C3.52657 18.1328 3.56872 18.2346 3.64373 18.3096C3.71875 18.3846 3.82049 18.4267 3.92657 18.4267C4.03266 18.4267 4.1344 18.3846 4.20942 18.3096C4.28443 18.2346 4.32657 18.1328 4.32657 18.0267C4.32657 17.9207 4.28443 17.8189 4.20942 17.7439C4.1344 17.6689 4.03266 17.6267 3.92657 17.6267Z" fill="#031A6E"/>
</svg>
