<svg width="24" height="25" viewBox="0 0 24 25" fill="none" xmlns="http://www.w3.org/2000/svg">
    <path fill-rule="evenodd" clip-rule="evenodd" d="M12.75 5.29266C12.75 4.87845 12.4142 4.54266 12 4.54266C11.5858 4.54266 11.25 4.87845 11.25 5.29266V5.60075C10.9233 5.68273 10.6026 5.8108 10.2973 5.98706C7.57548 7.55852 7.92142 11.5916 10.8711 12.6765L11.25 12.8159V17.5121C10.7151 17.3612 10.2373 17.0096 9.93805 16.4914L9.56249 15.8409C9.35538 15.4822 8.89669 15.3593 8.53797 15.5664C8.17925 15.7735 8.05634 16.2322 8.26345 16.5909L8.63901 17.2414C9.21747 18.2433 10.1927 18.8723 11.25 19.0461V19.2927C11.25 19.7069 11.5858 20.0427 12 20.0427C12.4142 20.0427 12.75 19.7069 12.75 19.2927V18.9846C13.0768 18.9027 13.3975 18.7746 13.7029 18.5983C16.4247 17.0268 16.0788 12.9938 13.1291 11.9088L12.75 11.7694L12.75 7.07318C13.285 7.22401 13.7629 7.57562 14.0622 8.09392L14.4377 8.74441C14.6448 9.10313 15.1035 9.22604 15.4623 9.01893C15.821 8.81183 15.9439 8.35313 15.7368 7.99441L15.3612 7.34392C14.7827 6.34193 13.8074 5.71298 12.75 5.53916V5.29266ZM11.0473 7.2861C11.1139 7.24767 11.1815 7.21313 11.25 7.18239L11.25 11.2126C9.62302 10.4941 9.47064 8.19641 11.0473 7.2861ZM12.9529 17.2992C12.8863 17.3377 12.8185 17.3723 12.75 17.403V13.3726C14.3772 14.091 14.5297 16.3889 12.9529 17.2992Z" fill="#191B1F"/>
    <path fill-rule="evenodd" clip-rule="evenodd" d="M12 1.54266C6.06294 1.54266 1.25 6.3556 1.25 12.2927C1.25 18.2297 6.06294 23.0427 12 23.0427C17.9371 23.0427 22.75 18.2297 22.75 12.2927C22.75 6.3556 17.9371 1.54266 12 1.54266ZM2.75 12.2927C2.75 7.18403 6.89137 3.04266 12 3.04266C17.1086 3.04266 21.25 7.18403 21.25 12.2927C21.25 17.4013 17.1086 21.5427 12 21.5427C6.89137 21.5427 2.75 17.4013 2.75 12.2927Z" fill="#191B1F"/>
</svg>
