<svg width="16" height="17" viewBox="0 0 16 17" fill="none" xmlns="http://www.w3.org/2000/svg">
    <path fill-rule="evenodd" clip-rule="evenodd" d="M11.0515 14.9159H5.16883C2.87483 14.9159 1.3335 13.3059 1.3335 10.9099V5.36721C1.3335 2.97121 2.87483 1.36121 5.16883 1.36121H7.6615C7.9375 1.36121 8.1615 1.58521 8.1615 1.86121C8.1615 2.13721 7.9375 2.36121 7.6615 2.36121H5.16883C3.44616 2.36121 2.3335 3.54121 2.3335 5.36721V10.9099C2.3335 12.7359 3.44616 13.9159 5.16883 13.9159H11.0515C12.7742 13.9159 13.8875 12.7359 13.8875 10.9099V8.22454C13.8875 7.94854 14.1115 7.72454 14.3875 7.72454C14.6635 7.72454 14.8875 7.94854 14.8875 8.22454V10.9099C14.8875 13.3059 13.3455 14.9159 11.0515 14.9159Z" fill="white"/>
    <path fill-rule="evenodd" clip-rule="evenodd" d="M5.91199 10.2889H7.89666C8.14999 10.2889 8.38732 10.1909 8.56666 10.0116L13.5727 5.00558C13.778 4.80025 13.8913 4.52691 13.8913 4.23625C13.8913 3.94491 13.778 3.67091 13.5727 3.46558L12.7613 2.65425C12.3367 2.23091 11.646 2.23091 11.2207 2.65425L6.23866 7.63625C6.06599 7.80891 5.96799 8.03825 5.96199 8.28158L5.91199 10.2889ZM7.89666 11.2889H5.39932C5.26466 11.2889 5.13532 11.2342 5.04132 11.1376C4.94732 11.0416 4.89599 10.9116 4.89932 10.7762L4.96199 8.25691C4.97466 7.75558 5.17666 7.28425 5.53132 6.92891H5.53199L10.514 1.94691C11.3287 1.13358 12.6533 1.13358 13.468 1.94691L14.2793 2.75825C14.6747 3.15291 14.892 3.67758 14.8913 4.23625C14.8913 4.79491 14.674 5.31891 14.2793 5.71291L9.27332 10.7189C8.90599 11.0862 8.41666 11.2889 7.89666 11.2889Z" fill="white"/>
    <path fill-rule="evenodd" clip-rule="evenodd" d="M13.1542 6.61445C13.0262 6.61445 12.8982 6.56578 12.8009 6.46778L9.75685 3.42378C9.56152 3.22845 9.56152 2.91178 9.75685 2.71645C9.95218 2.52111 10.2682 2.52111 10.4635 2.71645L13.5075 5.76111C13.7029 5.95645 13.7029 6.27245 13.5075 6.46778C13.4102 6.56578 13.2822 6.61445 13.1542 6.61445Z" fill="white"/>
</svg>
