<svg width="24" height="25" viewBox="0 0 24 25" fill="none" xmlns="http://www.w3.org/2000/svg">
    <path d="M15 2.54266C14.5858 2.54266 14.25 2.87845 14.25 3.29266C14.25 3.70688 14.5858 4.04266 15 4.04266H16C18.3472 4.04266 20.25 5.94545 20.25 8.29266V9.29266C20.25 9.70688 20.5858 10.0427 21 10.0427C21.4142 10.0427 21.75 9.70688 21.75 9.29266V8.29266C21.75 5.11703 19.1756 2.54266 16 2.54266H15Z" fill="#191B1F"/>
    <path d="M8 2.54266C4.82436 2.54266 2.25 5.11703 2.25 8.29266V9.29266C2.25 9.70688 2.58579 10.0427 3 10.0427C3.41421 10.0427 3.75 9.70688 3.75 9.29266V8.29266C3.75 5.94545 5.65279 4.04266 8 4.04266H9C9.41421 4.04266 9.75 3.70688 9.75 3.29266C9.75 2.87845 9.41421 2.54266 9 2.54266H8Z" fill="#191B1F"/>
    <path d="M1 11.5427C0.585786 11.5427 0.25 11.8785 0.25 12.2927C0.25 12.7069 0.585786 13.0427 1 13.0427H23C23.4142 13.0427 23.75 12.7069 23.75 12.2927C23.75 11.8785 23.4142 11.5427 23 11.5427H1Z" fill="#191B1F"/>
    <path d="M3.75 15.2927C3.75 14.8785 3.41421 14.5427 3 14.5427C2.58579 14.5427 2.25 14.8785 2.25 15.2927V16.2927C2.25 19.4683 4.82436 22.0427 8 22.0427H9C9.41421 22.0427 9.75 21.7069 9.75 21.2927C9.75 20.8785 9.41421 20.5427 9 20.5427H8C5.65279 20.5427 3.75 18.6399 3.75 16.2927V15.2927Z" fill="#191B1F"/>
    <path d="M21.75 15.2927C21.75 14.8785 21.4142 14.5427 21 14.5427C20.5858 14.5427 20.25 14.8785 20.25 15.2927V16.2927C20.25 18.6399 18.3472 20.5427 16 20.5427H15C14.5858 20.5427 14.25 20.8785 14.25 21.2927C14.25 21.7069 14.5858 22.0427 15 22.0427H16C19.1756 22.0427 21.75 19.4683 21.75 16.2927V15.2927Z" fill="#191B1F"/>
</svg>
