<svg width="24" height="25" viewBox="0 0 24 25" fill="none" xmlns="http://www.w3.org/2000/svg">
    <g clip-path="url(#clip0_198_3381)">
        <path fill-rule="evenodd" clip-rule="evenodd" d="M12 6.54266C9.92893 6.54266 8.25 8.2216 8.25 10.2927C8.25 12.3637 9.92893 14.0427 12 14.0427C14.0711 14.0427 15.75 12.3637 15.75 10.2927C15.75 8.2216 14.0711 6.54266 12 6.54266ZM9.75 10.2927C9.75 9.05002 10.7574 8.04266 12 8.04266C13.2426 8.04266 14.25 9.05002 14.25 10.2927C14.25 11.5353 13.2426 12.5427 12 12.5427C10.7574 12.5427 9.75 11.5353 9.75 10.2927Z" fill="#191B1F"/>
        <path fill-rule="evenodd" clip-rule="evenodd" d="M12 0.542664C7.11666 0.542664 3.25 4.78544 3.25 9.90136C3.25 11.5421 4.06511 13.4741 5.09064 15.2872C6.13277 17.1296 7.46288 18.9689 8.62903 20.456L8.66793 20.5056C9.23714 21.2315 9.72203 21.8499 10.1922 22.277C10.7052 22.743 11.2709 23.0481 12 23.0481C12.7291 23.0481 13.2948 22.743 13.8078 22.277C14.278 21.8499 14.7629 21.2315 15.3321 20.5056L15.371 20.456C16.5371 18.9689 17.8672 17.1296 18.9094 15.2872C19.9349 13.4741 20.75 11.5421 20.75 9.90136C20.75 4.78544 16.8833 0.542664 12 0.542664ZM4.75 9.90136C4.75 5.50838 8.04678 2.04266 12 2.04266C15.9532 2.04266 19.25 5.50838 19.25 9.90136C19.25 11.1279 18.6104 12.769 17.6037 14.5487C16.6137 16.299 15.3342 18.072 14.1906 19.5303C13.5717 20.3196 13.1641 20.8352 12.7992 21.1667C12.4664 21.4691 12.2442 21.5481 12 21.5481C11.7558 21.5481 11.5336 21.4691 11.2008 21.1667C10.8359 20.8352 10.4283 20.3196 9.80938 19.5303C8.66578 18.072 7.38628 16.299 6.39625 14.5487C5.38962 12.769 4.75 11.1279 4.75 9.90136Z" fill="#191B1F"/>
    </g>
    <defs>
        <clipPath id="clip0_198_3381">
            <rect width="24" height="24" fill="white" transform="translate(0 0.292664)"/>
        </clipPath>
    </defs>
</svg>
