<svg width="24" height="25" viewBox="0 0 24 25" fill="none" xmlns="http://www.w3.org/2000/svg">
    <path fill-rule="evenodd" clip-rule="evenodd" d="M11.8596 13.4307H11.8866C14.4066 13.4307 16.4556 11.3807 16.4556 8.86172C16.4556 6.34272 14.4066 4.29272 11.8866 4.29272C9.36764 4.29272 7.31864 6.34272 7.31864 8.85872C7.31364 10.0757 7.78264 11.2217 8.64064 12.0847C9.49664 12.9487 10.6396 13.4267 11.8596 13.4307ZM8.81864 8.86172C8.81864 7.16972 10.1946 5.79272 11.8866 5.79272C13.5786 5.79272 14.9556 7.16972 14.9556 8.86172C14.9556 10.5547 13.5786 11.9307 11.8866 11.9307H11.8616C11.0456 11.9277 10.2796 11.6067 9.70464 11.0277C9.12964 10.4487 8.81564 9.68172 8.81864 8.86172Z" fill="#191B1F"/>
    <path d="M17.1447 11.7932C17.1977 12.1682 17.5187 12.4392 17.8867 12.4392C17.9207 12.4392 17.9557 12.4372 17.9907 12.4322C19.7657 12.1832 21.1067 10.6432 21.1107 8.84823C21.1107 7.06523 19.8337 5.56123 18.0757 5.27223C17.6647 5.20723 17.2817 5.48123 17.2137 5.89023C17.1467 6.29923 17.4237 6.68523 17.8317 6.75223C18.8627 6.92123 19.6107 7.80323 19.6107 8.84623C19.6087 9.89823 18.8237 10.8002 17.7837 10.9462C17.3727 11.0032 17.0877 11.3822 17.1447 11.7932Z" fill="#191B1F"/>
    <path d="M20.1603 18.3409C20.2743 18.6399 20.5593 18.8239 20.8613 18.8239C20.9503 18.8239 21.0403 18.8079 21.1283 18.7749C22.5583 18.2299 22.7723 17.2369 22.7723 16.6929C22.7723 15.8019 22.2633 14.6639 19.8403 14.3009C19.4273 14.2479 19.0473 14.5209 18.9863 14.9309C18.9253 15.3419 19.2083 15.7229 19.6173 15.7849C20.7153 15.9489 21.2723 16.2549 21.2723 16.6929C21.2723 16.8299 21.2723 17.1149 20.5943 17.3729C20.2073 17.5199 20.0123 17.9539 20.1603 18.3409Z" fill="#191B1F"/>
    <path fill-rule="evenodd" clip-rule="evenodd" d="M11.8866 21.0837C10.2276 21.0837 5.17761 21.0837 5.17761 17.8887C5.17761 14.7067 10.2276 14.7067 11.8866 14.7067C13.5456 14.7067 18.5946 14.7067 18.5946 17.9057C18.5946 21.0837 13.7216 21.0837 11.8866 21.0837ZM11.8866 16.2067C9.51061 16.2067 6.67761 16.4987 6.67761 17.8887C6.67761 19.2897 9.51061 19.5837 11.8866 19.5837C14.2626 19.5837 17.0946 19.2927 17.0946 17.9057C17.0946 16.5017 14.2626 16.2067 11.8866 16.2067Z" fill="#191B1F"/>
    <path d="M5.8856 12.4392C5.8516 12.4392 5.8166 12.4372 5.7816 12.4322C4.0066 12.1832 2.6666 10.6432 2.6626 8.85017C2.6626 7.06517 3.9396 5.56117 5.6976 5.27217C6.1186 5.20617 6.4916 5.48317 6.5596 5.89017C6.6266 6.29917 6.3496 6.68517 5.9416 6.75217C4.9106 6.92117 4.1626 7.80317 4.1626 8.84817C4.1646 9.89817 4.9496 10.8012 5.9886 10.9462C6.3996 11.0032 6.6846 11.3822 6.6276 11.7932C6.5746 12.1682 6.2536 12.4392 5.8856 12.4392Z" fill="#191B1F"/>
    <path d="M2.645 18.7749C2.733 18.8079 2.823 18.8239 2.912 18.8239C3.214 18.8239 3.499 18.6399 3.613 18.3409C3.761 17.9539 3.566 17.5199 3.179 17.3729C2.5 17.1139 2.5 16.8299 2.5 16.6929C2.5 16.2549 3.057 15.9489 4.155 15.7849C4.564 15.7229 4.847 15.3419 4.786 14.9309C4.724 14.5209 4.346 14.2489 3.933 14.3009C1.509 14.6639 1 15.8029 1 16.6929C1 17.2359 1.214 18.2289 2.645 18.7749Z" fill="#191B1F"/>
</svg>
