<svg width="29" height="29" viewBox="0 0 29 29" fill="none" xmlns="http://www.w3.org/2000/svg">
    <circle cx="14.6299" cy="14.6629" r="11.4817" fill="url(#paint0_linear_198_3324)"/>
    <path d="M28.4079 14.6628C28.4079 22.2722 22.2393 28.4409 14.6299 28.4409C7.02045 28.4409 0.851807 22.2722 0.851807 14.6628C0.851807 7.05341 7.02045 0.884766 14.6299 0.884766C22.2393 0.884766 28.4079 7.05341 28.4079 14.6628ZM1.5599 14.6628C1.5599 21.8812 7.41152 27.7328 14.6299 27.7328C21.8482 27.7328 27.6998 21.8812 27.6998 14.6628C27.6998 7.44448 21.8482 1.59286 14.6299 1.59286C7.41152 1.59286 1.5599 7.44448 1.5599 14.6628Z" fill="#FFE14B"/>
    <path fill-rule="evenodd" clip-rule="evenodd" d="M14.8332 9.29272C14.7725 9.29272 14.6232 9.30939 14.5439 9.46806L13.3265 11.9021C13.1339 12.2867 12.7625 12.5541 12.3332 12.6154L9.60786 13.0081C9.42786 13.0341 9.36653 13.1674 9.34786 13.2234C9.3312 13.2774 9.30453 13.4147 9.42853 13.5334L11.3992 15.4267C11.7132 15.7287 11.8559 16.1641 11.7812 16.5901L11.3172 19.2634C11.2885 19.4307 11.3932 19.5281 11.4399 19.5614C11.4892 19.5987 11.6212 19.6727 11.7845 19.5874L14.2212 18.3241C14.6052 18.1261 15.0625 18.1261 15.4452 18.3241L17.8812 19.5867C18.0452 19.6714 18.1772 19.5974 18.2272 19.5614C18.2739 19.5281 18.3785 19.4307 18.3499 19.2634L17.8845 16.5901C17.8099 16.1641 17.9525 15.7287 18.2665 15.4267L20.2372 13.5334C20.3619 13.4147 20.3352 13.2767 20.3179 13.2234C20.2999 13.1674 20.2385 13.0341 20.0585 13.0081L17.3332 12.6154C16.9045 12.5541 16.5332 12.2867 16.3405 11.9014L15.1219 9.46806C15.0432 9.30939 14.8939 9.29272 14.8332 9.29272ZM11.6312 20.6261C11.3559 20.6261 11.0825 20.5394 10.8485 20.3687C10.4445 20.0727 10.2465 19.5841 10.3325 19.0921L10.7965 16.4187C10.8139 16.3194 10.7799 16.2187 10.7065 16.1481L8.73586 14.2547C8.3732 13.9074 8.2432 13.3941 8.39653 12.9174C8.5512 12.4354 8.96053 12.0907 9.4652 12.0187L12.1905 11.6261C12.2959 11.6114 12.3865 11.5467 12.4319 11.4547L13.6499 9.02006C13.8745 8.57139 14.3279 8.29272 14.8332 8.29272C15.3385 8.29272 15.7919 8.57139 16.0165 9.02006L17.2352 11.4541C17.2812 11.5467 17.3712 11.6114 17.4759 11.6261L20.2012 12.0187C20.7059 12.0907 21.1152 12.4354 21.2699 12.9174C21.4232 13.3941 21.2925 13.9074 20.9299 14.2547L18.9592 16.1481C18.8859 16.2187 18.8525 16.3194 18.8699 16.4181L19.3345 19.0921C19.4199 19.5847 19.2219 20.0734 18.8172 20.3687C18.4072 20.6694 17.8732 20.7101 17.4205 20.4741L14.9852 19.2121C14.8899 19.1627 14.7759 19.1627 14.6805 19.2121L12.2452 20.4747C12.0505 20.5761 11.8405 20.6261 11.6312 20.6261Z" fill="white"/>
    <defs>
        <linearGradient id="paint0_linear_198_3324" x1="14.6299" y1="3.18115" x2="14.6299" y2="26.1446" gradientUnits="userSpaceOnUse">
            <stop stop-color="#FF8D07"/>
            <stop offset="1" stop-color="#FFE24D"/>
        </linearGradient>
    </defs>
</svg>
