<svg width="18" height="18" viewBox="0 0 18 18" fill="none" xmlns="http://www.w3.org/2000/svg">
<path d="M9.51401 0.476982C9.153 0.196388 8.64765 0.196389 8.28665 0.476984L1.13632 6.03458C0.892579 6.22403 0.75 6.51543 0.75 6.82413V17C0.75 17.5523 1.19772 18 1.75 18H5.35744C5.90972 18 6.35744 17.5523 6.35744 17V11.9581C6.35744 11.4058 6.80515 10.9581 7.35744 10.9581H10.4432C10.9955 10.9581 11.4432 11.4058 11.4432 11.9581V17C11.4432 17.5523 11.891 18 12.4432 18H16.0507C16.603 18 17.0507 17.5523 17.0507 17V6.82413C17.0507 6.51543 16.9081 6.22403 16.6643 6.03458L9.51401 0.476982Z" fill="#031A6E"/>
</svg>
