<svg width="37" height="33" viewBox="0 0 37 33" fill="none" xmlns="http://www.w3.org/2000/svg">
<path d="M26.7254 1.43091H9.90624C7.75339 17.0391 14.3913 23.1836 17.9794 24.3049C26.0526 22.6903 27.1739 8.38281 26.7254 1.43091Z" fill="#F8F8F8"/>
<path d="M36.1939 4.94197C36.257 5.19426 37.5184 11.5014 33.5449 17.304C30.8959 21.2145 26.607 23.8635 20.7413 25.3141C19.8583 25.5664 19.2276 26.3233 19.2276 27.2694V30.3599H25.2825C25.8501 30.3599 26.2286 30.8645 26.2286 31.369C26.2286 31.9367 25.7871 32.3782 25.2825 32.3782H11.2175C10.6499 32.3782 10.1453 31.9367 10.1453 31.369C10.1453 30.8645 10.6499 30.3599 11.2175 30.3599H17.2724L17.2093 27.2694C17.2093 26.3233 16.5786 25.5034 15.6956 25.3141C9.82992 23.8635 5.54105 21.2145 2.95511 17.304C-1.01841 11.5014 0.243022 5.19426 0.306094 4.94197C0.432237 4.50047 0.810668 4.12204 1.31524 4.12204H8.19006C8.19006 3.74361 8.19006 3.36518 8.19006 3.04982C8.19006 1.40996 9.57764 0.0854492 11.2175 0.0854492H25.2825C26.9224 0.0854492 28.3099 1.40996 28.3099 3.04982C28.3099 3.36518 28.3099 3.74361 28.3099 4.12204H35.1848C35.6893 4.12204 36.0678 4.50047 36.1939 4.94197ZM10.2084 3.11289C10.0822 8.2217 10.5868 20.3315 18.2815 23.7373C25.9132 20.3315 26.4178 8.2217 26.2286 3.11289C26.2916 2.54525 25.8501 2.10374 25.2825 2.10374H11.2175C10.6499 2.10374 10.2084 2.54525 10.2084 3.11289ZM4.59497 16.2318C6.48712 19.007 9.45149 21.0883 13.2989 22.4759C9.45149 18.0609 8.37928 11.0599 8.19006 6.14034H2.19825C2.00903 7.90634 1.94596 12.2583 4.59497 16.2318ZM31.905 16.2318C34.554 12.2583 34.491 7.90634 34.3018 6.14034H28.3099C28.1207 11.0599 27.0485 18.0609 23.2011 22.4759C27.0485 21.0883 30.0129 19.007 31.905 16.2318Z" fill="#52526B"/>
<g filter="url(#filter0_f_351_6088)">
<path d="M14.0879 10.2971L16.4009 9.43974C16.2603 11.6425 16.6881 12.6297 18.1157 14.0658L15.8027 14.9231C15.8027 14.9231 15.6702 13.383 15.3308 12.4672C14.9913 11.5515 14.0879 10.2971 14.0879 10.2971Z" fill="#CBCBDD"/>
<path d="M15.8027 14.9233L18.1157 14.066C17.9751 16.2687 18.403 17.2559 19.8305 18.692L17.5175 19.5494C17.5175 19.5494 17.3851 18.0092 17.0456 17.0935C16.7062 16.1777 15.8027 14.9233 15.8027 14.9233Z" fill="#CBCBDD"/>
<path d="M12.373 5.67114L14.6861 4.81376C14.5454 7.0165 14.9733 8.0037 16.4008 9.43978L14.0878 10.2972C14.0878 10.2972 13.9554 8.757 13.6159 7.84126C13.2765 6.92551 12.373 5.67114 12.373 5.67114Z" fill="#CBCBDD"/>
<path d="M11.4028 7.78491C12.2215 7.62762 13.9731 7.62143 14.4303 8.85504C14.8876 10.0886 12.6025 8.65562 11.4028 7.78491Z" fill="#52526B"/>
<path d="M18.7241 9.98071C18.5947 10.8042 18.0069 12.4543 16.6914 12.4664C15.3758 12.4786 17.4984 10.8144 18.7241 9.98071Z" fill="#52526B"/>
</g>
<g filter="url(#filter1_f_351_6088)">
<path d="M18.894 9.65454H21.3608C20.4634 11.6711 20.5214 12.7454 21.3608 14.5882H18.894C18.894 14.5882 19.3052 13.098 19.3052 12.1213C19.3052 11.1447 18.894 9.65454 18.894 9.65454Z" fill="#CBCBDD"/>
<path d="M18.894 14.5879H21.3608C20.4634 16.6044 20.5214 17.6788 21.3608 19.5215H18.894C18.894 19.5215 19.3052 18.0313 19.3052 17.0547C19.3052 16.0781 18.894 14.5879 18.894 14.5879Z" fill="#CBCBDD"/>
<path d="M18.894 4.72095H21.3608C20.4634 6.73747 20.5214 7.81184 21.3608 9.65456H18.894C18.894 9.65456 19.3052 8.16439 19.3052 7.18775C19.3052 6.21112 18.894 4.72095 18.894 4.72095Z" fill="#CBCBDD"/>
<path d="M17.2495 6.36548C18.0718 6.50252 19.7163 7.10552 19.7163 8.42115C19.7163 9.73678 18.0718 7.59888 17.2495 6.36548Z" fill="#52526B"/>
<path d="M23.3511 10.9692C22.9435 11.6964 21.8189 13.0393 20.5811 12.5935C19.3433 12.1476 21.912 11.3249 23.3511 10.9692Z" fill="#52526B"/>
</g>
<defs>
<filter id="filter0_f_351_6088" x="6.83105" y="0.12207" width="18.8657" height="23.999" filterUnits="userSpaceOnUse" color-interpolation-filters="sRGB">
<feFlood flood-opacity="0" result="BackgroundImageFix"/>
<feBlend mode="normal" in="SourceGraphic" in2="BackgroundImageFix" result="shape"/>
<feGaussianBlur stdDeviation="2" result="effect1_foregroundBlur_351_6088"/>
</filter>
<filter id="filter1_f_351_6088" x="13.2495" y="0.720947" width="14.1021" height="22.8008" filterUnits="userSpaceOnUse" color-interpolation-filters="sRGB">
<feFlood flood-opacity="0" result="BackgroundImageFix"/>
<feBlend mode="normal" in="SourceGraphic" in2="BackgroundImageFix" result="shape"/>
<feGaussianBlur stdDeviation="2" result="effect1_foregroundBlur_351_6088"/>
</filter>
</defs>
</svg>
