<svg width="37" height="33" viewBox="0 0 37 33" fill="none" xmlns="http://www.w3.org/2000/svg">
<path d="M27.2254 1.43091H10.4062C8.25339 17.0391 14.8913 23.1836 18.4794 24.3049C26.5526 22.6903 27.6739 8.38281 27.2254 1.43091Z" fill="#C1F5D3"/>
<path d="M36.6939 4.94197C36.757 5.19426 38.0184 11.5014 34.0449 17.304C31.3959 21.2145 27.107 23.8635 21.2413 25.3141C20.3583 25.5664 19.7276 26.3233 19.7276 27.2694V30.3599H25.7825C26.3501 30.3599 26.7286 30.8645 26.7286 31.369C26.7286 31.9367 26.2871 32.3782 25.7825 32.3782H11.7175C11.1499 32.3782 10.6453 31.9367 10.6453 31.369C10.6453 30.8645 11.1499 30.3599 11.7175 30.3599H17.7724L17.7093 27.2694C17.7093 26.3233 17.0786 25.5034 16.1956 25.3141C10.3299 23.8635 6.04105 21.2145 3.45511 17.304C-0.518412 11.5014 0.743022 5.19426 0.806094 4.94197C0.932237 4.50047 1.31067 4.12204 1.81524 4.12204H8.69006C8.69006 3.74361 8.69006 3.36518 8.69006 3.04982C8.69006 1.40996 10.0776 0.0854492 11.7175 0.0854492H25.7825C27.4224 0.0854492 28.8099 1.40996 28.8099 3.04982C28.8099 3.36518 28.8099 3.74361 28.8099 4.12204H35.6848C36.1893 4.12204 36.5678 4.50047 36.6939 4.94197ZM10.7084 3.11289C10.5822 8.2217 11.0868 20.3315 18.7815 23.7373C26.4132 20.3315 26.9178 8.2217 26.7286 3.11289C26.7916 2.54525 26.3501 2.10374 25.7825 2.10374H11.7175C11.1499 2.10374 10.7084 2.54525 10.7084 3.11289ZM5.09497 16.2318C6.98712 19.007 9.95149 21.0883 13.7989 22.4759C9.95149 18.0609 8.87928 11.0599 8.69006 6.14034H2.69825C2.50903 7.90634 2.44596 12.2583 5.09497 16.2318ZM32.405 16.2318C35.054 12.2583 34.991 7.90634 34.8018 6.14034H28.8099C28.6207 11.0599 27.5485 18.0609 23.7011 22.4759C27.5485 21.0883 30.5129 19.007 32.405 16.2318Z" fill="url(#paint0_linear_351_6005)"/>
<g filter="url(#filter0_f_351_6005)">
<path d="M14.5879 10.2971L16.9009 9.43974C16.7603 11.6425 17.1881 12.6297 18.6157 14.0658L16.3027 14.9231C16.3027 14.9231 16.1702 13.383 15.8308 12.4672C15.4913 11.5515 14.5879 10.2971 14.5879 10.2971Z" fill="#69D38C"/>
<path d="M16.3027 14.9233L18.6157 14.066C18.4751 16.2687 18.903 17.2559 20.3305 18.692L18.0175 19.5494C18.0175 19.5494 17.8851 18.0092 17.5456 17.0935C17.2062 16.1777 16.3027 14.9233 16.3027 14.9233Z" fill="#69D38C"/>
<path d="M12.873 5.67114L15.1861 4.81376C15.0454 7.0165 15.4733 8.0037 16.9008 9.43978L14.5878 10.2972C14.5878 10.2972 14.4554 8.757 14.1159 7.84126C13.7765 6.92551 12.873 5.67114 12.873 5.67114Z" fill="#69D38C"/>
<path d="M11.9028 7.78491C12.7215 7.62762 14.4731 7.62143 14.9303 8.85504C15.3876 10.0886 13.1025 8.65562 11.9028 7.78491Z" fill="#2DBC5D"/>
<path d="M19.2241 9.98071C19.0947 10.8042 18.5069 12.4543 17.1914 12.4664C15.8758 12.4786 17.9984 10.8144 19.2241 9.98071Z" fill="#2DBC5D"/>
</g>
<g filter="url(#filter1_f_351_6005)">
<path d="M19.394 9.65454H21.8608C20.9634 11.6711 21.0214 12.7454 21.8608 14.5882H19.394C19.394 14.5882 19.8052 13.098 19.8052 12.1213C19.8052 11.1447 19.394 9.65454 19.394 9.65454Z" fill="#69D38C"/>
<path d="M19.394 14.5879H21.8608C20.9634 16.6044 21.0214 17.6788 21.8608 19.5215H19.394C19.394 19.5215 19.8052 18.0313 19.8052 17.0547C19.8052 16.0781 19.394 14.5879 19.394 14.5879Z" fill="#69D38C"/>
<path d="M19.394 4.72095H21.8608C20.9634 6.73747 21.0214 7.81184 21.8608 9.65456H19.394C19.394 9.65456 19.8052 8.16439 19.8052 7.18775C19.8052 6.21112 19.394 4.72095 19.394 4.72095Z" fill="#69D38C"/>
<path d="M17.7495 6.36548C18.5718 6.50252 20.2163 7.10552 20.2163 8.42115C20.2163 9.73678 18.5718 7.59888 17.7495 6.36548Z" fill="#2DBC5D"/>
<path d="M23.8511 10.9692C23.4435 11.6964 22.3189 13.0393 21.0811 12.5935C19.8433 12.1476 22.412 11.3249 23.8511 10.9692Z" fill="#2DBC5D"/>
</g>
<defs>
<filter id="filter0_f_351_6005" x="7.33105" y="0.12207" width="18.8657" height="23.999" filterUnits="userSpaceOnUse" color-interpolation-filters="sRGB">
<feFlood flood-opacity="0" result="BackgroundImageFix"/>
<feBlend mode="normal" in="SourceGraphic" in2="BackgroundImageFix" result="shape"/>
<feGaussianBlur stdDeviation="2" result="effect1_foregroundBlur_351_6005"/>
</filter>
<filter id="filter1_f_351_6005" x="13.7495" y="0.720947" width="14.1021" height="22.8008" filterUnits="userSpaceOnUse" color-interpolation-filters="sRGB">
<feFlood flood-opacity="0" result="BackgroundImageFix"/>
<feBlend mode="normal" in="SourceGraphic" in2="BackgroundImageFix" result="shape"/>
<feGaussianBlur stdDeviation="2" result="effect1_foregroundBlur_351_6005"/>
</filter>
<linearGradient id="paint0_linear_351_6005" x1="18.75" y1="0.0854492" x2="18.75" y2="32.3782" gradientUnits="userSpaceOnUse">
<stop stop-color="#FF902A"/>
<stop offset="1" stop-color="#FFE24D"/>
</linearGradient>
</defs>
</svg>
