<svg width="37" height="33" viewBox="0 0 37 33" fill="none" xmlns="http://www.w3.org/2000/svg">
<path d="M26.7254 1.63818H9.90624C7.75339 17.2463 14.3913 23.3909 17.9794 24.5122C26.0526 22.8976 27.1739 8.59009 26.7254 1.63818Z" fill="#C1F5D3"/>
<path d="M36.1939 5.14925C36.257 5.40153 37.5184 11.7087 33.5449 17.5113C30.8959 21.4218 26.607 24.0708 20.7413 25.5214C19.8583 25.7737 19.2276 26.5306 19.2276 27.4766V30.5672H25.2825C25.8501 30.5672 26.2286 31.0717 26.2286 31.5763C26.2286 32.1439 25.7871 32.5854 25.2825 32.5854H11.2175C10.6499 32.5854 10.1453 32.1439 10.1453 31.5763C10.1453 31.0717 10.6499 30.5672 11.2175 30.5672H17.2724L17.2093 27.4766C17.2093 26.5306 16.5786 25.7106 15.6956 25.5214C9.82992 24.0708 5.54105 21.4218 2.95511 17.5113C-1.01841 11.7087 0.243022 5.40153 0.306094 5.14925C0.432237 4.70775 0.810668 4.32932 1.31524 4.32932H8.19006C8.19006 3.95088 8.19006 3.57245 8.19006 3.2571C8.19006 1.61723 9.57764 0.292725 11.2175 0.292725H25.2825C26.9224 0.292725 28.3099 1.61723 28.3099 3.2571C28.3099 3.57245 28.3099 3.95088 28.3099 4.32932H35.1848C35.6893 4.32932 36.0678 4.70775 36.1939 5.14925ZM10.2084 3.32017C10.0822 8.42898 10.5868 20.5387 18.2815 23.9446C25.9132 20.5387 26.4178 8.42898 26.2286 3.32017C26.2916 2.75252 25.8501 2.31102 25.2825 2.31102H11.2175C10.6499 2.31102 10.2084 2.75252 10.2084 3.32017ZM4.59497 16.4391C6.48712 19.2142 9.45149 21.2956 13.2989 22.6832C9.45149 18.2682 8.37928 11.2672 8.19006 6.34761H2.19825C2.00903 8.11362 1.94596 12.4656 4.59497 16.4391ZM31.905 16.4391C34.554 12.4656 34.491 8.11362 34.3018 6.34761H28.3099C28.1207 11.2672 27.0485 18.2682 23.2011 22.6832C27.0485 21.2956 30.0129 19.2142 31.905 16.4391Z" fill="url(#paint0_linear_350_5925)"/>
<path d="M14.0879 10.5044L16.4009 9.64701C16.2603 11.8497 16.6881 12.837 18.1157 14.273L15.8027 15.1304C15.8027 15.1304 15.6702 13.5903 15.3308 12.6745C14.9913 11.7588 14.0879 10.5044 14.0879 10.5044Z" fill="#69D38C"/>
<path d="M15.8027 15.1306L18.1157 14.2732C17.9751 16.476 18.403 17.4632 19.8305 18.8993L17.5175 19.7566C17.5175 19.7566 17.3851 18.2165 17.0456 17.3007C16.7062 16.385 15.8027 15.1306 15.8027 15.1306Z" fill="#69D38C"/>
<path d="M12.373 5.87842L14.6861 5.02104C14.5454 7.22377 14.9733 8.21098 16.4008 9.64706L14.0878 10.5044C14.0878 10.5044 13.9554 8.96428 13.6159 8.04853C13.2765 7.13279 12.373 5.87842 12.373 5.87842Z" fill="#69D38C"/>
<path d="M11.4028 7.99219C12.2215 7.83489 13.9731 7.82871 14.4303 9.06231C14.8876 10.2959 12.6025 8.8629 11.4028 7.99219Z" fill="#2DBC5D"/>
<path d="M18.7241 10.188C18.5947 11.0115 18.0069 12.6615 16.6914 12.6737C15.3758 12.6859 17.4984 11.0216 18.7241 10.188Z" fill="#2DBC5D"/>
<path d="M18.894 9.86182H21.3608C20.4634 11.8783 20.5214 12.9527 21.3608 14.7954H18.894C18.894 14.7954 19.3052 13.3053 19.3052 12.3286C19.3052 11.352 18.894 9.86182 18.894 9.86182Z" fill="#69D38C"/>
<path d="M18.894 14.7952H21.3608C20.4634 16.8117 20.5214 17.8861 21.3608 19.7288H18.894C18.894 19.7288 19.3052 18.2386 19.3052 17.262C19.3052 16.2853 18.894 14.7952 18.894 14.7952Z" fill="#69D38C"/>
<path d="M18.894 4.92822H21.3608C20.4634 6.94475 20.5214 8.01911 21.3608 9.86183H18.894C18.894 9.86183 19.3052 8.37166 19.3052 7.39503C19.3052 6.41839 18.894 4.92822 18.894 4.92822Z" fill="#69D38C"/>
<path d="M17.2495 6.57275C18.0718 6.7098 19.7163 7.3128 19.7163 8.62842C19.7163 9.94405 18.0718 7.80616 17.2495 6.57275Z" fill="#2DBC5D"/>
<path d="M23.3511 11.1765C22.9435 11.9037 21.8189 13.2466 20.5811 12.8007C19.3433 12.3549 21.912 11.5322 23.3511 11.1765Z" fill="#2DBC5D"/>
<defs>
<linearGradient id="paint0_linear_350_5925" x1="18.25" y1="0.292725" x2="18.25" y2="32.5854" gradientUnits="userSpaceOnUse">
<stop stop-color="#FF902A"/>
<stop offset="1" stop-color="#FFE24D"/>
</linearGradient>
</defs>
</svg>
