<svg width="37" height="33" viewBox="0 0 37 33" fill="none" xmlns="http://www.w3.org/2000/svg">
<path d="M27.2254 1.63818H10.4062C8.25339 17.2463 14.8913 23.3909 18.4794 24.5122C26.5526 22.8976 27.6739 8.59009 27.2254 1.63818Z" fill="#EDFFF3"/>
<path d="M36.6939 5.14925C36.757 5.40153 38.0184 11.7087 34.0449 17.5113C31.3959 21.4218 27.107 24.0708 21.2413 25.5214C20.3583 25.7737 19.7276 26.5306 19.7276 27.4766V30.5672H25.7825C26.3501 30.5672 26.7286 31.0717 26.7286 31.5763C26.7286 32.1439 26.2871 32.5854 25.7825 32.5854H11.7175C11.1499 32.5854 10.6453 32.1439 10.6453 31.5763C10.6453 31.0717 11.1499 30.5672 11.7175 30.5672H17.7724L17.7093 27.4766C17.7093 26.5306 17.0786 25.7106 16.1956 25.5214C10.3299 24.0708 6.04105 21.4218 3.45511 17.5113C-0.518412 11.7087 0.743022 5.40153 0.806094 5.14925C0.932237 4.70775 1.31067 4.32932 1.81524 4.32932H8.69006C8.69006 3.95088 8.69006 3.57245 8.69006 3.2571C8.69006 1.61723 10.0776 0.292725 11.7175 0.292725H25.7825C27.4224 0.292725 28.8099 1.61723 28.8099 3.2571C28.8099 3.57245 28.8099 3.95088 28.8099 4.32932H35.6848C36.1893 4.32932 36.5678 4.70775 36.6939 5.14925ZM10.7084 3.32017C10.5822 8.42898 11.0868 20.5387 18.7815 23.9446C26.4132 20.5387 26.9178 8.42898 26.7286 3.32017C26.7916 2.75252 26.3501 2.31102 25.7825 2.31102H11.7175C11.1499 2.31102 10.7084 2.75252 10.7084 3.32017ZM5.09497 16.4391C6.98712 19.2142 9.95149 21.2956 13.7989 22.6832C9.95149 18.2682 8.87928 11.2672 8.69006 6.34761H2.69825C2.50903 8.11362 2.44596 12.4656 5.09497 16.4391ZM32.405 16.4391C35.054 12.4656 34.991 8.11362 34.8018 6.34761H28.8099C28.6207 11.2672 27.5485 18.2682 23.7011 22.6832C27.5485 21.2956 30.5129 19.2142 32.405 16.4391Z" fill="url(#paint0_linear_350_5945)"/>
<path d="M16.3027 11.1306L17.1933 10.8005C17.5701 12.8114 17.9645 13.811 18.908 15.4265L18.0175 15.7566C18.0175 15.7566 17.648 14.3044 17.3085 13.3886C16.9691 12.4729 16.3027 11.1306 16.3027 11.1306Z" fill="#69D38C"/>
<path d="M14.5669 12.1501C15.3855 11.9929 17.1371 11.9867 17.5944 13.2203C18.0517 14.4539 15.7666 13.0209 14.5669 12.1501Z" fill="#2DBC5D"/>
<path d="M19.0356 9.29272C18.9062 10.1162 18.3185 11.7663 17.0029 11.7784C15.6873 11.7906 17.8099 10.1264 19.0356 9.29272Z" fill="#2DBC5D"/>
<path d="M19.5669 10.2927H20.5669C20.2031 12.3364 20.2266 13.4252 20.5669 15.2927H19.5669C19.5669 15.2927 19.7336 13.7825 19.7336 12.7927C19.7336 11.8029 19.5669 10.2927 19.5669 10.2927Z" fill="#69D38C"/>
<path d="M17.5669 11.2927C18.3892 11.4298 20.0337 12.0328 20.0337 13.3484C20.0337 14.664 18.3892 12.5261 17.5669 11.2927Z" fill="#2DBC5D"/>
<path d="M22.7256 10.1294C22.318 10.8566 21.1934 12.1995 19.9556 11.7536C18.7178 11.3078 21.2865 10.485 22.7256 10.1294Z" fill="#2DBC5D"/>
<defs>
<linearGradient id="paint0_linear_350_5945" x1="18.75" y1="0.292725" x2="18.75" y2="32.5854" gradientUnits="userSpaceOnUse">
<stop stop-color="#FF902A"/>
<stop offset="1" stop-color="#FFE24D"/>
</linearGradient>
</defs>
</svg>
