<svg width="37" height="33" viewBox="0 0 37 33" fill="none" xmlns="http://www.w3.org/2000/svg">
    <path d="M26.6582 1.49194H9.8391C7.68625 17.1001 14.3242 23.2447 17.9123 24.366C25.9855 22.7513 27.1067 8.44385 26.6582 1.49194Z" fill="#C1F5D3"/>
    <path d="M36.127 5.00301C36.1901 5.25529 37.4515 11.5625 33.478 17.3651C30.829 21.2755 26.5401 23.9245 20.6744 25.3752C19.7914 25.6275 19.1607 26.3843 19.1607 27.3304V30.4209H25.2156C25.7832 30.4209 26.1617 30.9255 26.1617 31.4301C26.1617 31.9977 25.7202 32.4392 25.2156 32.4392H11.1506C10.583 32.4392 10.0784 31.9977 10.0784 31.4301C10.0784 30.9255 10.583 30.4209 11.1506 30.4209H17.2055L17.1424 27.3304C17.1424 26.3843 16.5117 25.5644 15.6287 25.3752C9.76303 23.9245 5.47415 21.2755 2.88821 17.3651C-1.08531 11.5625 0.176128 5.25529 0.239199 5.00301C0.365343 4.56151 0.743773 4.18307 1.24835 4.18307H8.12317C8.12317 3.80464 8.12317 3.42621 8.12317 3.11086C8.12317 1.47099 9.51074 0.146484 11.1506 0.146484H25.2156C26.8555 0.146484 28.243 1.47099 28.243 3.11086C28.243 3.42621 28.243 3.80464 28.243 4.18307H35.1179C35.6224 4.18307 36.0009 4.56151 36.127 5.00301ZM10.1415 3.17393C10.0153 8.28274 10.5199 20.3925 18.2146 23.7984C25.8463 20.3925 26.3509 8.28274 26.1617 3.17393C26.2247 2.60628 25.7832 2.16478 25.2156 2.16478H11.1506C10.583 2.16478 10.1415 2.60628 10.1415 3.17393ZM4.52808 16.2928C6.42023 19.068 9.3846 21.1494 13.232 22.5369C9.3846 18.1219 8.31238 11.121 8.12317 6.20137H2.13135C1.94214 7.96738 1.87906 12.3193 4.52808 16.2928ZM31.8381 16.2928C34.4871 12.3193 34.4241 7.96738 34.2349 6.20137H28.243C28.0538 11.121 26.9816 18.1219 23.1342 22.5369C26.9816 21.1494 29.946 19.068 31.8381 16.2928Z" fill="url(#paint0_linear_269_6194)"/>
    <path d="M14.021 10.3582L16.334 9.50077C16.1934 11.7035 16.6212 12.6907 18.0488 14.1268L15.7358 14.9842C15.7358 14.9842 15.6033 13.444 15.2639 12.5283C14.9244 11.6125 14.021 10.3582 14.021 10.3582Z" fill="#69D38C"/>
    <path d="M15.7358 14.9844L18.0489 14.127C17.9082 16.3297 18.3361 17.3169 19.7636 18.753L17.4506 19.6104C17.4506 19.6104 17.3182 18.0702 16.9787 17.1545C16.6393 16.2387 15.7358 14.9844 15.7358 14.9844Z" fill="#69D38C"/>
    <path d="M12.3062 5.73218L14.6192 4.87479C14.4785 7.07753 14.9064 8.06474 16.3339 9.50082L14.0209 10.3582C14.0209 10.3582 13.8885 8.81804 13.549 7.90229C13.2096 6.98655 12.3062 5.73218 12.3062 5.73218Z" fill="#69D38C"/>
    <path d="M11.3359 7.84595C12.1546 7.68865 13.9062 7.68247 14.3634 8.91607C14.8207 10.1497 12.5356 8.71666 11.3359 7.84595Z" fill="#2DBC5D"/>
    <path d="M18.6575 10.0417C18.528 10.8652 17.9403 12.5153 16.6247 12.5275C15.3091 12.5396 17.4317 10.8754 18.6575 10.0417Z" fill="#2DBC5D"/>
    <path d="M18.8271 9.71558H21.294C20.3965 11.7321 20.4545 12.8065 21.294 14.6492H18.8271C18.8271 14.6492 19.2383 13.159 19.2383 12.1824C19.2383 11.2057 18.8271 9.71558 18.8271 9.71558Z" fill="#69D38C"/>
    <path d="M18.8271 14.6489H21.294C20.3965 16.6655 20.4545 17.7398 21.294 19.5825H18.8271C18.8271 19.5825 19.2383 18.0924 19.2383 17.1157C19.2383 16.1391 18.8271 14.6489 18.8271 14.6489Z" fill="#69D38C"/>
    <path d="M18.8271 4.78198H21.294C20.3965 6.79851 20.4545 7.87287 21.294 9.71559H18.8271C18.8271 9.71559 19.2383 8.22542 19.2383 7.24879C19.2383 6.27215 18.8271 4.78198 18.8271 4.78198Z" fill="#69D38C"/>
    <path d="M17.1829 6.42651C18.0051 6.56356 19.6497 7.16656 19.6497 8.48218C19.6497 9.79781 18.0051 7.65992 17.1829 6.42651Z" fill="#2DBC5D"/>
    <path d="M23.2847 11.0303C22.8771 11.7574 21.7525 13.1003 20.5147 12.6545C19.2769 12.2087 21.8456 11.3859 23.2847 11.0303Z" fill="#2DBC5D"/>
    <defs>
        <linearGradient id="paint0_linear_269_6194" x1="18.1831" y1="0.146484" x2="18.1831" y2="32.4392" gradientUnits="userSpaceOnUse">
            <stop stop-color="#FF902A"/>
            <stop offset="1" stop-color="#FFE24D"/>
        </linearGradient>
    </defs>
</svg>
